<svg width="871" height="483" viewBox="0 0 871 483" fill="none" xmlns="http://www.w3.org/2000/svg">
<path d="M435.5 430L466 483H405L435.5 430Z" fill="#00234D"/>
<circle cx="7.49405" cy="179.51" r="7.49405" fill="#2ED1C7"/>
<path d="M0 196.091C0 192.02 3.29976 188.721 7.37021 188.721C11.4407 188.721 14.7404 192.02 14.7404 196.091V203.461H0V196.091Z" fill="#2ED1C7"/>
<circle cx="182.698" cy="179.51" r="7.49405" fill="#2ED1C7"/>
<path d="M175.204 196.091C175.204 192.02 178.504 188.721 182.574 188.721C186.645 188.721 189.945 192.02 189.945 196.091V203.461H175.204V196.091Z" fill="#2ED1C7"/>
<circle cx="357.901" cy="179.51" r="7.49405" fill="#2ED1C7"/>
<path d="M350.407 196.091C350.407 192.02 353.707 188.721 357.777 188.721C361.848 188.721 365.148 192.02 365.148 196.091V203.461H350.407V196.091Z" fill="#2ED1C7"/>
<circle cx="576.906" cy="179.51" r="7.49405" fill="#2ED1C7"/>
<path d="M569.412 196.091C569.412 192.02 572.712 188.721 576.782 188.721C580.853 188.721 584.153 192.02 584.153 196.091V203.461H569.412V196.091Z" fill="#2ED1C7"/>
<circle cx="95.0956" cy="179.51" r="7.49405" fill="#2ED1C7"/>
<path d="M87.6016 196.091C87.6016 192.02 90.9013 188.721 94.9718 188.721C99.0422 188.721 102.342 192.02 102.342 196.091V203.461H87.6016V196.091Z" fill="#2ED1C7"/>
<circle cx="270.3" cy="179.51" r="7.49405" fill="#2ED1C7"/>
<path d="M262.806 196.091C262.806 192.02 266.105 188.721 270.176 188.721C274.246 188.721 277.546 192.02 277.546 196.091V203.461H262.806V196.091Z" fill="#2ED1C7"/>
<circle cx="445.504" cy="179.51" r="7.49405" fill="#2ED1C7"/>
<path d="M438.01 196.091C438.01 192.02 441.31 188.721 445.38 188.721C449.45 188.721 452.75 192.02 452.75 196.091V203.461H438.01V196.091Z" fill="#2ED1C7"/>
<circle cx="664.509" cy="179.51" r="7.49405" fill="#2ED1C7"/>
<path d="M657.015 196.092C657.015 192.021 660.314 188.721 664.385 188.721C668.455 188.721 671.755 192.021 671.755 196.092V203.462H657.015V196.092Z" fill="#2ED1C7"/>
<circle cx="795.911" cy="179.51" r="7.49405" fill="#2ED1C7"/>
<path d="M788.417 196.091C788.417 192.02 791.717 188.721 795.787 188.721C799.858 188.721 803.157 192.02 803.157 196.091V203.461H788.417V196.091Z" fill="#2ED1C7"/>
<circle cx="51.2948" cy="179.51" r="7.49405" fill="#2ED1C7"/>
<path d="M43.8008 196.091C43.8008 192.02 47.1005 188.721 51.171 188.721C55.2415 188.721 58.5412 192.02 58.5412 196.091V203.461H43.8008V196.091Z" fill="#2ED1C7"/>
<circle cx="226.499" cy="179.51" r="7.49405" fill="#2ED1C7"/>
<path d="M219.005 196.091C219.005 192.02 222.305 188.721 226.375 188.721C230.446 188.721 233.745 192.02 233.745 196.091V203.461H219.005V196.091Z" fill="#2ED1C7"/>
<circle cx="401.703" cy="179.51" r="7.49405" fill="#2ED1C7"/>
<path d="M394.209 196.091C394.209 192.02 397.509 188.721 401.579 188.721C405.65 188.721 408.949 192.02 408.949 196.091V203.461H394.209V196.091Z" fill="#2ED1C7"/>
<circle cx="620.707" cy="179.51" r="7.49405" fill="#2ED1C7"/>
<path d="M613.213 196.091C613.213 192.02 616.513 188.721 620.583 188.721C624.654 188.721 627.953 192.02 627.953 196.091V203.461H613.213V196.091Z" fill="#2ED1C7"/>
<circle cx="752.11" cy="179.51" r="7.49405" fill="#2ED1C7"/>
<path d="M744.616 196.091C744.616 192.02 747.916 188.721 751.986 188.721C756.057 188.721 759.357 192.02 759.357 196.091V203.461H744.616V196.091Z" fill="#2ED1C7"/>
<circle cx="138.897" cy="179.51" r="7.49405" fill="#2ED1C7"/>
<path d="M131.403 196.091C131.403 192.02 134.703 188.721 138.774 188.721C142.844 188.721 146.144 192.02 146.144 196.091V203.461H131.403V196.091Z" fill="#2ED1C7"/>
<circle cx="314.1" cy="179.51" r="7.49405" fill="#2ED1C7"/>
<path d="M306.606 196.091C306.606 192.02 309.906 188.721 313.977 188.721C318.047 188.721 321.347 192.02 321.347 196.091V203.461H306.606V196.091Z" fill="#2ED1C7"/>
<circle cx="533.105" cy="179.51" r="7.49405" fill="#2ED1C7"/>
<path d="M525.611 196.091C525.611 192.02 528.911 188.721 532.982 188.721C537.052 188.721 540.352 192.02 540.352 196.091V203.461H525.611V196.091Z" fill="#2ED1C7"/>
<circle cx="489.305" cy="179.51" r="7.49405" fill="#2ED1C7"/>
<path d="M481.811 196.091C481.811 192.02 485.11 188.721 489.181 188.721C493.251 188.721 496.551 192.02 496.551 196.091V203.461H481.811V196.091Z" fill="#2ED1C7"/>
<circle cx="708.309" cy="179.51" r="7.49405" fill="#2ED1C7"/>
<path d="M700.815 196.091C700.815 192.02 704.115 188.721 708.186 188.721C712.256 188.721 715.556 192.02 715.556 196.091V203.461H700.815V196.091Z" fill="#2ED1C7"/>
<circle cx="839.712" cy="179.51" r="7.49405" fill="#2ED1C7"/>
<path d="M832.218 196.091C832.218 192.02 835.518 188.721 839.588 188.721C843.658 188.721 846.958 192.02 846.958 196.091V203.461H832.218V196.091Z" fill="#2ED1C7"/>
<circle cx="29.0263" cy="179.51" r="7.49405" fill="#00B7B7"/>
<path d="M29.3942 188.721L37.9046 203.462H20.8838L29.3942 188.721Z" fill="#00B7B7"/>
<rect x="25.4629" y="188.721" width="7.86156" height="1.96539" fill="#00B7B7"/>
<circle cx="204.23" cy="179.51" r="7.49405" fill="#00B7B7"/>
<path d="M204.598 188.721L213.109 203.462H196.088L204.598 188.721Z" fill="#00B7B7"/>
<rect x="200.667" y="188.721" width="7.86156" height="1.96539" fill="#00B7B7"/>
<circle cx="379.434" cy="179.51" r="7.49405" fill="#00B7B7"/>
<path d="M379.802 188.721L388.313 203.462H371.292L379.802 188.721Z" fill="#00B7B7"/>
<rect x="375.871" y="188.721" width="7.86156" height="1.96539" fill="#00B7B7"/>
<circle cx="598.439" cy="179.51" r="7.49405" fill="#00B7B7"/>
<path d="M598.807 188.721L607.318 203.462H590.297L598.807 188.721Z" fill="#00B7B7"/>
<rect x="594.876" y="188.721" width="7.86156" height="1.96539" fill="#00B7B7"/>
<circle cx="116.629" cy="179.51" r="7.49405" fill="#00B7B7"/>
<path d="M116.997 188.721L125.507 203.462H108.486L116.997 188.721Z" fill="#00B7B7"/>
<rect x="113.065" y="188.721" width="7.86156" height="1.96539" fill="#00B7B7"/>
<circle cx="291.832" cy="179.51" r="7.49405" fill="#00B7B7"/>
<path d="M292.2 188.721L300.71 203.462H283.689L292.2 188.721Z" fill="#00B7B7"/>
<rect x="288.269" y="188.721" width="7.86156" height="1.96539" fill="#00B7B7"/>
<circle cx="467.036" cy="179.51" r="7.49405" fill="#00B7B7"/>
<path d="M467.404 188.721L475.914 203.462H458.894L467.404 188.721Z" fill="#00B7B7"/>
<rect x="463.473" y="188.721" width="7.86156" height="1.96539" fill="#00B7B7"/>
<circle cx="686.041" cy="179.51" r="7.49405" fill="#00B7B7"/>
<path d="M686.409 188.721L694.919 203.462H677.898L686.409 188.721Z" fill="#00B7B7"/>
<rect x="682.478" y="188.721" width="7.86156" height="1.96539" fill="#00B7B7"/>
<circle cx="817.443" cy="179.51" r="7.49405" fill="#00B7B7"/>
<path d="M817.811 188.721L826.322 203.462H809.301L817.811 188.721Z" fill="#00B7B7"/>
<rect x="813.88" y="188.721" width="7.86156" height="1.96539" fill="#00B7B7"/>
<circle cx="861.122" cy="179.51" r="7.49405" fill="#00B7B7"/>
<path d="M861.49 188.721L870 203.462H852.979L861.49 188.721Z" fill="#00B7B7"/>
<rect x="857.559" y="188.721" width="7.86156" height="1.96539" fill="#00B7B7"/>
<circle cx="72.828" cy="179.51" r="7.49405" fill="#00B7B7"/>
<path d="M73.1959 188.721L81.7063 203.462H64.6855L73.1959 188.721Z" fill="#00B7B7"/>
<rect x="69.2646" y="188.721" width="7.86156" height="1.96539" fill="#00B7B7"/>
<circle cx="248.031" cy="179.51" r="7.49405" fill="#00B7B7"/>
<path d="M248.399 188.721L256.909 203.462H239.889L248.399 188.721Z" fill="#00B7B7"/>
<rect x="244.468" y="188.721" width="7.86156" height="1.96539" fill="#00B7B7"/>
<circle cx="423.235" cy="179.51" r="7.49405" fill="#00B7B7"/>
<path d="M423.603 188.721L432.114 203.462H415.093L423.603 188.721Z" fill="#00B7B7"/>
<rect x="419.672" y="188.721" width="7.86156" height="1.96539" fill="#00B7B7"/>
<circle cx="642.24" cy="179.51" r="7.49405" fill="#00B7B7"/>
<path d="M642.608 188.721L651.118 203.462H634.098L642.608 188.721Z" fill="#00B7B7"/>
<rect x="638.677" y="188.721" width="7.86156" height="1.96539" fill="#00B7B7"/>
<circle cx="773.642" cy="179.51" r="7.49405" fill="#00B7B7"/>
<path d="M774.01 188.721L782.521 203.462H765.5L774.01 188.721Z" fill="#00B7B7"/>
<rect x="770.079" y="188.721" width="7.86156" height="1.96539" fill="#00B7B7"/>
<circle cx="160.43" cy="179.51" r="7.49405" fill="#00B7B7"/>
<path d="M160.797 188.721L169.308 203.462H152.287L160.797 188.721Z" fill="#00B7B7"/>
<rect x="156.866" y="188.721" width="7.86156" height="1.96539" fill="#00B7B7"/>
<circle cx="335.634" cy="179.51" r="7.49405" fill="#00B7B7"/>
<path d="M336.002 188.721L344.512 203.462H327.491L336.002 188.721Z" fill="#00B7B7"/>
<rect x="332.07" y="188.721" width="7.86156" height="1.96539" fill="#00B7B7"/>
<circle cx="554.639" cy="179.51" r="7.49405" fill="#00B7B7"/>
<path d="M555.006 188.721L563.517 203.462H546.496L555.006 188.721Z" fill="#00B7B7"/>
<rect x="551.075" y="188.721" width="7.86156" height="1.96539" fill="#00B7B7"/>
<circle cx="510.837" cy="179.51" r="7.49405" fill="#00B7B7"/>
<path d="M511.205 188.721L519.715 203.462H502.694L511.205 188.721Z" fill="#00B7B7"/>
<rect x="507.273" y="188.721" width="7.86156" height="1.96539" fill="#00B7B7"/>
<circle cx="729.842" cy="179.51" r="7.49405" fill="#00B7B7"/>
<path d="M730.21 188.721L738.72 203.462H721.699L730.21 188.721Z" fill="#00B7B7"/>
<rect x="726.278" y="188.721" width="7.86156" height="1.96539" fill="#00B7B7"/>
<circle cx="7.49405" cy="277.779" r="7.49405" fill="#2ED1C7"/>
<path d="M0 294.36C0 290.29 3.29976 286.99 7.37021 286.99C11.4407 286.99 14.7404 290.29 14.7404 294.36V301.73H0V294.36Z" fill="#2ED1C7"/>
<circle cx="182.698" cy="277.779" r="7.49405" fill="#2ED1C7"/>
<path d="M175.204 294.36C175.204 290.29 178.504 286.99 182.574 286.99C186.645 286.99 189.945 290.29 189.945 294.36V301.73H175.204V294.36Z" fill="#2ED1C7"/>
<circle cx="357.901" cy="277.779" r="7.49405" fill="#2ED1C7"/>
<path d="M350.407 294.36C350.407 290.29 353.707 286.99 357.777 286.99C361.848 286.99 365.148 290.29 365.148 294.36V301.73H350.407V294.36Z" fill="#2ED1C7"/>
<circle cx="576.906" cy="277.779" r="7.49405" fill="#2ED1C7"/>
<path d="M569.412 294.36C569.412 290.29 572.712 286.99 576.782 286.99C580.853 286.99 584.153 290.29 584.153 294.36V301.73H569.412V294.36Z" fill="#2ED1C7"/>
<circle cx="95.0956" cy="277.779" r="7.49405" fill="#2ED1C7"/>
<path d="M87.6016 294.36C87.6016 290.29 90.9013 286.99 94.9718 286.99C99.0422 286.99 102.342 290.29 102.342 294.36V301.73H87.6016V294.36Z" fill="#2ED1C7"/>
<circle cx="270.3" cy="277.779" r="7.49405" fill="#2ED1C7"/>
<path d="M262.806 294.36C262.806 290.29 266.105 286.99 270.176 286.99C274.246 286.99 277.546 290.29 277.546 294.36V301.73H262.806V294.36Z" fill="#2ED1C7"/>
<circle cx="445.504" cy="277.779" r="7.49405" fill="#2ED1C7"/>
<path d="M438.01 294.36C438.01 290.29 441.31 286.99 445.38 286.99C449.45 286.99 452.75 290.29 452.75 294.36V301.73H438.01V294.36Z" fill="#2ED1C7"/>
<circle cx="664.509" cy="277.779" r="7.49405" fill="#2ED1C7"/>
<path d="M657.015 294.361C657.015 290.291 660.314 286.991 664.385 286.991C668.455 286.991 671.755 290.291 671.755 294.361V301.731H657.015V294.361Z" fill="#2ED1C7"/>
<circle cx="795.911" cy="277.779" r="7.49405" fill="#2ED1C7"/>
<path d="M788.417 294.36C788.417 290.29 791.717 286.99 795.787 286.99C799.858 286.99 803.157 290.29 803.157 294.36V301.73H788.417V294.36Z" fill="#2ED1C7"/>
<circle cx="51.2948" cy="277.779" r="7.49405" fill="#2ED1C7"/>
<path d="M43.8008 294.36C43.8008 290.29 47.1005 286.99 51.171 286.99C55.2415 286.99 58.5412 290.29 58.5412 294.36V301.73H43.8008V294.36Z" fill="#2ED1C7"/>
<circle cx="226.499" cy="277.779" r="7.49405" fill="#2ED1C7"/>
<path d="M219.005 294.36C219.005 290.29 222.305 286.99 226.375 286.99C230.446 286.99 233.745 290.29 233.745 294.36V301.73H219.005V294.36Z" fill="#2ED1C7"/>
<circle cx="401.703" cy="277.779" r="7.49405" fill="#2ED1C7"/>
<path d="M394.209 294.36C394.209 290.29 397.509 286.99 401.579 286.99C405.65 286.99 408.949 290.29 408.949 294.36V301.73H394.209V294.36Z" fill="#2ED1C7"/>
<circle cx="620.707" cy="277.779" r="7.49405" fill="#2ED1C7"/>
<path d="M613.213 294.36C613.213 290.29 616.513 286.99 620.583 286.99C624.654 286.99 627.953 290.29 627.953 294.36V301.73H613.213V294.36Z" fill="#2ED1C7"/>
<circle cx="752.11" cy="277.779" r="7.49405" fill="#2ED1C7"/>
<path d="M744.616 294.36C744.616 290.29 747.916 286.99 751.986 286.99C756.057 286.99 759.357 290.29 759.357 294.36V301.73H744.616V294.36Z" fill="#2ED1C7"/>
<circle cx="138.897" cy="277.779" r="7.49405" fill="#2ED1C7"/>
<path d="M131.403 294.36C131.403 290.29 134.703 286.99 138.774 286.99C142.844 286.99 146.144 290.29 146.144 294.36V301.73H131.403V294.36Z" fill="#2ED1C7"/>
<circle cx="314.1" cy="277.779" r="7.49405" fill="#2ED1C7"/>
<path d="M306.606 294.36C306.606 290.29 309.906 286.99 313.977 286.99C318.047 286.99 321.347 290.29 321.347 294.36V301.73H306.606V294.36Z" fill="#2ED1C7"/>
<circle cx="533.105" cy="277.779" r="7.49405" fill="#2ED1C7"/>
<path d="M525.611 294.36C525.611 290.29 528.911 286.99 532.982 286.99C537.052 286.99 540.352 290.29 540.352 294.36V301.73H525.611V294.36Z" fill="#2ED1C7"/>
<circle cx="489.305" cy="277.779" r="7.49405" fill="#2ED1C7"/>
<path d="M481.811 294.36C481.811 290.29 485.11 286.99 489.181 286.99C493.251 286.99 496.551 290.29 496.551 294.36V301.73H481.811V294.36Z" fill="#2ED1C7"/>
<circle cx="708.309" cy="277.779" r="7.49405" fill="#2ED1C7"/>
<path d="M700.815 294.36C700.815 290.29 704.115 286.99 708.186 286.99C712.256 286.99 715.556 290.29 715.556 294.36V301.73H700.815V294.36Z" fill="#2ED1C7"/>
<circle cx="839.712" cy="277.779" r="7.49405" fill="#2ED1C7"/>
<path d="M832.218 294.36C832.218 290.29 835.518 286.99 839.588 286.99C843.658 286.99 846.958 290.29 846.958 294.36V301.73H832.218V294.36Z" fill="#2ED1C7"/>
<circle cx="29.0263" cy="277.779" r="7.49405" fill="#00B7B7"/>
<path d="M29.3942 286.991L37.9046 301.731H20.8838L29.3942 286.991Z" fill="#00B7B7"/>
<rect x="25.4629" y="286.991" width="7.86156" height="1.96539" fill="#00B7B7"/>
<circle cx="204.23" cy="277.779" r="7.49405" fill="#00B7B7"/>
<path d="M204.598 286.991L213.109 301.731H196.088L204.598 286.991Z" fill="#00B7B7"/>
<rect x="200.667" y="286.991" width="7.86156" height="1.96539" fill="#00B7B7"/>
<circle cx="379.434" cy="277.779" r="7.49405" fill="#00B7B7"/>
<path d="M379.802 286.991L388.313 301.731H371.292L379.802 286.991Z" fill="#00B7B7"/>
<rect x="375.871" y="286.991" width="7.86156" height="1.96539" fill="#00B7B7"/>
<circle cx="598.439" cy="277.779" r="7.49405" fill="#00B7B7"/>
<path d="M598.807 286.991L607.318 301.731H590.297L598.807 286.991Z" fill="#00B7B7"/>
<rect x="594.876" y="286.991" width="7.86156" height="1.96539" fill="#00B7B7"/>
<circle cx="116.629" cy="277.779" r="7.49405" fill="#00B7B7"/>
<path d="M116.997 286.991L125.507 301.731H108.486L116.997 286.991Z" fill="#00B7B7"/>
<rect x="113.065" y="286.991" width="7.86156" height="1.96539" fill="#00B7B7"/>
<circle cx="291.832" cy="277.779" r="7.49405" fill="#00B7B7"/>
<path d="M292.2 286.991L300.71 301.731H283.689L292.2 286.991Z" fill="#00B7B7"/>
<rect x="288.269" y="286.991" width="7.86156" height="1.96539" fill="#00B7B7"/>
<circle cx="467.036" cy="277.779" r="7.49405" fill="#00B7B7"/>
<path d="M467.404 286.991L475.914 301.731H458.894L467.404 286.991Z" fill="#00B7B7"/>
<rect x="463.473" y="286.991" width="7.86156" height="1.96539" fill="#00B7B7"/>
<circle cx="686.041" cy="277.779" r="7.49405" fill="#00B7B7"/>
<path d="M686.409 286.991L694.919 301.731H677.898L686.409 286.991Z" fill="#00B7B7"/>
<rect x="682.478" y="286.991" width="7.86156" height="1.96539" fill="#00B7B7"/>
<circle cx="817.443" cy="277.779" r="7.49405" fill="#00B7B7"/>
<path d="M817.811 286.991L826.322 301.731H809.301L817.811 286.991Z" fill="#00B7B7"/>
<rect x="813.88" y="286.991" width="7.86156" height="1.96539" fill="#00B7B7"/>
<circle cx="861.122" cy="277.779" r="7.49405" fill="#00B7B7"/>
<path d="M861.49 286.991L870 301.731H852.979L861.49 286.991Z" fill="#00B7B7"/>
<rect x="857.559" y="286.991" width="7.86156" height="1.96539" fill="#00B7B7"/>
<circle cx="72.828" cy="277.779" r="7.49405" fill="#00B7B7"/>
<path d="M73.1959 286.991L81.7063 301.731H64.6855L73.1959 286.991Z" fill="#00B7B7"/>
<rect x="69.2646" y="286.991" width="7.86156" height="1.96539" fill="#00B7B7"/>
<circle cx="248.031" cy="277.779" r="7.49405" fill="#00B7B7"/>
<path d="M248.399 286.991L256.909 301.731H239.889L248.399 286.991Z" fill="#00B7B7"/>
<rect x="244.468" y="286.991" width="7.86156" height="1.96539" fill="#00B7B7"/>
<circle cx="423.235" cy="277.779" r="7.49405" fill="#00B7B7"/>
<path d="M423.603 286.991L432.114 301.731H415.093L423.603 286.991Z" fill="#00B7B7"/>
<rect x="419.672" y="286.991" width="7.86156" height="1.96539" fill="#00B7B7"/>
<circle cx="642.24" cy="277.779" r="7.49405" fill="#00B7B7"/>
<path d="M642.608 286.991L651.118 301.731H634.098L642.608 286.991Z" fill="#00B7B7"/>
<rect x="638.677" y="286.991" width="7.86156" height="1.96539" fill="#00B7B7"/>
<circle cx="773.642" cy="277.779" r="7.49405" fill="#00B7B7"/>
<path d="M774.01 286.991L782.521 301.731H765.5L774.01 286.991Z" fill="#00B7B7"/>
<rect x="770.079" y="286.991" width="7.86156" height="1.96539" fill="#00B7B7"/>
<circle cx="160.43" cy="277.779" r="7.49405" fill="#00B7B7"/>
<path d="M160.797 286.991L169.308 301.731H152.287L160.797 286.991Z" fill="#00B7B7"/>
<rect x="156.866" y="286.991" width="7.86156" height="1.96539" fill="#00B7B7"/>
<circle cx="335.634" cy="277.779" r="7.49405" fill="#00B7B7"/>
<path d="M336.002 286.991L344.512 301.731H327.491L336.002 286.991Z" fill="#00B7B7"/>
<rect x="332.07" y="286.991" width="7.86156" height="1.96539" fill="#00B7B7"/>
<circle cx="554.639" cy="277.779" r="7.49405" fill="#00B7B7"/>
<path d="M555.006 286.991L563.517 301.731H546.496L555.006 286.991Z" fill="#00B7B7"/>
<rect x="551.075" y="286.991" width="7.86156" height="1.96539" fill="#00B7B7"/>
<circle cx="510.837" cy="277.779" r="7.49405" fill="#00B7B7"/>
<path d="M511.205 286.991L519.715 301.731H502.694L511.205 286.991Z" fill="#00B7B7"/>
<rect x="507.273" y="286.991" width="7.86156" height="1.96539" fill="#00B7B7"/>
<circle cx="729.842" cy="277.779" r="7.49405" fill="#00B7B7"/>
<path d="M730.21 286.991L738.72 301.731H721.699L730.21 286.991Z" fill="#00B7B7"/>
<rect x="726.278" y="286.991" width="7.86156" height="1.96539" fill="#00B7B7"/>
<circle cx="7.49405" cy="376.049" r="7.49405" fill="#2ED1C7"/>
<path d="M0 392.63C0 388.559 3.29976 385.26 7.37021 385.26C11.4407 385.26 14.7404 388.559 14.7404 392.63V400H0V392.63Z" fill="#2ED1C7"/>
<circle cx="182.698" cy="376.049" r="7.49405" fill="#2ED1C7"/>
<path d="M175.204 392.63C175.204 388.559 178.504 385.26 182.574 385.26C186.645 385.26 189.945 388.559 189.945 392.63V400H175.204V392.63Z" fill="#2ED1C7"/>
<circle cx="357.901" cy="376.049" r="7.49405" fill="#2ED1C7"/>
<path d="M350.407 392.63C350.407 388.559 353.707 385.26 357.777 385.26C361.848 385.26 365.148 388.559 365.148 392.63V400H350.407V392.63Z" fill="#2ED1C7"/>
<circle cx="576.906" cy="376.049" r="7.49405" fill="#2ED1C7"/>
<path d="M569.412 392.63C569.412 388.559 572.712 385.26 576.782 385.26C580.853 385.26 584.153 388.559 584.153 392.63V400H569.412V392.63Z" fill="#2ED1C7"/>
<circle cx="95.0956" cy="376.049" r="7.49405" fill="#2ED1C7"/>
<path d="M87.6016 392.63C87.6016 388.559 90.9013 385.26 94.9718 385.26C99.0422 385.26 102.342 388.559 102.342 392.63V400H87.6016V392.63Z" fill="#2ED1C7"/>
<circle cx="270.3" cy="376.049" r="7.49405" fill="#2ED1C7"/>
<path d="M262.806 392.63C262.806 388.559 266.105 385.26 270.176 385.26C274.246 385.26 277.546 388.559 277.546 392.63V400H262.806V392.63Z" fill="#2ED1C7"/>
<circle cx="445.504" cy="376.049" r="7.49405" fill="#2ED1C7"/>
<path d="M438.01 392.63C438.01 388.559 441.31 385.26 445.38 385.26C449.45 385.26 452.75 388.559 452.75 392.63V400H438.01V392.63Z" fill="#2ED1C7"/>
<circle cx="664.509" cy="376.049" r="7.49405" fill="#2ED1C7"/>
<path d="M657.015 392.631C657.015 388.56 660.314 385.26 664.385 385.26C668.455 385.26 671.755 388.56 671.755 392.631V400.001H657.015V392.631Z" fill="#2ED1C7"/>
<circle cx="795.911" cy="376.049" r="7.49405" fill="#2ED1C7"/>
<path d="M788.417 392.63C788.417 388.559 791.717 385.26 795.787 385.26C799.858 385.26 803.157 388.559 803.157 392.63V400H788.417V392.63Z" fill="#2ED1C7"/>
<circle cx="51.2948" cy="376.049" r="7.49405" fill="#2ED1C7"/>
<path d="M43.8008 392.63C43.8008 388.559 47.1005 385.26 51.171 385.26C55.2415 385.26 58.5412 388.559 58.5412 392.63V400H43.8008V392.63Z" fill="#2ED1C7"/>
<circle cx="226.499" cy="376.049" r="7.49405" fill="#2ED1C7"/>
<path d="M219.005 392.63C219.005 388.559 222.305 385.26 226.375 385.26C230.446 385.26 233.745 388.559 233.745 392.63V400H219.005V392.63Z" fill="#2ED1C7"/>
<circle cx="401.703" cy="376.049" r="7.49405" fill="#2ED1C7"/>
<path d="M394.209 392.63C394.209 388.559 397.509 385.26 401.579 385.26C405.65 385.26 408.949 388.559 408.949 392.63V400H394.209V392.63Z" fill="#2ED1C7"/>
<circle cx="620.707" cy="376.049" r="7.49405" fill="#2ED1C7"/>
<path d="M613.213 392.63C613.213 388.559 616.513 385.26 620.583 385.26C624.654 385.26 627.953 388.559 627.953 392.63V400H613.213V392.63Z" fill="#2ED1C7"/>
<circle cx="752.11" cy="376.049" r="7.49405" fill="#2ED1C7"/>
<path d="M744.616 392.63C744.616 388.559 747.916 385.26 751.986 385.26C756.057 385.26 759.357 388.559 759.357 392.63V400H744.616V392.63Z" fill="#2ED1C7"/>
<circle cx="138.897" cy="376.049" r="7.49405" fill="#2ED1C7"/>
<path d="M131.403 392.63C131.403 388.559 134.703 385.26 138.774 385.26C142.844 385.26 146.144 388.559 146.144 392.63V400H131.403V392.63Z" fill="#2ED1C7"/>
<circle cx="314.1" cy="376.049" r="7.49405" fill="#2ED1C7"/>
<path d="M306.606 392.63C306.606 388.559 309.906 385.26 313.977 385.26C318.047 385.26 321.347 388.559 321.347 392.63V400H306.606V392.63Z" fill="#2ED1C7"/>
<circle cx="533.105" cy="376.049" r="7.49405" fill="#2ED1C7"/>
<path d="M525.611 392.63C525.611 388.559 528.911 385.26 532.982 385.26C537.052 385.26 540.352 388.559 540.352 392.63V400H525.611V392.63Z" fill="#2ED1C7"/>
<circle cx="489.305" cy="376.049" r="7.49405" fill="#2ED1C7"/>
<path d="M481.811 392.63C481.811 388.559 485.11 385.26 489.181 385.26C493.251 385.26 496.551 388.559 496.551 392.63V400H481.811V392.63Z" fill="#2ED1C7"/>
<circle cx="708.309" cy="376.049" r="7.49405" fill="#2ED1C7"/>
<path d="M700.815 392.63C700.815 388.559 704.115 385.26 708.186 385.26C712.256 385.26 715.556 388.559 715.556 392.63V400H700.815V392.63Z" fill="#2ED1C7"/>
<circle cx="839.712" cy="376.049" r="7.49405" fill="#2ED1C7"/>
<path d="M832.218 392.63C832.218 388.559 835.518 385.26 839.588 385.26C843.658 385.26 846.958 388.559 846.958 392.63V400H832.218V392.63Z" fill="#2ED1C7"/>
<circle cx="29.0263" cy="376.049" r="7.49405" fill="#00B7B7"/>
<path d="M29.3942 385.26L37.9046 400.001H20.8838L29.3942 385.26Z" fill="#00B7B7"/>
<rect x="25.4629" y="385.26" width="7.86156" height="1.96539" fill="#00B7B7"/>
<circle cx="204.23" cy="376.049" r="7.49405" fill="#00B7B7"/>
<path d="M204.598 385.26L213.109 400.001H196.088L204.598 385.26Z" fill="#00B7B7"/>
<rect x="200.667" y="385.26" width="7.86156" height="1.96539" fill="#00B7B7"/>
<circle cx="379.434" cy="376.049" r="7.49405" fill="#00B7B7"/>
<path d="M379.802 385.26L388.313 400.001H371.292L379.802 385.26Z" fill="#00B7B7"/>
<rect x="375.871" y="385.26" width="7.86156" height="1.96539" fill="#00B7B7"/>
<circle cx="598.439" cy="376.049" r="7.49405" fill="#00B7B7"/>
<path d="M598.807 385.26L607.318 400.001H590.297L598.807 385.26Z" fill="#00B7B7"/>
<rect x="594.876" y="385.26" width="7.86156" height="1.96539" fill="#00B7B7"/>
<circle cx="116.629" cy="376.049" r="7.49405" fill="#00B7B7"/>
<path d="M116.997 385.26L125.507 400.001H108.486L116.997 385.26Z" fill="#00B7B7"/>
<rect x="113.065" y="385.26" width="7.86156" height="1.96539" fill="#00B7B7"/>
<circle cx="291.832" cy="376.049" r="7.49405" fill="#00B7B7"/>
<path d="M292.2 385.26L300.71 400.001H283.689L292.2 385.26Z" fill="#00B7B7"/>
<rect x="288.269" y="385.26" width="7.86156" height="1.96539" fill="#00B7B7"/>
<circle cx="467.036" cy="376.049" r="7.49405" fill="#00B7B7"/>
<path d="M467.404 385.26L475.914 400.001H458.894L467.404 385.26Z" fill="#00B7B7"/>
<rect x="463.473" y="385.26" width="7.86156" height="1.96539" fill="#00B7B7"/>
<circle cx="686.041" cy="376.049" r="7.49405" fill="#00B7B7"/>
<path d="M686.409 385.26L694.919 400.001H677.898L686.409 385.26Z" fill="#00B7B7"/>
<rect x="682.478" y="385.26" width="7.86156" height="1.96539" fill="#00B7B7"/>
<circle cx="817.443" cy="376.049" r="7.49405" fill="#00B7B7"/>
<path d="M817.811 385.26L826.322 400.001H809.301L817.811 385.26Z" fill="#00B7B7"/>
<rect x="813.88" y="385.26" width="7.86156" height="1.96539" fill="#00B7B7"/>
<circle cx="861.122" cy="376.049" r="7.49405" fill="#00B7B7"/>
<path d="M861.49 385.26L870 400.001H852.979L861.49 385.26Z" fill="#00B7B7"/>
<rect x="857.559" y="385.26" width="7.86156" height="1.96539" fill="#00B7B7"/>
<circle cx="72.828" cy="376.049" r="7.49405" fill="#00B7B7"/>
<path d="M73.1959 385.26L81.7063 400.001H64.6855L73.1959 385.26Z" fill="#00B7B7"/>
<rect x="69.2646" y="385.26" width="7.86156" height="1.96539" fill="#00B7B7"/>
<circle cx="248.031" cy="376.049" r="7.49405" fill="#00B7B7"/>
<path d="M248.399 385.26L256.909 400.001H239.889L248.399 385.26Z" fill="#00B7B7"/>
<rect x="244.468" y="385.26" width="7.86156" height="1.96539" fill="#00B7B7"/>
<circle cx="423.235" cy="376.049" r="7.49405" fill="#00B7B7"/>
<path d="M423.603 385.26L432.114 400.001H415.093L423.603 385.26Z" fill="#00B7B7"/>
<rect x="419.672" y="385.26" width="7.86156" height="1.96539" fill="#00B7B7"/>
<circle cx="642.24" cy="376.049" r="7.49405" fill="#00B7B7"/>
<path d="M642.608 385.26L651.118 400.001H634.098L642.608 385.26Z" fill="#00B7B7"/>
<rect x="638.677" y="385.26" width="7.86156" height="1.96539" fill="#00B7B7"/>
<circle cx="773.642" cy="376.049" r="7.49405" fill="#00B7B7"/>
<path d="M774.01 385.26L782.521 400.001H765.5L774.01 385.26Z" fill="#00B7B7"/>
<rect x="770.079" y="385.26" width="7.86156" height="1.96539" fill="#00B7B7"/>
<circle cx="160.43" cy="376.049" r="7.49405" fill="#00B7B7"/>
<path d="M160.797 385.26L169.308 400.001H152.287L160.797 385.26Z" fill="#00B7B7"/>
<rect x="156.866" y="385.26" width="7.86156" height="1.96539" fill="#00B7B7"/>
<circle cx="335.634" cy="376.049" r="7.49405" fill="#00B7B7"/>
<path d="M336.002 385.26L344.512 400.001H327.491L336.002 385.26Z" fill="#00B7B7"/>
<rect x="332.07" y="385.26" width="7.86156" height="1.96539" fill="#00B7B7"/>
<circle cx="554.639" cy="376.049" r="7.49405" fill="#00B7B7"/>
<path d="M555.006 385.26L563.517 400.001H546.496L555.006 385.26Z" fill="#00B7B7"/>
<rect x="551.075" y="385.26" width="7.86156" height="1.96539" fill="#00B7B7"/>
<circle cx="510.837" cy="376.049" r="7.49405" fill="#00B7B7"/>
<path d="M511.205 385.26L519.715 400.001H502.694L511.205 385.26Z" fill="#00B7B7"/>
<rect x="507.273" y="385.26" width="7.86156" height="1.96539" fill="#00B7B7"/>
<circle cx="729.842" cy="376.049" r="7.49405" fill="#00B7B7"/>
<path d="M730.21 385.26L738.72 400.001H721.699L730.21 385.26Z" fill="#00B7B7"/>
<rect x="726.278" y="385.26" width="7.86156" height="1.96539" fill="#00B7B7"/>
<circle cx="161.813" cy="228.644" r="7.49405" fill="#2ED1C7"/>
<path d="M154.319 245.226C154.319 241.155 157.619 237.855 161.69 237.855C165.76 237.855 169.06 241.155 169.06 245.226V252.596H154.319V245.226Z" fill="#2ED1C7"/>
<circle cx="337.017" cy="228.644" r="7.49405" fill="#2ED1C7"/>
<path d="M329.523 245.226C329.523 241.155 332.823 237.855 336.894 237.855C340.964 237.855 344.264 241.155 344.264 245.226V252.596H329.523V245.226Z" fill="#2ED1C7"/>
<circle cx="556.022" cy="228.644" r="7.49405" fill="#2ED1C7"/>
<path d="M548.528 245.226C548.528 241.156 551.828 237.856 555.899 237.856C559.969 237.856 563.269 241.156 563.269 245.226V252.597H548.528V245.226Z" fill="#2ED1C7"/>
<circle cx="74.2118" cy="228.644" r="7.49405" fill="#2ED1C7"/>
<path d="M66.7178 245.226C66.7178 241.155 70.0175 237.855 74.088 237.855C78.1584 237.855 81.4582 241.155 81.4582 245.226V252.596H66.7178V245.226Z" fill="#2ED1C7"/>
<circle cx="249.417" cy="228.644" r="7.49405" fill="#2ED1C7"/>
<path d="M241.922 245.226C241.922 241.155 245.222 237.855 249.292 237.855C253.363 237.855 256.662 241.155 256.662 245.226V252.596H241.922V245.226Z" fill="#2ED1C7"/>
<circle cx="424.619" cy="228.644" r="7.49405" fill="#2ED1C7"/>
<path d="M417.125 245.226C417.125 241.155 420.425 237.855 424.495 237.855C428.566 237.855 431.865 241.155 431.865 245.226V252.596H417.125V245.226Z" fill="#2ED1C7"/>
<circle cx="643.624" cy="228.644" r="7.49405" fill="#2ED1C7"/>
<path d="M636.13 245.226C636.13 241.155 639.43 237.855 643.5 237.855C647.571 237.855 650.87 241.155 650.87 245.226V252.596H636.13V245.226Z" fill="#2ED1C7"/>
<circle cx="775.027" cy="228.644" r="7.49405" fill="#2ED1C7"/>
<path d="M767.533 245.226C767.533 241.155 770.833 237.855 774.903 237.855C778.974 237.855 782.274 241.155 782.274 245.226V252.596H767.533V245.226Z" fill="#2ED1C7"/>
<circle cx="30.412" cy="228.644" r="7.49405" fill="#2ED1C7"/>
<path d="M22.917 245.226C22.917 241.155 26.2168 237.855 30.2872 237.855C34.3577 237.855 37.6574 241.155 37.6574 245.226V252.596H22.917V245.226Z" fill="#2ED1C7"/>
<circle cx="205.614" cy="228.644" r="7.49405" fill="#2ED1C7"/>
<path d="M198.12 245.226C198.12 241.155 201.42 237.855 205.49 237.855C209.561 237.855 212.861 241.155 212.861 245.226V252.596H198.12V245.226Z" fill="#2ED1C7"/>
<circle cx="380.818" cy="228.644" r="7.49405" fill="#2ED1C7"/>
<path d="M373.324 245.226C373.324 241.155 376.624 237.855 380.694 237.855C384.765 237.855 388.065 241.155 388.065 245.226V252.596H373.324V245.226Z" fill="#2ED1C7"/>
<circle cx="599.823" cy="228.644" r="7.49405" fill="#2ED1C7"/>
<path d="M592.329 245.226C592.329 241.155 595.629 237.855 599.699 237.855C603.77 237.855 607.07 241.155 607.07 245.226V252.596H592.329V245.226Z" fill="#2ED1C7"/>
<circle cx="731.226" cy="228.644" r="7.49405" fill="#2ED1C7"/>
<path d="M723.732 245.226C723.732 241.156 727.032 237.856 731.103 237.856C735.173 237.856 738.473 241.156 738.473 245.226V252.597H723.732V245.226Z" fill="#2ED1C7"/>
<circle cx="118.013" cy="228.644" r="7.49405" fill="#2ED1C7"/>
<path d="M110.519 245.226C110.519 241.155 113.818 237.855 117.889 237.855C121.959 237.855 125.259 241.155 125.259 245.226V252.596H110.519V245.226Z" fill="#2ED1C7"/>
<circle cx="293.217" cy="228.644" r="7.49405" fill="#2ED1C7"/>
<path d="M285.723 245.226C285.723 241.156 289.022 237.856 293.093 237.856C297.163 237.856 300.463 241.156 300.463 245.226V252.597H285.723V245.226Z" fill="#2ED1C7"/>
<circle cx="512.222" cy="228.644" r="7.49405" fill="#2ED1C7"/>
<path d="M504.728 245.226C504.728 241.155 508.027 237.855 512.098 237.855C516.168 237.855 519.468 241.155 519.468 245.226V252.596H504.728V245.226Z" fill="#2ED1C7"/>
<circle cx="468.42" cy="228.644" r="7.49405" fill="#2ED1C7"/>
<path d="M460.926 245.226C460.926 241.155 464.226 237.855 468.296 237.855C472.366 237.855 475.666 241.155 475.666 245.226V252.596H460.926V245.226Z" fill="#2ED1C7"/>
<circle cx="687.425" cy="228.644" r="7.49405" fill="#2ED1C7"/>
<path d="M679.931 245.226C679.931 241.155 683.23 237.855 687.301 237.855C691.371 237.855 694.671 241.155 694.671 245.226V252.596H679.931V245.226Z" fill="#2ED1C7"/>
<circle cx="818.829" cy="228.644" r="7.49405" fill="#2ED1C7"/>
<path d="M811.334 245.226C811.334 241.155 814.634 237.855 818.704 237.855C822.775 237.855 826.074 241.155 826.074 245.226V252.596H811.334V245.226Z" fill="#2ED1C7"/>
<circle cx="862.506" cy="228.644" r="7.49405" fill="#2ED1C7"/>
<path d="M855.012 245.226C855.012 241.155 858.311 237.855 862.382 237.855C866.452 237.855 869.752 241.155 869.752 245.226V252.596H855.012V245.226Z" fill="#2ED1C7"/>
<circle cx="8.14249" cy="228.644" r="7.49405" fill="#00B7B7"/>
<path d="M8.51039 237.856L17.0208 252.597H0L8.51039 237.856Z" fill="#00B7B7"/>
<rect x="4.5791" y="237.856" width="7.86156" height="1.96539" fill="#00B7B7"/>
<circle cx="183.347" cy="228.644" r="7.49405" fill="#00B7B7"/>
<path d="M183.714 237.856L192.225 252.597H175.204L183.714 237.856Z" fill="#00B7B7"/>
<rect x="179.783" y="237.856" width="7.86156" height="1.96539" fill="#00B7B7"/>
<circle cx="358.55" cy="228.644" r="7.49405" fill="#00B7B7"/>
<path d="M358.918 237.856L367.428 252.597H350.407L358.918 237.856Z" fill="#00B7B7"/>
<rect x="354.986" y="237.856" width="7.86156" height="1.96539" fill="#00B7B7"/>
<circle cx="577.555" cy="228.644" r="7.49405" fill="#00B7B7"/>
<path d="M577.922 237.856L586.433 252.597H569.412L577.922 237.856Z" fill="#00B7B7"/>
<rect x="573.991" y="237.856" width="7.86156" height="1.96539" fill="#00B7B7"/>
<circle cx="95.744" cy="228.644" r="7.49405" fill="#00B7B7"/>
<path d="M96.112 237.856L104.622 252.597H87.6016L96.112 237.856Z" fill="#00B7B7"/>
<rect x="92.1807" y="237.856" width="7.86156" height="1.96539" fill="#00B7B7"/>
<circle cx="270.948" cy="228.644" r="7.49405" fill="#00B7B7"/>
<path d="M271.316 237.856L279.826 252.597H262.806L271.316 237.856Z" fill="#00B7B7"/>
<rect x="267.385" y="237.856" width="7.86156" height="1.96539" fill="#00B7B7"/>
<circle cx="446.152" cy="228.644" r="7.49405" fill="#00B7B7"/>
<path d="M446.52 237.856L455.031 252.597H438.01L446.52 237.856Z" fill="#00B7B7"/>
<rect x="442.589" y="237.856" width="7.86156" height="1.96539" fill="#00B7B7"/>
<circle cx="665.157" cy="228.644" r="7.49405" fill="#00B7B7"/>
<path d="M665.525 237.856L674.035 252.597H657.015L665.525 237.856Z" fill="#00B7B7"/>
<rect x="661.594" y="237.856" width="7.86156" height="1.96539" fill="#00B7B7"/>
<circle cx="796.559" cy="228.644" r="7.49405" fill="#00B7B7"/>
<path d="M796.927 237.856L805.438 252.597H788.417L796.927 237.856Z" fill="#00B7B7"/>
<rect x="792.996" y="237.856" width="7.86156" height="1.96539" fill="#00B7B7"/>
<circle cx="840.485" cy="228.644" r="7.49405" fill="#00B7B7"/>
<path d="M840.853 237.856L849.364 252.597H832.343L840.853 237.856Z" fill="#00B7B7"/>
<rect x="836.922" y="237.856" width="7.86156" height="1.96539" fill="#00B7B7"/>
<circle cx="51.9433" cy="228.644" r="7.49405" fill="#00B7B7"/>
<path d="M52.3112 237.856L60.8216 252.597H43.8008L52.3112 237.856Z" fill="#00B7B7"/>
<rect x="48.3799" y="237.856" width="7.86156" height="1.96539" fill="#00B7B7"/>
<circle cx="227.147" cy="228.644" r="7.49405" fill="#00B7B7"/>
<path d="M227.515 237.856L236.026 252.597H219.005L227.515 237.856Z" fill="#00B7B7"/>
<rect x="223.584" y="237.856" width="7.86156" height="1.96539" fill="#00B7B7"/>
<circle cx="402.351" cy="228.644" r="7.49405" fill="#00B7B7"/>
<path d="M402.719 237.856L411.23 252.597H394.209L402.719 237.856Z" fill="#00B7B7"/>
<rect x="398.788" y="237.856" width="7.86156" height="1.96539" fill="#00B7B7"/>
<circle cx="621.355" cy="228.644" r="7.49405" fill="#00B7B7"/>
<path d="M621.723 237.856L630.234 252.597H613.213L621.723 237.856Z" fill="#00B7B7"/>
<rect x="617.792" y="237.856" width="7.86156" height="1.96539" fill="#00B7B7"/>
<circle cx="752.759" cy="228.644" r="7.49405" fill="#00B7B7"/>
<path d="M753.127 237.856L761.637 252.597H744.616L753.127 237.856Z" fill="#00B7B7"/>
<rect x="749.195" y="237.856" width="7.86156" height="1.96539" fill="#00B7B7"/>
<circle cx="139.546" cy="228.644" r="7.49405" fill="#00B7B7"/>
<path d="M139.914 237.856L148.424 252.597H131.403L139.914 237.856Z" fill="#00B7B7"/>
<rect x="135.982" y="237.856" width="7.86156" height="1.96539" fill="#00B7B7"/>
<circle cx="314.749" cy="228.644" r="7.49405" fill="#00B7B7"/>
<path d="M315.117 237.856L323.627 252.597H306.606L315.117 237.856Z" fill="#00B7B7"/>
<rect x="311.186" y="237.856" width="7.86156" height="1.96539" fill="#00B7B7"/>
<circle cx="533.754" cy="228.644" r="7.49405" fill="#00B7B7"/>
<path d="M534.122 237.856L542.632 252.597H525.611L534.122 237.856Z" fill="#00B7B7"/>
<rect x="530.19" y="237.856" width="7.86156" height="1.96539" fill="#00B7B7"/>
<circle cx="489.953" cy="228.644" r="7.49405" fill="#00B7B7"/>
<path d="M490.321 237.856L498.831 252.597H481.811L490.321 237.856Z" fill="#00B7B7"/>
<rect x="486.39" y="237.856" width="7.86156" height="1.96539" fill="#00B7B7"/>
<circle cx="708.958" cy="228.644" r="7.49405" fill="#00B7B7"/>
<path d="M709.326 237.856L717.836 252.597H700.815L709.326 237.856Z" fill="#00B7B7"/>
<rect x="705.395" y="237.856" width="7.86156" height="1.96539" fill="#00B7B7"/>
<circle cx="161.813" cy="326.912" r="7.49405" fill="#2ED1C7"/>
<path d="M154.319 343.493C154.319 339.423 157.619 336.123 161.69 336.123C165.76 336.123 169.06 339.423 169.06 343.493V350.863H154.319V343.493Z" fill="#2ED1C7"/>
<circle cx="337.017" cy="326.912" r="7.49405" fill="#2ED1C7"/>
<path d="M329.523 343.493C329.523 339.423 332.823 336.123 336.894 336.123C340.964 336.123 344.264 339.423 344.264 343.493V350.863H329.523V343.493Z" fill="#2ED1C7"/>
<circle cx="556.022" cy="326.912" r="7.49405" fill="#2ED1C7"/>
<path d="M548.528 343.494C548.528 339.424 551.828 336.124 555.899 336.124C559.969 336.124 563.269 339.424 563.269 343.494V350.864H548.528V343.494Z" fill="#2ED1C7"/>
<circle cx="74.2118" cy="326.912" r="7.49405" fill="#2ED1C7"/>
<path d="M66.7178 343.493C66.7178 339.423 70.0175 336.123 74.088 336.123C78.1584 336.123 81.4582 339.423 81.4582 343.493V350.863H66.7178V343.493Z" fill="#2ED1C7"/>
<circle cx="249.417" cy="326.912" r="7.49405" fill="#2ED1C7"/>
<path d="M241.922 343.493C241.922 339.423 245.222 336.123 249.292 336.123C253.363 336.123 256.662 339.423 256.662 343.493V350.863H241.922V343.493Z" fill="#2ED1C7"/>
<circle cx="424.619" cy="326.912" r="7.49405" fill="#2ED1C7"/>
<path d="M417.125 343.493C417.125 339.423 420.425 336.123 424.495 336.123C428.566 336.123 431.865 339.423 431.865 343.493V350.863H417.125V343.493Z" fill="#2ED1C7"/>
<circle cx="643.624" cy="326.912" r="7.49405" fill="#2ED1C7"/>
<path d="M636.13 343.493C636.13 339.423 639.43 336.123 643.5 336.123C647.571 336.123 650.87 339.423 650.87 343.493V350.863H636.13V343.493Z" fill="#2ED1C7"/>
<circle cx="775.027" cy="326.912" r="7.49405" fill="#2ED1C7"/>
<path d="M767.533 343.493C767.533 339.423 770.833 336.123 774.903 336.123C778.974 336.123 782.274 339.423 782.274 343.493V350.863H767.533V343.493Z" fill="#2ED1C7"/>
<circle cx="30.412" cy="326.912" r="7.49405" fill="#2ED1C7"/>
<path d="M22.917 343.493C22.917 339.423 26.2168 336.123 30.2872 336.123C34.3577 336.123 37.6574 339.423 37.6574 343.493V350.863H22.917V343.493Z" fill="#2ED1C7"/>
<circle cx="205.614" cy="326.912" r="7.49405" fill="#2ED1C7"/>
<path d="M198.12 343.493C198.12 339.423 201.42 336.123 205.49 336.123C209.561 336.123 212.861 339.423 212.861 343.493V350.863H198.12V343.493Z" fill="#2ED1C7"/>
<circle cx="380.818" cy="326.912" r="7.49405" fill="#2ED1C7"/>
<path d="M373.324 343.493C373.324 339.423 376.624 336.123 380.694 336.123C384.765 336.123 388.065 339.423 388.065 343.493V350.863H373.324V343.493Z" fill="#2ED1C7"/>
<circle cx="599.823" cy="326.912" r="7.49405" fill="#2ED1C7"/>
<path d="M592.329 343.493C592.329 339.423 595.629 336.123 599.699 336.123C603.77 336.123 607.07 339.423 607.07 343.493V350.863H592.329V343.493Z" fill="#2ED1C7"/>
<circle cx="731.226" cy="326.912" r="7.49405" fill="#2ED1C7"/>
<path d="M723.732 343.494C723.732 339.424 727.032 336.124 731.103 336.124C735.173 336.124 738.473 339.424 738.473 343.494V350.864H723.732V343.494Z" fill="#2ED1C7"/>
<circle cx="118.013" cy="326.912" r="7.49405" fill="#2ED1C7"/>
<path d="M110.519 343.493C110.519 339.423 113.818 336.123 117.889 336.123C121.959 336.123 125.259 339.423 125.259 343.493V350.863H110.519V343.493Z" fill="#2ED1C7"/>
<circle cx="293.217" cy="326.912" r="7.49405" fill="#2ED1C7"/>
<path d="M285.723 343.494C285.723 339.424 289.022 336.124 293.093 336.124C297.163 336.124 300.463 339.424 300.463 343.494V350.864H285.723V343.494Z" fill="#2ED1C7"/>
<circle cx="512.222" cy="326.912" r="7.49405" fill="#2ED1C7"/>
<path d="M504.728 343.493C504.728 339.423 508.027 336.123 512.098 336.123C516.168 336.123 519.468 339.423 519.468 343.493V350.863H504.728V343.493Z" fill="#2ED1C7"/>
<circle cx="468.42" cy="326.912" r="7.49405" fill="#2ED1C7"/>
<path d="M460.926 343.493C460.926 339.423 464.226 336.123 468.296 336.123C472.366 336.123 475.666 339.423 475.666 343.493V350.863H460.926V343.493Z" fill="#2ED1C7"/>
<circle cx="687.425" cy="326.912" r="7.49405" fill="#2ED1C7"/>
<path d="M679.931 343.493C679.931 339.423 683.23 336.123 687.301 336.123C691.371 336.123 694.671 339.423 694.671 343.493V350.863H679.931V343.493Z" fill="#2ED1C7"/>
<circle cx="818.829" cy="326.912" r="7.49405" fill="#2ED1C7"/>
<path d="M811.334 343.493C811.334 339.423 814.634 336.123 818.704 336.123C822.775 336.123 826.074 339.423 826.074 343.493V350.863H811.334V343.493Z" fill="#2ED1C7"/>
<circle cx="862.506" cy="326.912" r="7.49405" fill="#2ED1C7"/>
<path d="M855.012 343.493C855.012 339.423 858.311 336.123 862.382 336.123C866.452 336.123 869.752 339.423 869.752 343.493V350.863H855.012V343.493Z" fill="#2ED1C7"/>
<circle cx="8.14249" cy="326.912" r="7.49405" fill="#00B7B7"/>
<path d="M8.51039 336.124L17.0208 350.864H0L8.51039 336.124Z" fill="#00B7B7"/>
<rect x="4.5791" y="336.124" width="7.86156" height="1.96539" fill="#00B7B7"/>
<circle cx="183.347" cy="326.912" r="7.49405" fill="#00B7B7"/>
<path d="M183.714 336.124L192.225 350.864H175.204L183.714 336.124Z" fill="#00B7B7"/>
<rect x="179.783" y="336.124" width="7.86156" height="1.96539" fill="#00B7B7"/>
<circle cx="358.55" cy="326.912" r="7.49405" fill="#00B7B7"/>
<path d="M358.918 336.124L367.428 350.864H350.407L358.918 336.124Z" fill="#00B7B7"/>
<rect x="354.986" y="336.124" width="7.86156" height="1.96539" fill="#00B7B7"/>
<circle cx="577.555" cy="326.912" r="7.49405" fill="#00B7B7"/>
<path d="M577.922 336.124L586.433 350.864H569.412L577.922 336.124Z" fill="#00B7B7"/>
<rect x="573.991" y="336.124" width="7.86156" height="1.96539" fill="#00B7B7"/>
<circle cx="95.744" cy="326.912" r="7.49405" fill="#00B7B7"/>
<path d="M96.112 336.124L104.622 350.864H87.6016L96.112 336.124Z" fill="#00B7B7"/>
<rect x="92.1807" y="336.124" width="7.86156" height="1.96539" fill="#00B7B7"/>
<circle cx="270.948" cy="326.912" r="7.49405" fill="#00B7B7"/>
<path d="M271.316 336.124L279.826 350.864H262.806L271.316 336.124Z" fill="#00B7B7"/>
<rect x="267.385" y="336.124" width="7.86156" height="1.96539" fill="#00B7B7"/>
<circle cx="446.152" cy="326.912" r="7.49405" fill="#00B7B7"/>
<path d="M446.52 336.124L455.031 350.864H438.01L446.52 336.124Z" fill="#00B7B7"/>
<rect x="442.589" y="336.124" width="7.86156" height="1.96539" fill="#00B7B7"/>
<circle cx="665.157" cy="326.912" r="7.49405" fill="#00B7B7"/>
<path d="M665.525 336.124L674.035 350.864H657.015L665.525 336.124Z" fill="#00B7B7"/>
<rect x="661.594" y="336.124" width="7.86156" height="1.96539" fill="#00B7B7"/>
<circle cx="796.559" cy="326.912" r="7.49405" fill="#00B7B7"/>
<path d="M796.927 336.124L805.438 350.864H788.417L796.927 336.124Z" fill="#00B7B7"/>
<rect x="792.996" y="336.124" width="7.86156" height="1.96539" fill="#00B7B7"/>
<circle cx="840.485" cy="326.912" r="7.49405" fill="#00B7B7"/>
<path d="M840.853 336.124L849.364 350.864H832.343L840.853 336.124Z" fill="#00B7B7"/>
<rect x="836.922" y="336.124" width="7.86156" height="1.96539" fill="#00B7B7"/>
<circle cx="51.9433" cy="326.912" r="7.49405" fill="#00B7B7"/>
<path d="M52.3112 336.124L60.8216 350.864H43.8008L52.3112 336.124Z" fill="#00B7B7"/>
<rect x="48.3799" y="336.124" width="7.86156" height="1.96539" fill="#00B7B7"/>
<circle cx="227.147" cy="326.912" r="7.49405" fill="#00B7B7"/>
<path d="M227.515 336.124L236.026 350.864H219.005L227.515 336.124Z" fill="#00B7B7"/>
<rect x="223.584" y="336.124" width="7.86156" height="1.96539" fill="#00B7B7"/>
<circle cx="402.351" cy="326.912" r="7.49405" fill="#00B7B7"/>
<path d="M402.719 336.124L411.23 350.864H394.209L402.719 336.124Z" fill="#00B7B7"/>
<rect x="398.788" y="336.124" width="7.86156" height="1.96539" fill="#00B7B7"/>
<circle cx="621.355" cy="326.912" r="7.49405" fill="#00B7B7"/>
<path d="M621.723 336.124L630.234 350.864H613.213L621.723 336.124Z" fill="#00B7B7"/>
<rect x="617.792" y="336.124" width="7.86156" height="1.96539" fill="#00B7B7"/>
<circle cx="752.759" cy="326.912" r="7.49405" fill="#00B7B7"/>
<path d="M753.127 336.124L761.637 350.864H744.616L753.127 336.124Z" fill="#00B7B7"/>
<rect x="749.195" y="336.124" width="7.86156" height="1.96539" fill="#00B7B7"/>
<circle cx="139.546" cy="326.912" r="7.49405" fill="#00B7B7"/>
<path d="M139.914 336.124L148.424 350.864H131.403L139.914 336.124Z" fill="#00B7B7"/>
<rect x="135.982" y="336.124" width="7.86156" height="1.96539" fill="#00B7B7"/>
<circle cx="314.749" cy="326.912" r="7.49405" fill="#00B7B7"/>
<path d="M315.117 336.124L323.627 350.864H306.606L315.117 336.124Z" fill="#00B7B7"/>
<rect x="311.186" y="336.124" width="7.86156" height="1.96539" fill="#00B7B7"/>
<circle cx="533.754" cy="326.912" r="7.49405" fill="#00B7B7"/>
<path d="M534.122 336.124L542.632 350.864H525.611L534.122 336.124Z" fill="#00B7B7"/>
<rect x="530.19" y="336.124" width="7.86156" height="1.96539" fill="#00B7B7"/>
<circle cx="489.953" cy="326.912" r="7.49405" fill="#00B7B7"/>
<path d="M490.321 336.124L498.831 350.864H481.811L490.321 336.124Z" fill="#00B7B7"/>
<rect x="486.39" y="336.124" width="7.86156" height="1.96539" fill="#00B7B7"/>
<circle cx="708.958" cy="326.912" r="7.49405" fill="#00B7B7"/>
<path d="M709.326 336.124L717.836 350.864H700.815L709.326 336.124Z" fill="#00B7B7"/>
<rect x="705.395" y="336.124" width="7.86156" height="1.96539" fill="#00B7B7"/>
<rect y="421" width="870" height="12" fill="#00234D"/>
<rect x="665" y="36" width="201" height="88" rx="44" fill="white"/>
<path d="M718.214 100V94.492C725.054 88.912 729.788 84.574 732.416 81.478C735.044 78.346 736.358 75.52 736.358 73C736.358 71.452 735.944 70.174 735.116 69.166C734.288 68.122 733.046 67.6 731.39 67.6C729.266 67.6 727.646 68.41 726.53 70.03C725.45 71.65 724.874 73.81 724.802 76.51L717.566 74.458C717.962 70.354 719.348 67.078 721.724 64.63C724.1 62.182 727.412 60.958 731.66 60.958C735.728 60.958 738.896 62.074 741.164 64.306C743.432 66.502 744.566 69.202 744.566 72.406C744.566 78.454 739.634 85.222 729.77 92.71H744.62V100H718.214ZM775.738 95.68C773.182 99.028 769.348 100.702 764.236 100.702C759.124 100.702 755.29 99.028 752.734 95.68C750.178 92.332 748.9 87.508 748.9 81.208C748.9 74.836 750.196 69.868 752.788 66.304C755.38 62.74 759.196 60.958 764.236 60.958C769.312 60.958 773.128 62.758 775.684 66.358C778.276 69.922 779.572 74.872 779.572 81.208C779.572 87.508 778.294 92.332 775.738 95.68ZM764.236 93.952C766.684 93.952 768.484 92.962 769.636 90.982C770.788 88.966 771.364 85.69 771.364 81.154C771.364 72.19 768.988 67.708 764.236 67.708C759.484 67.708 757.108 72.154 757.108 81.046C757.108 85.618 757.666 88.912 758.782 90.928C759.934 92.944 761.752 93.952 764.236 93.952ZM810.385 95.68C807.829 99.028 803.995 100.702 798.883 100.702C793.771 100.702 789.937 99.028 787.381 95.68C784.825 92.332 783.547 87.508 783.547 81.208C783.547 74.836 784.843 69.868 787.435 66.304C790.027 62.74 793.843 60.958 798.883 60.958C803.959 60.958 807.775 62.758 810.331 66.358C812.923 69.922 814.219 74.872 814.219 81.208C814.219 87.508 812.941 92.332 810.385 95.68ZM798.883 93.952C801.331 93.952 803.131 92.962 804.283 90.982C805.435 88.966 806.011 85.69 806.011 81.154C806.011 72.19 803.635 67.708 798.883 67.708C794.131 67.708 791.755 72.154 791.755 81.046C791.755 85.618 792.313 88.912 793.429 90.928C794.581 92.944 796.399 93.952 798.883 93.952Z" fill="black"/>
<rect x="859.818" y="97" width="2.71954" height="6.11896" rx="1.35977" fill="#2ED1C7"/>
<rect x="859.818" y="109.238" width="2.71954" height="6.11896" rx="1.35977" fill="#2ED1C7"/>
<rect x="852" y="107.538" width="2.71954" height="6.11896" rx="1.35977" transform="rotate(-90 852 107.538)" fill="#2ED1C7"/>
<rect x="864.238" y="107.538" width="2.71954" height="6.11896" rx="1.35977" transform="rotate(-90 864.238 107.538)" fill="#2ED1C7"/>
<rect x="668.818" width="2.71954" height="6.11896" rx="1.35977" fill="#2ED1C7"/>
<rect x="668.818" y="12.2379" width="2.71954" height="6.11896" rx="1.35977" fill="#2ED1C7"/>
<rect x="661" y="10.5381" width="2.71954" height="6.11896" rx="1.35977" transform="rotate(-90 661 10.5381)" fill="#2ED1C7"/>
<rect x="673.238" y="10.5381" width="2.71954" height="6.11896" rx="1.35977" transform="rotate(-90 673.238 10.5381)" fill="#2ED1C7"/>
<path fill-rule="evenodd" clip-rule="evenodd" d="M650 45.3333C651.289 45.3333 652.333 44.2887 652.333 43C652.333 41.7113 651.289 40.6667 650 40.6667C648.711 40.6667 647.667 41.7113 647.667 43C647.667 44.2887 648.711 45.3333 650 45.3333ZM650 48C652.761 48 655 45.7614 655 43C655 40.2386 652.761 38 650 38C647.239 38 645 40.2386 645 43C645 45.7614 647.239 48 650 48Z" fill="#2ED1C7"/>
</svg>
