<svg width="304" height="499" viewBox="0 0 304 499" fill="none" xmlns="http://www.w3.org/2000/svg">
<path d="M144.336 462.998L164.67 498.332H124.002L144.336 462.998Z" fill="#00234D"/>
<circle cx="5.66021" cy="295.998" r="4.99615" fill="#2ED1C7"/>
<path d="M0.664062 307.05C0.664062 304.336 2.86395 302.137 5.57765 302.137C8.29136 302.137 10.4912 304.336 10.4912 307.05V311.964H0.664062V307.05Z" fill="#2ED1C7"/>
<circle cx="122.467" cy="295.998" r="4.99615" fill="#2ED1C7"/>
<path d="M117.471 307.05C117.471 304.336 119.671 302.136 122.384 302.136C125.098 302.136 127.298 304.336 127.298 307.05V311.964H117.471V307.05Z" fill="#2ED1C7"/>
<circle cx="239.272" cy="295.998" r="4.99615" fill="#2ED1C7"/>
<path d="M234.275 307.05C234.275 304.336 236.475 302.136 239.189 302.136C241.903 302.136 244.103 304.336 244.103 307.05V311.963H234.275V307.05Z" fill="#2ED1C7"/>
<circle cx="64.0626" cy="295.998" r="4.99615" fill="#2ED1C7"/>
<path d="M59.0664 307.05C59.0664 304.336 61.2663 302.136 63.98 302.136C66.6937 302.136 68.8936 304.336 68.8936 307.05V311.964H59.0664V307.05Z" fill="#2ED1C7"/>
<circle cx="180.868" cy="295.998" r="4.99615" fill="#2ED1C7"/>
<path d="M175.872 307.05C175.872 304.336 178.072 302.136 180.786 302.136C183.499 302.136 185.699 304.336 185.699 307.05V311.964H175.872V307.05Z" fill="#2ED1C7"/>
<circle cx="34.8633" cy="295.998" r="4.99615" fill="#2ED1C7"/>
<path d="M29.8652 307.05C29.8652 304.336 32.0651 302.136 34.7788 302.136C37.4925 302.136 39.6924 304.336 39.6924 307.05V311.964H29.8652V307.05Z" fill="#2ED1C7"/>
<circle cx="151.667" cy="295.998" r="4.99615" fill="#2ED1C7"/>
<path d="M146.671 307.05C146.671 304.336 148.871 302.136 151.584 302.136C154.298 302.136 156.498 304.336 156.498 307.05V311.964H146.671V307.05Z" fill="#2ED1C7"/>
<circle cx="268.473" cy="295.998" r="4.99615" fill="#2ED1C7"/>
<path d="M263.477 307.054C263.477 304.34 265.676 302.14 268.39 302.14C271.104 302.14 273.304 304.34 273.304 307.054V311.968H263.477V307.054Z" fill="#2ED1C7"/>
<circle cx="93.2657" cy="295.998" r="4.99615" fill="#2ED1C7"/>
<path d="M88.2686 307.05C88.2686 304.336 90.4684 302.136 93.1821 302.136C95.8958 302.136 98.0957 304.336 98.0957 307.05V311.964H88.2686V307.05Z" fill="#2ED1C7"/>
<circle cx="210.07" cy="295.998" r="4.99615" fill="#2ED1C7"/>
<path d="M205.074 307.05C205.074 304.336 207.274 302.136 209.988 302.136C212.702 302.136 214.901 304.336 214.901 307.05V311.964H205.074V307.05Z" fill="#2ED1C7"/>
<circle cx="20.0176" cy="295.998" r="4.99615" fill="#00B7B7"/>
<path d="M20.2636 302.138L25.9373 311.965H14.5898L20.2636 302.138Z" fill="#00B7B7"/>
<rect x="17.6426" y="302.138" width="5.24117" height="1.31029" fill="#00B7B7"/>
<circle cx="136.821" cy="295.998" r="4.99615" fill="#00B7B7"/>
<path d="M137.067 302.138L142.741 311.965H131.394L137.067 302.138Z" fill="#00B7B7"/>
<rect x="134.446" y="302.138" width="5.24117" height="1.31029" fill="#00B7B7"/>
<circle cx="253.626" cy="295.998" r="4.99615" fill="#00B7B7"/>
<path d="M253.872 302.138L259.546 311.965H248.198L253.872 302.138Z" fill="#00B7B7"/>
<rect x="251.251" y="302.138" width="5.24117" height="1.31029" fill="#00B7B7"/>
<circle cx="78.419" cy="295.998" r="4.99615" fill="#00B7B7"/>
<path d="M78.6649 302.138L84.3387 311.965H72.9912L78.6649 302.138Z" fill="#00B7B7"/>
<rect x="76.0439" y="302.138" width="5.24117" height="1.31029" fill="#00B7B7"/>
<circle cx="195.223" cy="295.998" r="4.99615" fill="#00B7B7"/>
<path d="M195.469 302.138L201.142 311.965H189.795L195.469 302.138Z" fill="#00B7B7"/>
<rect x="192.848" y="302.138" width="5.24117" height="1.31029" fill="#00B7B7"/>
<circle cx="49.2188" cy="295.998" r="4.99615" fill="#00B7B7"/>
<path d="M49.4647 302.138L55.1385 311.965H43.791L49.4647 302.138Z" fill="#00B7B7"/>
<rect x="46.8438" y="302.138" width="5.24117" height="1.31029" fill="#00B7B7"/>
<circle cx="166.023" cy="295.998" r="4.99615" fill="#00B7B7"/>
<path d="M166.268 302.138L171.942 311.965H160.595L166.268 302.138Z" fill="#00B7B7"/>
<rect x="163.647" y="302.138" width="5.24117" height="1.31029" fill="#00B7B7"/>
<circle cx="282.829" cy="295.998" r="4.99615" fill="#00B7B7"/>
<path d="M283.075 302.138L288.749 311.965H277.401L283.075 302.138Z" fill="#00B7B7"/>
<rect x="280.454" y="302.138" width="5.24117" height="1.31029" fill="#00B7B7"/>
<circle cx="107.621" cy="295.998" r="4.99615" fill="#00B7B7"/>
<path d="M107.867 302.138L113.541 311.965H102.193L107.867 302.138Z" fill="#00B7B7"/>
<rect x="105.246" y="302.138" width="5.24117" height="1.31029" fill="#00B7B7"/>
<circle cx="224.425" cy="295.998" r="4.99615" fill="#00B7B7"/>
<path d="M224.671 302.138L230.345 311.965H218.997L224.671 302.138Z" fill="#00B7B7"/>
<rect x="222.05" y="302.138" width="5.24117" height="1.31029" fill="#00B7B7"/>
<circle cx="93.2667" cy="230.665" r="4.99615" fill="#2ED1C7"/>
<path d="M88.2695 241.719C88.2695 239.005 90.4694 236.805 93.1831 236.805C95.8968 236.805 98.0967 239.005 98.0967 241.719V246.632H88.2695V241.719Z" fill="#2ED1C7"/>
<circle cx="5.66217" cy="230.665" r="4.99615" fill="#2ED1C7"/>
<path d="M0.666016 241.719C0.666016 239.005 2.86591 236.805 5.57961 236.805C8.29331 236.805 10.4932 239.005 10.4932 241.719V246.632H0.666016V241.719Z" fill="#2ED1C7"/>
<circle cx="151.671" cy="230.665" r="4.99615" fill="#2ED1C7"/>
<path d="M146.674 241.719C146.674 239.005 148.874 236.805 151.587 236.805C154.301 236.805 156.501 239.005 156.501 241.719V246.632H146.674V241.719Z" fill="#2ED1C7"/>
<circle cx="239.273" cy="230.665" r="4.99615" fill="#2ED1C7"/>
<path d="M234.276 241.719C234.276 239.005 236.476 236.805 239.19 236.805C241.904 236.805 244.104 239.005 244.104 241.719V246.632H234.276V241.719Z" fill="#2ED1C7"/>
<circle cx="122.467" cy="230.665" r="4.99615" fill="#2ED1C7"/>
<path d="M117.471 241.719C117.471 239.005 119.671 236.805 122.384 236.805C125.098 236.805 127.298 239.005 127.298 241.719V246.632H117.471V241.719Z" fill="#2ED1C7"/>
<circle cx="210.072" cy="230.665" r="4.99615" fill="#2ED1C7"/>
<path d="M205.076 241.719C205.076 239.005 207.276 236.805 209.99 236.805C212.703 236.805 214.903 239.005 214.903 241.719V246.632H205.076V241.719Z" fill="#2ED1C7"/>
<circle cx="64.0635" cy="230.665" r="4.99615" fill="#2ED1C7"/>
<path d="M59.0674 241.719C59.0674 239.005 61.2673 236.805 63.981 236.805C66.6947 236.805 68.8946 239.005 68.8946 241.719V246.632H59.0674V241.719Z" fill="#2ED1C7"/>
<circle cx="34.8643" cy="230.665" r="4.99615" fill="#2ED1C7"/>
<path d="M29.8672 241.719C29.8672 239.005 32.0671 236.805 34.7808 236.805C37.4945 236.805 39.6944 239.005 39.6944 241.719V246.632H29.8672V241.719Z" fill="#2ED1C7"/>
<circle cx="180.87" cy="230.665" r="4.99615" fill="#2ED1C7"/>
<path d="M175.874 241.719C175.874 239.005 178.074 236.805 180.788 236.805C183.501 236.805 185.701 239.005 185.701 241.719V246.632H175.874V241.719Z" fill="#2ED1C7"/>
<circle cx="268.475" cy="230.665" r="4.99615" fill="#2ED1C7"/>
<path d="M263.479 241.719C263.479 239.005 265.678 236.805 268.392 236.805C271.106 236.805 273.306 239.005 273.306 241.719V246.632H263.479V241.719Z" fill="#2ED1C7"/>
<circle cx="107.621" cy="230.665" r="4.99615" fill="#00B7B7"/>
<path d="M107.867 236.805L113.541 246.632H102.193L107.867 236.805Z" fill="#00B7B7"/>
<rect x="105.246" y="236.805" width="5.24117" height="1.31029" fill="#00B7B7"/>
<circle cx="20.0167" cy="230.665" r="4.99615" fill="#00B7B7"/>
<path d="M20.2626 236.805L25.9363 246.632H14.5889L20.2626 236.805Z" fill="#00B7B7"/>
<rect x="17.6416" y="236.805" width="5.24117" height="1.31029" fill="#00B7B7"/>
<circle cx="166.024" cy="230.665" r="4.99615" fill="#00B7B7"/>
<path d="M166.27 236.805L171.944 246.632H160.597L166.27 236.805Z" fill="#00B7B7"/>
<rect x="163.649" y="236.805" width="5.24117" height="1.31029" fill="#00B7B7"/>
<circle cx="253.627" cy="230.665" r="4.99615" fill="#00B7B7"/>
<path d="M253.873 236.805L259.547 246.632H248.199L253.873 236.805Z" fill="#00B7B7"/>
<rect x="251.252" y="236.805" width="5.24117" height="1.31029" fill="#00B7B7"/>
<circle cx="282.747" cy="230.665" r="4.99615" fill="#00B7B7"/>
<path d="M282.993 236.805L288.667 246.632H277.319L282.993 236.805Z" fill="#00B7B7"/>
<rect x="280.372" y="236.805" width="5.24117" height="1.31029" fill="#00B7B7"/>
<circle cx="136.822" cy="230.665" r="4.99615" fill="#00B7B7"/>
<path d="M137.068 236.805L142.742 246.632H131.395L137.068 236.805Z" fill="#00B7B7"/>
<rect x="134.447" y="236.805" width="5.24117" height="1.31029" fill="#00B7B7"/>
<circle cx="224.427" cy="230.665" r="4.99615" fill="#00B7B7"/>
<path d="M224.673 236.805L230.346 246.632H218.999L224.673 236.805Z" fill="#00B7B7"/>
<rect x="222.052" y="236.805" width="5.24117" height="1.31029" fill="#00B7B7"/>
<circle cx="78.42" cy="230.665" r="4.99615" fill="#00B7B7"/>
<path d="M78.6659 236.805L84.3396 246.632H72.9922L78.6659 236.805Z" fill="#00B7B7"/>
<rect x="76.0449" y="236.805" width="5.24117" height="1.31029" fill="#00B7B7"/>
<circle cx="49.2178" cy="230.665" r="4.99615" fill="#00B7B7"/>
<path d="M49.4638 236.805L55.1375 246.632H43.79L49.4638 236.805Z" fill="#00B7B7"/>
<rect x="46.8428" y="236.805" width="5.24117" height="1.31029" fill="#00B7B7"/>
<circle cx="195.226" cy="230.665" r="4.99615" fill="#00B7B7"/>
<path d="M195.472 236.805L201.145 246.632H189.798L195.472 236.805Z" fill="#00B7B7"/>
<rect x="192.851" y="236.805" width="5.24117" height="1.31029" fill="#00B7B7"/>
<circle cx="5.66314" cy="361.516" r="4.99615" fill="#2ED1C7"/>
<path d="M0.666992 372.571C0.666992 369.858 2.86688 367.658 5.58058 367.658C8.29429 367.658 10.4942 369.858 10.4942 372.571V377.485H0.666992V372.571Z" fill="#2ED1C7"/>
<circle cx="122.469" cy="361.517" r="4.99615" fill="#2ED1C7"/>
<path d="M117.473 372.572C117.473 369.858 119.673 367.659 122.386 367.659C125.1 367.659 127.3 369.858 127.3 372.572V377.486H117.473V372.572Z" fill="#2ED1C7"/>
<circle cx="239.273" cy="361.517" r="4.99615" fill="#2ED1C7"/>
<path d="M234.276 372.571C234.276 369.857 236.476 367.657 239.19 367.657C241.904 367.657 244.104 369.857 244.104 372.571V377.485H234.276V372.571Z" fill="#2ED1C7"/>
<circle cx="64.0645" cy="361.517" r="4.99615" fill="#2ED1C7"/>
<path d="M59.0684 372.572C59.0684 369.858 61.2683 367.659 63.982 367.659C66.6957 367.659 68.8955 369.858 68.8955 372.572V377.486H59.0684V372.572Z" fill="#2ED1C7"/>
<circle cx="180.87" cy="361.517" r="4.99615" fill="#2ED1C7"/>
<path d="M175.874 372.572C175.874 369.858 178.074 367.659 180.788 367.659C183.501 367.659 185.701 369.858 185.701 372.572V377.486H175.874V372.572Z" fill="#2ED1C7"/>
<circle cx="34.8653" cy="361.517" r="4.99615" fill="#2ED1C7"/>
<path d="M29.8682 372.572C29.8682 369.858 32.0681 367.659 34.7818 367.659C37.4955 367.659 39.6953 369.858 39.6953 372.572V377.486H29.8682V372.572Z" fill="#2ED1C7"/>
<circle cx="151.67" cy="361.517" r="4.99615" fill="#2ED1C7"/>
<path d="M146.673 372.572C146.673 369.858 148.873 367.659 151.586 367.659C154.3 367.659 156.5 369.858 156.5 372.572V377.486H146.673V372.572Z" fill="#2ED1C7"/>
<circle cx="268.476" cy="361.519" r="4.99615" fill="#2ED1C7"/>
<path d="M263.479 372.574C263.479 369.86 265.679 367.661 268.393 367.661C271.107 367.661 273.307 369.86 273.307 372.574V377.488H263.479V372.574Z" fill="#2ED1C7"/>
<circle cx="93.2676" cy="361.517" r="4.99615" fill="#2ED1C7"/>
<path d="M88.2715 372.572C88.2715 369.858 90.4714 367.659 93.1851 367.659C95.8988 367.659 98.0987 369.858 98.0987 372.572V377.486H88.2715V372.572Z" fill="#2ED1C7"/>
<circle cx="210.072" cy="361.517" r="4.99615" fill="#2ED1C7"/>
<path d="M205.076 372.572C205.076 369.858 207.276 367.659 209.99 367.659C212.703 367.659 214.903 369.858 214.903 372.572V377.486H205.076V372.572Z" fill="#2ED1C7"/>
<circle cx="20.0176" cy="361.519" r="4.99615" fill="#00B7B7"/>
<path d="M20.2636 367.66L25.9373 377.487H14.5898L20.2636 367.66Z" fill="#00B7B7"/>
<rect x="17.6426" y="367.66" width="5.24117" height="1.31029" fill="#00B7B7"/>
<circle cx="136.823" cy="361.519" r="4.99615" fill="#00B7B7"/>
<path d="M137.069 367.66L142.743 377.487H131.396L137.069 367.66Z" fill="#00B7B7"/>
<rect x="134.448" y="367.66" width="5.24117" height="1.31029" fill="#00B7B7"/>
<circle cx="253.627" cy="361.519" r="4.99615" fill="#00B7B7"/>
<path d="M253.873 367.66L259.547 377.487H248.199L253.873 367.66Z" fill="#00B7B7"/>
<rect x="251.252" y="367.66" width="5.24117" height="1.31029" fill="#00B7B7"/>
<circle cx="78.421" cy="361.519" r="4.99615" fill="#00B7B7"/>
<path d="M78.6669 367.66L84.3406 377.487H72.9932L78.6669 367.66Z" fill="#00B7B7"/>
<rect x="76.0459" y="367.66" width="5.24117" height="1.31029" fill="#00B7B7"/>
<circle cx="195.226" cy="361.519" r="4.99615" fill="#00B7B7"/>
<path d="M195.472 367.66L201.145 377.487H189.798L195.472 367.66Z" fill="#00B7B7"/>
<rect x="192.851" y="367.66" width="5.24117" height="1.31029" fill="#00B7B7"/>
<circle cx="49.2198" cy="361.519" r="4.99615" fill="#00B7B7"/>
<path d="M49.4657 367.66L55.1395 377.487H43.792L49.4657 367.66Z" fill="#00B7B7"/>
<rect x="46.8447" y="367.66" width="5.24117" height="1.31029" fill="#00B7B7"/>
<circle cx="166.024" cy="361.519" r="4.99615" fill="#00B7B7"/>
<path d="M166.27 367.66L171.944 377.487H160.597L166.27 367.66Z" fill="#00B7B7"/>
<rect x="163.649" y="367.66" width="5.24117" height="1.31029" fill="#00B7B7"/>
<circle cx="282.831" cy="361.519" r="4.99615" fill="#00B7B7"/>
<path d="M283.077 367.66L288.751 377.487H277.403L283.077 367.66Z" fill="#00B7B7"/>
<rect x="280.456" y="367.66" width="5.24117" height="1.31029" fill="#00B7B7"/>
<circle cx="107.622" cy="361.519" r="4.99615" fill="#00B7B7"/>
<path d="M107.868 367.66L113.542 377.487H102.194L107.868 367.66Z" fill="#00B7B7"/>
<rect x="105.247" y="367.66" width="5.24117" height="1.31029" fill="#00B7B7"/>
<circle cx="224.426" cy="361.519" r="4.99615" fill="#00B7B7"/>
<path d="M224.672 367.66L230.346 377.487H218.998L224.672 367.66Z" fill="#00B7B7"/>
<rect x="222.051" y="367.66" width="5.24117" height="1.31029" fill="#00B7B7"/>
<circle cx="94.5987" cy="166.661" r="4.99615" fill="#2ED1C7"/>
<path d="M89.6025 177.715C89.6025 175.002 91.8024 172.802 94.5161 172.802C97.2298 172.802 99.4297 175.002 99.4297 177.715V182.629H89.6025V177.715Z" fill="#2ED1C7"/>
<circle cx="6.99517" cy="166.663" r="4.99615" fill="#2ED1C7"/>
<path d="M1.99902 177.717C1.99902 175.003 4.19891 172.804 6.91262 172.804C9.62632 172.804 11.8262 175.003 11.8262 177.717V182.631H1.99902V177.717Z" fill="#2ED1C7"/>
<circle cx="153.004" cy="166.661" r="4.99615" fill="#2ED1C7"/>
<path d="M148.007 177.715C148.007 175.001 150.207 172.802 152.92 172.802C155.634 172.802 157.834 175.001 157.834 177.715V182.629H148.007V177.715Z" fill="#2ED1C7"/>
<circle cx="240.605" cy="166.661" r="4.99615" fill="#2ED1C7"/>
<path d="M235.609 177.715C235.609 175.002 237.809 172.802 240.523 172.802C243.237 172.802 245.437 175.002 245.437 177.715V182.629H235.609V177.715Z" fill="#2ED1C7"/>
<circle cx="123.802" cy="166.661" r="4.99615" fill="#2ED1C7"/>
<path d="M118.804 177.715C118.804 175.002 121.004 172.802 123.717 172.802C126.431 172.802 128.631 175.002 128.631 177.715V182.629H118.804V177.715Z" fill="#2ED1C7"/>
<circle cx="211.405" cy="166.661" r="4.99615" fill="#2ED1C7"/>
<path d="M206.409 177.715C206.409 175.002 208.609 172.802 211.323 172.802C214.036 172.802 216.236 175.002 216.236 177.715V182.629H206.409V177.715Z" fill="#2ED1C7"/>
<circle cx="65.3985" cy="166.661" r="4.99615" fill="#2ED1C7"/>
<path d="M60.4014 177.715C60.4014 175.002 62.6013 172.802 65.315 172.802C68.0287 172.802 70.2286 175.002 70.2286 177.715V182.629H60.4014V177.715Z" fill="#2ED1C7"/>
<circle cx="36.1973" cy="166.661" r="4.99615" fill="#2ED1C7"/>
<path d="M31.2002 177.715C31.2002 175.002 33.4001 172.802 36.1138 172.802C38.8275 172.802 41.0274 175.002 41.0274 177.715V182.629H31.2002V177.715Z" fill="#2ED1C7"/>
<circle cx="182.202" cy="166.661" r="4.99615" fill="#2ED1C7"/>
<path d="M177.206 177.715C177.206 175.002 179.406 172.802 182.12 172.802C184.833 172.802 187.033 175.002 187.033 177.715V182.629H177.206V177.715Z" fill="#2ED1C7"/>
<circle cx="269.808" cy="166.661" r="4.99615" fill="#2ED1C7"/>
<path d="M264.811 177.715C264.811 175.002 267.01 172.802 269.724 172.802C272.438 172.802 274.638 175.002 274.638 177.715V182.629H264.811V177.715Z" fill="#2ED1C7"/>
<circle cx="108.954" cy="166.661" r="4.99615" fill="#00B7B7"/>
<path d="M109.2 172.802L114.874 182.629H103.526L109.2 172.802Z" fill="#00B7B7"/>
<rect x="106.579" y="172.802" width="5.24117" height="1.31029" fill="#00B7B7"/>
<circle cx="21.3497" cy="166.661" r="4.99615" fill="#00B7B7"/>
<path d="M21.5956 172.802L27.2693 182.629H15.9219L21.5956 172.802Z" fill="#00B7B7"/>
<rect x="18.9746" y="172.802" width="5.24117" height="1.31029" fill="#00B7B7"/>
<circle cx="167.356" cy="166.661" r="4.99615" fill="#00B7B7"/>
<path d="M167.601 172.802L173.275 182.629H161.928L167.601 172.802Z" fill="#00B7B7"/>
<rect x="164.98" y="172.802" width="5.24117" height="1.31029" fill="#00B7B7"/>
<circle cx="254.96" cy="166.661" r="4.99615" fill="#00B7B7"/>
<path d="M255.206 172.802L260.88 182.629H249.532L255.206 172.802Z" fill="#00B7B7"/>
<rect x="252.585" y="172.802" width="5.24117" height="1.31029" fill="#00B7B7"/>
<circle cx="284.08" cy="166.661" r="4.99615" fill="#00B7B7"/>
<path d="M284.326 172.802L290 182.629H278.652L284.326 172.802Z" fill="#00B7B7"/>
<rect x="281.705" y="172.802" width="5.24117" height="1.31029" fill="#00B7B7"/>
<circle cx="138.156" cy="166.661" r="4.99615" fill="#00B7B7"/>
<path d="M138.402 172.802L144.076 182.629H132.729L138.402 172.802Z" fill="#00B7B7"/>
<rect x="135.781" y="172.802" width="5.24117" height="1.31029" fill="#00B7B7"/>
<circle cx="225.758" cy="166.661" r="4.99615" fill="#00B7B7"/>
<path d="M226.004 172.802L231.678 182.629H220.33L226.004 172.802Z" fill="#00B7B7"/>
<rect x="223.383" y="172.802" width="5.24117" height="1.31029" fill="#00B7B7"/>
<circle cx="79.753" cy="166.661" r="4.99615" fill="#00B7B7"/>
<path d="M79.9989 172.802L85.6727 182.629H74.3252L79.9989 172.802Z" fill="#00B7B7"/>
<rect x="77.3779" y="172.802" width="5.24117" height="1.31029" fill="#00B7B7"/>
<circle cx="50.5518" cy="166.661" r="4.99615" fill="#00B7B7"/>
<path d="M50.7978 172.802L56.4715 182.629H45.124L50.7978 172.802Z" fill="#00B7B7"/>
<rect x="48.1768" y="172.802" width="5.24117" height="1.31029" fill="#00B7B7"/>
<circle cx="196.556" cy="166.661" r="4.99615" fill="#00B7B7"/>
<path d="M196.802 172.802L202.475 182.629H191.128L196.802 172.802Z" fill="#00B7B7"/>
<rect x="194.181" y="172.802" width="5.24117" height="1.31029" fill="#00B7B7"/>
<circle cx="5.66314" cy="427.032" r="4.99615" fill="#2ED1C7"/>
<path d="M0.666016 438.086C0.666016 435.372 2.86591 433.172 5.57961 433.172C8.29331 433.172 10.4932 435.372 10.4932 438.086V442.999H0.666016V438.086Z" fill="#2ED1C7"/>
<circle cx="122.467" cy="427.031" r="4.99615" fill="#2ED1C7"/>
<path d="M117.471 438.085C117.471 435.372 119.671 433.172 122.384 433.172C125.098 433.172 127.298 435.372 127.298 438.085V442.999H117.471V438.085Z" fill="#2ED1C7"/>
<circle cx="239.274" cy="427.031" r="4.99615" fill="#2ED1C7"/>
<path d="M234.277 438.085C234.277 435.372 236.477 433.172 239.191 433.172C241.905 433.172 244.105 435.372 244.105 438.085V442.999H234.277V438.085Z" fill="#2ED1C7"/>
<circle cx="64.0635" cy="427.031" r="4.99615" fill="#2ED1C7"/>
<path d="M59.0674 438.085C59.0674 435.372 61.2673 433.172 63.981 433.172C66.6947 433.172 68.8946 435.372 68.8946 438.085V442.999H59.0674V438.085Z" fill="#2ED1C7"/>
<circle cx="180.87" cy="427.031" r="4.99615" fill="#2ED1C7"/>
<path d="M175.873 438.085C175.873 435.372 178.073 433.172 180.787 433.172C183.5 433.172 185.7 435.372 185.7 438.085V442.999H175.873V438.085Z" fill="#2ED1C7"/>
<circle cx="34.8653" cy="427.031" r="4.99615" fill="#2ED1C7"/>
<path d="M29.8662 438.085C29.8662 435.372 32.0661 433.172 34.7798 433.172C37.4935 433.172 39.6934 435.372 39.6934 438.085V442.999H29.8662V438.085Z" fill="#2ED1C7"/>
<circle cx="151.669" cy="427.031" r="4.99615" fill="#2ED1C7"/>
<path d="M146.672 438.085C146.672 435.372 148.872 433.172 151.585 433.172C154.299 433.172 156.499 435.372 156.499 438.085V442.999H146.672V438.085Z" fill="#2ED1C7"/>
<circle cx="268.475" cy="427.031" r="4.99615" fill="#2ED1C7"/>
<path d="M263.479 438.085C263.479 435.372 265.678 433.172 268.392 433.172C271.106 433.172 273.306 435.372 273.306 438.085V442.999H263.479V438.085Z" fill="#2ED1C7"/>
<circle cx="93.2667" cy="427.031" r="4.99615" fill="#2ED1C7"/>
<path d="M88.2695 438.085C88.2695 435.372 90.4694 433.172 93.1831 433.172C95.8968 433.172 98.0967 435.372 98.0967 438.085V442.999H88.2695V438.085Z" fill="#2ED1C7"/>
<circle cx="210.072" cy="427.031" r="4.99615" fill="#2ED1C7"/>
<path d="M205.076 438.085C205.076 435.372 207.276 433.172 209.99 433.172C212.703 433.172 214.903 435.372 214.903 438.085V442.999H205.076V438.085Z" fill="#2ED1C7"/>
<circle cx="20.0176" cy="427.031" r="4.99615" fill="#00B7B7"/>
<path d="M20.2636 433.172L25.9373 442.999H14.5898L20.2636 433.172Z" fill="#00B7B7"/>
<rect x="17.6426" y="433.172" width="5.24117" height="1.31029" fill="#00B7B7"/>
<circle cx="136.821" cy="427.031" r="4.99615" fill="#00B7B7"/>
<path d="M137.067 433.172L142.741 442.999H131.394L137.067 433.172Z" fill="#00B7B7"/>
<rect x="134.446" y="433.172" width="5.24117" height="1.31029" fill="#00B7B7"/>
<circle cx="253.627" cy="427.031" r="4.99615" fill="#00B7B7"/>
<path d="M253.873 433.172L259.547 442.999H248.199L253.873 433.172Z" fill="#00B7B7"/>
<rect x="251.252" y="433.172" width="5.24117" height="1.31029" fill="#00B7B7"/>
<circle cx="78.42" cy="427.031" r="4.99615" fill="#00B7B7"/>
<path d="M78.6659 433.172L84.3396 442.999H72.9922L78.6659 433.172Z" fill="#00B7B7"/>
<rect x="76.0449" y="433.172" width="5.24117" height="1.31029" fill="#00B7B7"/>
<circle cx="195.224" cy="427.031" r="4.99615" fill="#00B7B7"/>
<path d="M195.47 433.172L201.143 442.999H189.796L195.47 433.172Z" fill="#00B7B7"/>
<rect x="192.849" y="433.172" width="5.24117" height="1.31029" fill="#00B7B7"/>
<circle cx="49.2198" cy="427.031" r="4.99615" fill="#00B7B7"/>
<path d="M49.4657 433.172L55.1395 442.999H43.792L49.4657 433.172Z" fill="#00B7B7"/>
<rect x="46.8447" y="433.172" width="5.24117" height="1.31029" fill="#00B7B7"/>
<circle cx="166.023" cy="427.031" r="4.99615" fill="#00B7B7"/>
<path d="M166.269 433.172L171.943 442.999H160.596L166.269 433.172Z" fill="#00B7B7"/>
<rect x="163.648" y="433.172" width="5.24117" height="1.31029" fill="#00B7B7"/>
<circle cx="282.829" cy="427.031" r="4.99615" fill="#00B7B7"/>
<path d="M283.075 433.172L288.749 442.999H277.401L283.075 433.172Z" fill="#00B7B7"/>
<rect x="280.454" y="433.172" width="5.24117" height="1.31029" fill="#00B7B7"/>
<circle cx="107.621" cy="427.031" r="4.99615" fill="#00B7B7"/>
<path d="M107.867 433.172L113.541 442.999H102.193L107.867 433.172Z" fill="#00B7B7"/>
<rect x="105.246" y="433.172" width="5.24117" height="1.31029" fill="#00B7B7"/>
<circle cx="224.427" cy="427.031" r="4.99615" fill="#00B7B7"/>
<path d="M224.673 433.172L230.346 442.999H218.999L224.673 433.172Z" fill="#00B7B7"/>
<rect x="222.052" y="433.172" width="5.24117" height="1.31029" fill="#00B7B7"/>
<circle r="4.99615" transform="matrix(-1 0 0 1 195.399 263.333)" fill="#2ED1C7"/>
<path d="M200.396 274.388C200.396 271.674 198.196 269.474 195.482 269.474C192.768 269.474 190.568 271.674 190.568 274.388V279.302H200.396V274.388Z" fill="#2ED1C7"/>
<circle r="4.99615" transform="matrix(-1 0 0 1 283.004 263.333)" fill="#2ED1C7"/>
<path d="M288.001 274.389C288.001 271.676 285.801 269.476 283.087 269.476C280.374 269.476 278.174 271.676 278.174 274.389V279.303H288.001V274.389Z" fill="#2ED1C7"/>
<circle r="4.99615" transform="matrix(-1 0 0 1 136.998 263.332)" fill="#2ED1C7"/>
<path d="M141.995 274.389C141.995 271.675 139.795 269.475 137.082 269.475C134.368 269.475 132.168 271.675 132.168 274.389V279.302H141.995V274.389Z" fill="#2ED1C7"/>
<circle r="4.99615" transform="matrix(-1 0 0 1 49.3935 263.333)" fill="#2ED1C7"/>
<path d="M54.3906 274.39C54.3906 271.676 52.1907 269.476 49.477 269.476C46.7633 269.476 44.5634 271.676 44.5634 274.39V279.304H54.3906V274.39Z" fill="#2ED1C7"/>
<circle r="4.99615" transform="matrix(-1 0 0 1 166.201 263.333)" fill="#2ED1C7"/>
<path d="M171.197 274.39C171.197 271.676 168.997 269.476 166.284 269.476C163.57 269.476 161.37 271.676 161.37 274.39V279.304H171.197V274.39Z" fill="#2ED1C7"/>
<circle r="4.99615" transform="matrix(-1 0 0 1 78.5937 263.333)" fill="#2ED1C7"/>
<path d="M83.5898 274.388C83.5898 271.674 81.39 269.474 78.6763 269.474C75.9626 269.474 73.7627 271.674 73.7627 274.388V279.302H83.5898V274.388Z" fill="#2ED1C7"/>
<circle r="4.99615" transform="matrix(-1 0 0 1 224.602 263.333)" fill="#2ED1C7"/>
<path d="M229.599 274.39C229.599 271.676 227.399 269.476 224.685 269.476C221.971 269.476 219.771 271.676 219.771 274.39V279.304H229.599V274.39Z" fill="#2ED1C7"/>
<circle r="4.99615" transform="matrix(-1 0 0 1 253.803 263.333)" fill="#2ED1C7"/>
<path d="M258.799 274.39C258.799 271.676 256.599 269.476 253.885 269.476C251.172 269.476 248.972 271.676 248.972 274.39V279.304H258.799V274.39Z" fill="#2ED1C7"/>
<circle r="4.99615" transform="matrix(-1 0 0 1 107.796 263.333)" fill="#2ED1C7"/>
<path d="M112.793 274.39C112.793 271.676 110.593 269.476 107.879 269.476C105.166 269.476 102.966 271.676 102.966 274.39V279.304H112.793V274.39Z" fill="#2ED1C7"/>
<circle r="4.99615" transform="matrix(-1 0 0 1 20.1923 263.333)" fill="#2ED1C7"/>
<path d="M25.1885 274.39C25.1885 271.676 22.9886 269.476 20.2749 269.476C17.5612 269.476 15.3613 271.676 15.3613 274.39V279.304H25.1885V274.39Z" fill="#2ED1C7"/>
<circle r="4.99615" transform="matrix(-1 0 0 1 181.048 263.332)" fill="#00B7B7"/>
<path d="M180.802 269.473L175.128 279.3H186.476L180.802 269.473Z" fill="#00B7B7"/>
<rect width="5.24117" height="1.31029" transform="matrix(-1 0 0 1 183.423 269.473)" fill="#00B7B7"/>
<circle r="4.99615" transform="matrix(-1 0 0 1 268.651 263.332)" fill="#00B7B7"/>
<path d="M268.405 269.473L262.732 279.3H274.079L268.405 269.473Z" fill="#00B7B7"/>
<rect width="5.24117" height="1.31029" transform="matrix(-1 0 0 1 271.026 269.473)" fill="#00B7B7"/>
<circle r="4.99615" transform="matrix(-1 0 0 1 122.643 263.332)" fill="#00B7B7"/>
<path d="M122.397 269.473L116.723 279.3H128.07L122.397 269.473Z" fill="#00B7B7"/>
<rect width="5.24117" height="1.31029" transform="matrix(-1 0 0 1 125.018 269.473)" fill="#00B7B7"/>
<circle r="4.99615" transform="matrix(-1 0 0 1 35.039 263.332)" fill="#00B7B7"/>
<path d="M34.7931 269.473L29.1193 279.3H40.4668L34.7931 269.473Z" fill="#00B7B7"/>
<rect width="5.24117" height="1.31029" transform="matrix(-1 0 0 1 37.4141 269.473)" fill="#00B7B7"/>
<circle r="4.99615" transform="matrix(-1 0 0 1 5.92084 263.332)" fill="#00B7B7"/>
<path d="M5.6749 269.473L0.00117302 279.3H11.3486L5.6749 269.473Z" fill="#00B7B7"/>
<rect width="5.24117" height="1.31029" transform="matrix(-1 0 0 1 8.2959 269.473)" fill="#00B7B7"/>
<circle r="4.99615" transform="matrix(-1 0 0 1 151.845 263.332)" fill="#00B7B7"/>
<path d="M151.599 269.473L145.925 279.3H157.272L151.599 269.473Z" fill="#00B7B7"/>
<rect width="5.24117" height="1.31029" transform="matrix(-1 0 0 1 154.22 269.473)" fill="#00B7B7"/>
<circle r="4.99615" transform="matrix(-1 0 0 1 64.2392 263.332)" fill="#00B7B7"/>
<path d="M63.9933 269.473L58.3195 279.3H69.667L63.9933 269.473Z" fill="#00B7B7"/>
<rect width="5.24117" height="1.31029" transform="matrix(-1 0 0 1 66.6143 269.473)" fill="#00B7B7"/>
<circle r="4.99615" transform="matrix(-1 0 0 1 210.248 263.332)" fill="#00B7B7"/>
<path d="M210.002 269.473L204.328 279.3H215.676L210.002 269.473Z" fill="#00B7B7"/>
<rect width="5.24117" height="1.31029" transform="matrix(-1 0 0 1 212.623 269.473)" fill="#00B7B7"/>
<circle r="4.99615" transform="matrix(-1 0 0 1 239.45 263.332)" fill="#00B7B7"/>
<path d="M239.204 269.473L233.53 279.3H244.878L239.204 269.473Z" fill="#00B7B7"/>
<rect width="5.24117" height="1.31029" transform="matrix(-1 0 0 1 241.825 269.473)" fill="#00B7B7"/>
<circle r="4.99615" transform="matrix(-1 0 0 1 93.4423 263.332)" fill="#00B7B7"/>
<path d="M93.1964 269.473L87.5227 279.3H98.8701L93.1964 269.473Z" fill="#00B7B7"/>
<rect width="5.24117" height="1.31029" transform="matrix(-1 0 0 1 95.8174 269.473)" fill="#00B7B7"/>
<circle cx="108.545" cy="328.754" r="4.99615" fill="#2ED1C7"/>
<path d="M103.548 339.806C103.548 337.092 105.748 334.892 108.461 334.892C111.175 334.892 113.375 337.092 113.375 339.806V344.719H103.548V339.806Z" fill="#2ED1C7"/>
<circle cx="225.351" cy="328.755" r="4.99615" fill="#2ED1C7"/>
<path d="M220.354 339.807C220.354 337.094 222.553 334.894 225.267 334.894C227.981 334.894 230.181 337.094 230.181 339.807V344.721H220.354V339.807Z" fill="#2ED1C7"/>
<circle cx="50.1417" cy="328.754" r="4.99615" fill="#2ED1C7"/>
<path d="M45.1455 339.806C45.1455 337.092 47.3454 334.892 50.0591 334.892C52.7728 334.892 54.9727 337.092 54.9727 339.806V344.719H45.1455V339.806Z" fill="#2ED1C7"/>
<circle cx="166.948" cy="328.754" r="4.99615" fill="#2ED1C7"/>
<path d="M161.951 339.806C161.951 337.092 164.151 334.892 166.865 334.892C169.578 334.892 171.778 337.092 171.778 339.806V344.719H161.951V339.806Z" fill="#2ED1C7"/>
<circle cx="283.752" cy="328.754" r="4.99615" fill="#2ED1C7"/>
<path d="M278.756 339.806C278.756 337.092 280.956 334.892 283.669 334.892C286.383 334.892 288.583 337.092 288.583 339.806V344.719H278.756V339.806Z" fill="#2ED1C7"/>
<circle cx="20.9415" cy="328.754" r="4.99615" fill="#2ED1C7"/>
<path d="M15.9443 339.806C15.9443 337.092 18.1442 334.892 20.8579 334.892C23.5716 334.892 25.7715 337.092 25.7715 339.806V344.719H15.9443V339.806Z" fill="#2ED1C7"/>
<circle cx="137.744" cy="328.754" r="4.99615" fill="#2ED1C7"/>
<path d="M132.748 339.806C132.748 337.093 134.948 334.893 137.662 334.893C140.375 334.893 142.575 337.093 142.575 339.806V344.72H132.748V339.806Z" fill="#2ED1C7"/>
<circle cx="254.551" cy="328.754" r="4.99615" fill="#2ED1C7"/>
<path d="M249.555 339.806C249.555 337.092 251.755 334.892 254.468 334.892C257.182 334.892 259.382 337.092 259.382 339.806V344.719H249.555V339.806Z" fill="#2ED1C7"/>
<circle cx="79.3428" cy="328.754" r="4.99615" fill="#2ED1C7"/>
<path d="M74.3467 339.806C74.3467 337.092 76.5466 334.892 79.2603 334.892C81.974 334.892 84.1739 337.092 84.1739 339.806V344.719H74.3467V339.806Z" fill="#2ED1C7"/>
<circle cx="196.15" cy="328.754" r="4.99615" fill="#2ED1C7"/>
<path d="M191.152 339.806C191.152 337.092 193.352 334.892 196.066 334.892C198.78 334.892 200.98 337.092 200.98 339.806V344.719H191.152V339.806Z" fill="#2ED1C7"/>
<circle cx="6.09381" cy="328.754" r="4.99615" fill="#00B7B7"/>
<path d="M6.33974 334.895L12.0135 344.722H0.666016L6.33974 334.895Z" fill="#00B7B7"/>
<rect x="3.71875" y="334.895" width="5.24117" height="1.31029" fill="#00B7B7"/>
<circle cx="122.898" cy="328.754" r="4.99615" fill="#00B7B7"/>
<path d="M123.144 334.895L128.818 344.722H117.471L123.144 334.895Z" fill="#00B7B7"/>
<rect x="120.523" y="334.895" width="5.24117" height="1.31029" fill="#00B7B7"/>
<circle cx="239.704" cy="328.754" r="4.99615" fill="#00B7B7"/>
<path d="M239.95 334.895L245.624 344.722H234.276L239.95 334.895Z" fill="#00B7B7"/>
<rect x="237.329" y="334.895" width="5.24117" height="1.31029" fill="#00B7B7"/>
<circle cx="64.4952" cy="328.754" r="4.99615" fill="#00B7B7"/>
<path d="M64.7411 334.895L70.4148 344.722H59.0674L64.7411 334.895Z" fill="#00B7B7"/>
<rect x="62.1201" y="334.895" width="5.24117" height="1.31029" fill="#00B7B7"/>
<circle cx="181.302" cy="328.754" r="4.99615" fill="#00B7B7"/>
<path d="M181.548 334.895L187.221 344.722H175.874L181.548 334.895Z" fill="#00B7B7"/>
<rect x="178.927" y="334.895" width="5.24117" height="1.31029" fill="#00B7B7"/>
<circle cx="35.296" cy="328.754" r="4.99615" fill="#00B7B7"/>
<path d="M35.5419 334.895L41.2156 344.722H29.8682L35.5419 334.895Z" fill="#00B7B7"/>
<rect x="32.9209" y="334.895" width="5.24117" height="1.31029" fill="#00B7B7"/>
<circle cx="152.102" cy="328.754" r="4.99615" fill="#00B7B7"/>
<path d="M152.348 334.895L158.021 344.722H146.674L152.348 334.895Z" fill="#00B7B7"/>
<rect x="149.727" y="334.895" width="5.24117" height="1.31029" fill="#00B7B7"/>
<circle cx="268.906" cy="328.754" r="4.99615" fill="#00B7B7"/>
<path d="M269.152 334.895L274.826 344.722H263.479L269.152 334.895Z" fill="#00B7B7"/>
<rect x="266.531" y="334.895" width="5.24117" height="1.31029" fill="#00B7B7"/>
<circle cx="93.6983" cy="328.754" r="4.99615" fill="#00B7B7"/>
<path d="M93.9442 334.895L99.618 344.722H88.2705L93.9442 334.895Z" fill="#00B7B7"/>
<rect x="91.3232" y="334.895" width="5.24117" height="1.31029" fill="#00B7B7"/>
<circle cx="210.504" cy="328.754" r="4.99615" fill="#00B7B7"/>
<path d="M210.75 334.895L216.424 344.722H205.076L210.75 334.895Z" fill="#00B7B7"/>
<rect x="208.129" y="334.895" width="5.24117" height="1.31029" fill="#00B7B7"/>
<circle cx="78.6768" cy="198" r="4.99615" fill="#2ED1C7"/>
<path d="M73.6807 209.055C73.6807 206.341 75.8806 204.141 78.5943 204.141C81.308 204.141 83.5078 206.341 83.5078 209.055V213.968H73.6807V209.055Z" fill="#2ED1C7"/>
<circle cx="137.079" cy="198" r="4.99615" fill="#2ED1C7"/>
<path d="M132.083 209.055C132.083 206.341 134.283 204.141 136.997 204.141C139.71 204.141 141.91 206.341 141.91 209.055V213.968H132.083V209.055Z" fill="#2ED1C7"/>
<circle cx="224.685" cy="198" r="4.99615" fill="#2ED1C7"/>
<path d="M219.688 209.055C219.688 206.341 221.887 204.141 224.601 204.141C227.315 204.141 229.515 206.341 229.515 209.055V213.968H219.688V209.055Z" fill="#2ED1C7"/>
<circle cx="107.878" cy="198" r="4.99615" fill="#2ED1C7"/>
<path d="M102.882 209.055C102.882 206.341 105.082 204.141 107.795 204.141C110.509 204.141 112.709 206.341 112.709 209.055V213.968H102.882V209.055Z" fill="#2ED1C7"/>
<circle cx="195.482" cy="198" r="4.99615" fill="#2ED1C7"/>
<path d="M190.486 209.055C190.486 206.341 192.686 204.141 195.4 204.141C198.114 204.141 200.314 206.341 200.314 209.055V213.968H190.486V209.055Z" fill="#2ED1C7"/>
<circle cx="49.4776" cy="198" r="4.99615" fill="#2ED1C7"/>
<path d="M44.4805 209.055C44.4805 206.341 46.6804 204.141 49.3941 204.141C52.1078 204.141 54.3077 206.341 54.3077 209.055V213.968H44.4805V209.055Z" fill="#2ED1C7"/>
<circle cx="20.2754" cy="198" r="4.99615" fill="#2ED1C7"/>
<path d="M15.2783 209.055C15.2783 206.341 17.4782 204.141 20.1919 204.141C22.9056 204.141 25.1055 206.341 25.1055 209.055V213.968H15.2783V209.055Z" fill="#2ED1C7"/>
<circle cx="166.281" cy="198" r="4.99615" fill="#2ED1C7"/>
<path d="M161.285 209.055C161.285 206.341 163.485 204.141 166.199 204.141C168.912 204.141 171.112 206.341 171.112 209.055V213.968H161.285V209.055Z" fill="#2ED1C7"/>
<circle cx="253.887" cy="198" r="4.99615" fill="#2ED1C7"/>
<path d="M248.89 209.055C248.89 206.341 251.09 204.141 253.803 204.141C256.517 204.141 258.717 206.341 258.717 209.055V213.968H248.89V209.055Z" fill="#2ED1C7"/>
<circle cx="283.005" cy="198" r="4.99615" fill="#2ED1C7"/>
<path d="M278.008 209.055C278.008 206.341 280.208 204.141 282.921 204.141C285.635 204.141 287.835 206.341 287.835 209.055V213.968H278.008V209.055Z" fill="#2ED1C7"/>
<circle cx="93.0303" cy="198" r="4.99615" fill="#00B7B7"/>
<path d="M93.2763 204.141L98.95 213.968H87.6025L93.2763 204.141Z" fill="#00B7B7"/>
<rect x="90.6553" y="204.141" width="5.24117" height="1.31029" fill="#00B7B7"/>
<circle cx="5.42779" cy="198.001" r="4.99615" fill="#00B7B7"/>
<path d="M5.67373 204.141L11.3475 213.969H0L5.67373 204.141Z" fill="#00B7B7"/>
<rect x="3.05273" y="204.141" width="5.24117" height="1.31029" fill="#00B7B7"/>
<circle cx="151.435" cy="198" r="4.99615" fill="#00B7B7"/>
<path d="M151.681 204.141L157.354 213.968H146.007L151.681 204.141Z" fill="#00B7B7"/>
<rect x="149.06" y="204.141" width="5.24117" height="1.31029" fill="#00B7B7"/>
<circle cx="239.039" cy="198" r="4.99615" fill="#00B7B7"/>
<path d="M239.285 204.141L244.959 213.968H233.611L239.285 204.141Z" fill="#00B7B7"/>
<rect x="236.664" y="204.141" width="5.24117" height="1.31029" fill="#00B7B7"/>
<circle cx="268.323" cy="198" r="4.99615" fill="#00B7B7"/>
<path d="M268.569 204.141L274.243 213.968H262.896L268.569 204.141Z" fill="#00B7B7"/>
<rect x="265.948" y="204.141" width="5.24117" height="1.31029" fill="#00B7B7"/>
<circle cx="122.232" cy="198" r="4.99615" fill="#00B7B7"/>
<path d="M122.478 204.141L128.152 213.968H116.805L122.478 204.141Z" fill="#00B7B7"/>
<rect x="119.857" y="204.141" width="5.24117" height="1.31029" fill="#00B7B7"/>
<circle cx="209.837" cy="198" r="4.99615" fill="#00B7B7"/>
<path d="M210.083 204.141L215.757 213.968H204.409L210.083 204.141Z" fill="#00B7B7"/>
<rect x="207.462" y="204.141" width="5.24117" height="1.31029" fill="#00B7B7"/>
<circle cx="63.8301" cy="198" r="4.99615" fill="#00B7B7"/>
<path d="M64.0761 204.141L69.7498 213.968H58.4023L64.0761 204.141Z" fill="#00B7B7"/>
<rect x="61.4551" y="204.141" width="5.24117" height="1.31029" fill="#00B7B7"/>
<circle cx="34.628" cy="198" r="4.99615" fill="#00B7B7"/>
<path d="M34.8739 204.141L40.5477 213.968H29.2002L34.8739 204.141Z" fill="#00B7B7"/>
<rect x="32.2529" y="204.141" width="5.24117" height="1.31029" fill="#00B7B7"/>
<circle cx="180.636" cy="198" r="4.99615" fill="#00B7B7"/>
<path d="M180.882 204.141L186.555 213.968H175.208L180.882 204.141Z" fill="#00B7B7"/>
<rect x="178.261" y="204.141" width="5.24117" height="1.31029" fill="#00B7B7"/>
<circle cx="108.545" cy="394.27" r="4.99615" fill="#2ED1C7"/>
<path d="M103.548 405.324C103.548 402.611 105.748 400.411 108.461 400.411C111.175 400.411 113.375 402.611 113.375 405.324V410.238H103.548V405.324Z" fill="#2ED1C7"/>
<circle cx="225.351" cy="394.27" r="4.99615" fill="#2ED1C7"/>
<path d="M220.354 405.324C220.354 402.611 222.553 400.411 225.267 400.411C227.981 400.411 230.181 402.611 230.181 405.324V410.238H220.354V405.324Z" fill="#2ED1C7"/>
<circle cx="50.1417" cy="394.27" r="4.99615" fill="#2ED1C7"/>
<path d="M45.1455 405.324C45.1455 402.611 47.3454 400.411 50.0591 400.411C52.7728 400.411 54.9727 402.611 54.9727 405.324V410.238H45.1455V405.324Z" fill="#2ED1C7"/>
<circle cx="166.948" cy="394.27" r="4.99615" fill="#2ED1C7"/>
<path d="M161.951 405.324C161.951 402.611 164.151 400.411 166.865 400.411C169.578 400.411 171.778 402.611 171.778 405.324V410.238H161.951V405.324Z" fill="#2ED1C7"/>
<circle cx="283.752" cy="394.27" r="4.99615" fill="#2ED1C7"/>
<path d="M278.756 405.324C278.756 402.611 280.956 400.411 283.669 400.411C286.383 400.411 288.583 402.611 288.583 405.324V410.238H278.756V405.324Z" fill="#2ED1C7"/>
<circle cx="20.9424" cy="394.27" r="4.99615" fill="#2ED1C7"/>
<path d="M15.9443 405.324C15.9443 402.611 18.1442 400.411 20.8579 400.411C23.5716 400.411 25.7715 402.611 25.7715 405.324V410.238H15.9443V405.324Z" fill="#2ED1C7"/>
<circle cx="137.744" cy="394.27" r="4.99615" fill="#2ED1C7"/>
<path d="M132.748 405.324C132.748 402.611 134.948 400.411 137.662 400.411C140.375 400.411 142.575 402.611 142.575 405.324V410.238H132.748V405.324Z" fill="#2ED1C7"/>
<circle cx="254.551" cy="394.27" r="4.99615" fill="#2ED1C7"/>
<path d="M249.555 405.324C249.555 402.611 251.755 400.411 254.468 400.411C257.182 400.411 259.382 402.611 259.382 405.324V410.238H249.555V405.324Z" fill="#2ED1C7"/>
<circle cx="79.3448" cy="394.27" r="4.99615" fill="#2ED1C7"/>
<path d="M74.3477 405.324C74.3477 402.611 76.5475 400.411 79.2612 400.411C81.9749 400.411 84.1748 402.611 84.1748 405.324V410.238H74.3477V405.324Z" fill="#2ED1C7"/>
<circle cx="196.148" cy="394.27" r="4.99615" fill="#2ED1C7"/>
<path d="M191.152 405.324C191.152 402.611 193.352 400.411 196.066 400.411C198.78 400.411 200.98 402.611 200.98 405.324V410.238H191.152V405.324Z" fill="#2ED1C7"/>
<circle cx="6.09381" cy="394.27" r="4.99615" fill="#00B7B7"/>
<path d="M6.33974 400.41L12.0135 410.237H0.666016L6.33974 400.41Z" fill="#00B7B7"/>
<rect x="3.71875" y="400.41" width="5.24117" height="1.31029" fill="#00B7B7"/>
<circle cx="122.898" cy="394.27" r="4.99615" fill="#00B7B7"/>
<path d="M123.144 400.411L128.818 410.238H117.471L123.144 400.411Z" fill="#00B7B7"/>
<rect x="120.523" y="400.411" width="5.24117" height="1.31029" fill="#00B7B7"/>
<circle cx="239.705" cy="394.27" r="4.99615" fill="#00B7B7"/>
<path d="M239.951 400.411L245.625 410.238H234.277L239.951 400.411Z" fill="#00B7B7"/>
<rect x="237.33" y="400.411" width="5.24117" height="1.31029" fill="#00B7B7"/>
<circle cx="64.4952" cy="394.27" r="4.99615" fill="#00B7B7"/>
<path d="M64.7411 400.411L70.4148 410.238H59.0674L64.7411 400.411Z" fill="#00B7B7"/>
<rect x="62.1201" y="400.411" width="5.24117" height="1.31029" fill="#00B7B7"/>
<circle cx="181.303" cy="394.27" r="4.99615" fill="#00B7B7"/>
<path d="M181.549 400.411L187.222 410.238H175.875L181.549 400.411Z" fill="#00B7B7"/>
<rect x="178.928" y="400.411" width="5.24117" height="1.31029" fill="#00B7B7"/>
<circle cx="35.295" cy="394.27" r="4.99615" fill="#00B7B7"/>
<path d="M35.5409 400.411L41.2146 410.238H29.8672L35.5409 400.411Z" fill="#00B7B7"/>
<rect x="32.9199" y="400.411" width="5.24117" height="1.31029" fill="#00B7B7"/>
<circle cx="152.101" cy="394.27" r="4.99615" fill="#00B7B7"/>
<path d="M152.347 400.411L158.02 410.238H146.673L152.347 400.411Z" fill="#00B7B7"/>
<rect x="149.726" y="400.411" width="5.24117" height="1.31029" fill="#00B7B7"/>
<circle cx="268.906" cy="394.27" r="4.99615" fill="#00B7B7"/>
<path d="M269.152 400.411L274.826 410.238H263.479L269.152 400.411Z" fill="#00B7B7"/>
<rect x="266.531" y="400.411" width="5.24117" height="1.31029" fill="#00B7B7"/>
<circle cx="93.6973" cy="394.27" r="4.99615" fill="#00B7B7"/>
<path d="M93.9433 400.411L99.617 410.238H88.2695L93.9433 400.411Z" fill="#00B7B7"/>
<rect x="91.3223" y="400.411" width="5.24117" height="1.31029" fill="#00B7B7"/>
<circle cx="210.504" cy="394.27" r="4.99615" fill="#00B7B7"/>
<path d="M210.75 400.411L216.424 410.238H205.076L210.75 400.411Z" fill="#00B7B7"/>
<rect x="208.129" y="400.411" width="5.24117" height="1.31029" fill="#00B7B7"/>
<circle cx="80.6768" cy="133.996" r="4.99615" fill="#2ED1C7"/>
<path d="M75.6797 145.051C75.6797 142.337 77.8796 140.137 80.5933 140.137C83.307 140.137 85.5069 142.337 85.5069 145.051V149.964H75.6797V145.051Z" fill="#2ED1C7"/>
<circle cx="139.078" cy="133.996" r="4.99615" fill="#2ED1C7"/>
<path d="M134.082 145.051C134.082 142.337 136.282 140.137 138.996 140.137C141.709 140.137 143.909 142.337 143.909 145.051V149.964H134.082V145.051Z" fill="#2ED1C7"/>
<circle cx="226.686" cy="133.996" r="4.99615" fill="#2ED1C7"/>
<path d="M221.688 145.051C221.688 142.337 223.888 140.137 226.602 140.137C229.316 140.137 231.516 142.337 231.516 145.051V149.964H221.688V145.051Z" fill="#2ED1C7"/>
<circle cx="109.878" cy="133.996" r="4.99615" fill="#2ED1C7"/>
<path d="M104.881 145.051C104.881 142.337 107.081 140.137 109.794 140.137C112.508 140.137 114.708 142.337 114.708 145.051V149.964H104.881V145.051Z" fill="#2ED1C7"/>
<circle cx="197.482" cy="133.996" r="4.99615" fill="#2ED1C7"/>
<path d="M192.486 145.051C192.486 142.337 194.686 140.137 197.4 140.137C200.114 140.137 202.314 142.337 202.314 145.051V149.964H192.486V145.051Z" fill="#2ED1C7"/>
<circle cx="51.4747" cy="133.996" r="4.99615" fill="#2ED1C7"/>
<path d="M46.4785 145.051C46.4785 142.337 48.6784 140.137 51.3921 140.137C54.1058 140.137 56.3057 142.337 56.3057 145.051V149.964H46.4785V145.051Z" fill="#2ED1C7"/>
<circle cx="22.2754" cy="133.996" r="4.99615" fill="#2ED1C7"/>
<path d="M17.2783 145.051C17.2783 142.337 19.4782 140.137 22.1919 140.137C24.9056 140.137 27.1055 142.337 27.1055 145.051V149.964H17.2783V145.051Z" fill="#2ED1C7"/>
<circle cx="168.281" cy="133.996" r="4.99615" fill="#2ED1C7"/>
<path d="M163.285 145.051C163.285 142.337 165.485 140.137 168.199 140.137C170.912 140.137 173.112 142.337 173.112 145.051V149.964H163.285V145.051Z" fill="#2ED1C7"/>
<circle cx="255.887" cy="133.996" r="4.99615" fill="#2ED1C7"/>
<path d="M250.89 145.051C250.89 142.337 253.09 140.137 255.803 140.137C258.517 140.137 260.717 142.337 260.717 145.051V149.964H250.89V145.051Z" fill="#2ED1C7"/>
<circle cx="285.004" cy="133.996" r="4.99615" fill="#2ED1C7"/>
<path d="M280.007 145.051C280.007 142.337 282.207 140.137 284.92 140.137C287.634 140.137 289.834 142.337 289.834 145.051V149.964H280.007V145.051Z" fill="#2ED1C7"/>
<circle cx="95.0333" cy="133.996" r="4.99615" fill="#00B7B7"/>
<path d="M95.2782 140.137L100.952 149.964H89.6045L95.2782 140.137Z" fill="#00B7B7"/>
<rect x="92.6572" y="140.137" width="5.24117" height="1.31029" fill="#00B7B7"/>
<circle cx="7.42779" cy="133.996" r="4.99615" fill="#00B7B7"/>
<path d="M7.67373 140.137L13.3475 149.964H2L7.67373 140.137Z" fill="#00B7B7"/>
<rect x="5.05273" y="140.137" width="5.24117" height="1.31029" fill="#00B7B7"/>
<circle cx="153.436" cy="133.996" r="4.99615" fill="#00B7B7"/>
<path d="M153.682 140.137L159.355 149.964H148.008L153.682 140.137Z" fill="#00B7B7"/>
<rect x="151.061" y="140.137" width="5.24117" height="1.31029" fill="#00B7B7"/>
<circle cx="241.038" cy="133.996" r="4.99615" fill="#00B7B7"/>
<path d="M241.284 140.137L246.958 149.964H235.61L241.284 140.137Z" fill="#00B7B7"/>
<rect x="238.663" y="140.137" width="5.24117" height="1.31029" fill="#00B7B7"/>
<circle cx="270.324" cy="133.996" r="4.99615" fill="#00B7B7"/>
<path d="M270.57 140.137L276.244 149.964H264.896L270.57 140.137Z" fill="#00B7B7"/>
<rect x="267.949" y="140.137" width="5.24117" height="1.31029" fill="#00B7B7"/>
<circle cx="124.232" cy="133.996" r="4.99615" fill="#00B7B7"/>
<path d="M124.478 140.137L130.152 149.964H118.805L124.478 140.137Z" fill="#00B7B7"/>
<rect x="121.857" y="140.137" width="5.24117" height="1.31029" fill="#00B7B7"/>
<circle cx="211.837" cy="133.996" r="4.99615" fill="#00B7B7"/>
<path d="M212.083 140.137L217.757 149.964H206.409L212.083 140.137Z" fill="#00B7B7"/>
<rect x="209.462" y="140.137" width="5.24117" height="1.31029" fill="#00B7B7"/>
<circle cx="65.8301" cy="133.996" r="4.99615" fill="#00B7B7"/>
<path d="M66.0761 140.137L71.7498 149.964H60.4023L66.0761 140.137Z" fill="#00B7B7"/>
<rect x="63.4551" y="140.137" width="5.24117" height="1.31029" fill="#00B7B7"/>
<circle cx="36.6299" cy="133.996" r="4.99615" fill="#00B7B7"/>
<path d="M36.8759 140.137L42.5496 149.964H31.2021L36.8759 140.137Z" fill="#00B7B7"/>
<rect x="34.2549" y="140.137" width="5.24117" height="1.31029" fill="#00B7B7"/>
<circle cx="182.637" cy="133.996" r="4.99615" fill="#00B7B7"/>
<path d="M182.883 140.137L188.556 149.964H177.209L182.883 140.137Z" fill="#00B7B7"/>
<rect x="180.262" y="140.137" width="5.24117" height="1.31029" fill="#00B7B7"/>
<rect x="0.666016" y="457.008" width="287.34" height="8.00019" fill="#00234D"/>
<rect x="178" y="38.5117" width="120" height="52.5373" rx="26.2687" fill="white"/>
<path d="M211.398 77V73.94C215.198 70.84 217.828 68.43 219.288 66.71C220.748 64.97 221.478 63.4 221.478 62C221.478 61.14 221.248 60.43 220.788 59.87C220.328 59.29 219.638 59 218.718 59C217.538 59 216.638 59.45 216.018 60.35C215.418 61.25 215.098 62.45 215.058 63.95L211.038 62.81C211.258 60.53 212.028 58.71 213.348 57.35C214.668 55.99 216.508 55.31 218.868 55.31C221.128 55.31 222.888 55.93 224.148 57.17C225.408 58.39 226.038 59.89 226.038 61.67C226.038 65.03 223.298 68.79 217.818 72.95H226.068V77H211.398ZM243.356 74.6C241.936 76.46 239.806 77.39 236.966 77.39C234.126 77.39 231.996 76.46 230.576 74.6C229.156 72.74 228.446 70.06 228.446 66.56C228.446 63.02 229.166 60.26 230.606 58.28C232.046 56.3 234.166 55.31 236.966 55.31C239.786 55.31 241.906 56.31 243.326 58.31C244.766 60.29 245.486 63.04 245.486 66.56C245.486 70.06 244.776 72.74 243.356 74.6ZM236.966 73.64C238.326 73.64 239.326 73.09 239.966 71.99C240.606 70.87 240.926 69.05 240.926 66.53C240.926 61.55 239.606 59.06 236.966 59.06C234.326 59.06 233.006 61.53 233.006 66.47C233.006 69.01 233.316 70.84 233.936 71.96C234.576 73.08 235.586 73.64 236.966 73.64ZM262.604 74.6C261.184 76.46 259.054 77.39 256.214 77.39C253.374 77.39 251.244 76.46 249.824 74.6C248.404 72.74 247.694 70.06 247.694 66.56C247.694 63.02 248.414 60.26 249.854 58.28C251.294 56.3 253.414 55.31 256.214 55.31C259.034 55.31 261.154 56.31 262.574 58.31C264.014 60.29 264.734 63.04 264.734 66.56C264.734 70.06 264.024 72.74 262.604 74.6ZM256.214 73.64C257.574 73.64 258.574 73.09 259.214 71.99C259.854 70.87 260.174 69.05 260.174 66.53C260.174 61.55 258.854 59.06 256.214 59.06C253.574 59.06 252.254 61.53 252.254 66.47C252.254 69.01 252.564 70.84 253.184 71.96C253.824 73.08 254.834 73.64 256.214 73.64Z" fill="black"/>
<rect x="292.818" y="82" width="2.71954" height="6.11896" rx="1.35977" fill="#2ED1C7"/>
<rect x="292.818" y="94.2379" width="2.71954" height="6.11896" rx="1.35977" fill="#2ED1C7"/>
<rect x="285" y="92.5381" width="2.71954" height="6.11896" rx="1.35977" transform="rotate(-90 285 92.5381)" fill="#2ED1C7"/>
<rect x="297.238" y="92.5381" width="2.71954" height="6.11896" rx="1.35977" transform="rotate(-90 297.238 92.5381)" fill="#2ED1C7"/>
<rect x="176.818" width="2.71954" height="6.11896" rx="1.35977" fill="#2ED1C7"/>
<rect x="176.818" y="12.2379" width="2.71954" height="6.11896" rx="1.35977" fill="#2ED1C7"/>
<rect x="169" y="10.5381" width="2.71954" height="6.11896" rx="1.35977" transform="rotate(-90 169 10.5381)" fill="#2ED1C7"/>
<rect x="181.238" y="10.5381" width="2.71954" height="6.11896" rx="1.35977" transform="rotate(-90 181.238 10.5381)" fill="#2ED1C7"/>
<path fill-rule="evenodd" clip-rule="evenodd" d="M158 45.3333C159.289 45.3333 160.333 44.2887 160.333 43C160.333 41.7113 159.289 40.6667 158 40.6667C156.711 40.6667 155.667 41.7113 155.667 43C155.667 44.2887 156.711 45.3333 158 45.3333ZM158 48C160.761 48 163 45.7614 163 43C163 40.2386 160.761 38 158 38C155.239 38 153 40.2386 153 43C153 45.7614 155.239 48 158 48Z" fill="#2ED1C7"/>
</svg>
