<svg width="580" height="705" viewBox="0 0 580 705" fill="none" xmlns="http://www.w3.org/2000/svg">
<path fill-rule="evenodd" clip-rule="evenodd" d="M385.529 580.001C385.633 546.845 412.543 520 445.722 520C478.902 520 505.811 546.845 505.915 580.001L385.529 580.001Z" fill="white"/>
<path fill-rule="evenodd" clip-rule="evenodd" d="M347 580.001C347.052 563.896 360.123 550.857 376.24 550.857C392.357 550.857 405.428 563.896 405.481 580.001L347 580.001Z" fill="white"/>
<path fill-rule="evenodd" clip-rule="evenodd" d="M504.008 580.001C504.04 569.672 512.423 561.308 522.76 561.308C533.096 561.308 541.48 569.672 541.512 580.001L504.008 580.001Z" fill="white"/>
<path fill-rule="evenodd" clip-rule="evenodd" d="M390.15 354.594C390.19 341.557 400.771 331 413.818 331C426.865 331 437.446 341.557 437.486 354.594L390.15 354.594Z" fill="white"/>
<path fill-rule="evenodd" clip-rule="evenodd" d="M375 354.594C375.021 348.262 380.161 343.136 386.498 343.136C392.834 343.136 397.974 348.262 397.995 354.594L375 354.594Z" fill="white"/>
<path fill-rule="evenodd" clip-rule="evenodd" d="M436.736 354.594C436.749 350.533 440.045 347.244 444.109 347.244C448.173 347.244 451.47 350.533 451.483 354.594L436.736 354.594Z" fill="white"/>
<path fill-rule="evenodd" clip-rule="evenodd" d="M56.9487 282.409C57.0186 260.08 75.1416 242 97.4873 242C119.833 242 137.956 260.08 138.026 282.409L56.9487 282.409Z" fill="white"/>
<path fill-rule="evenodd" clip-rule="evenodd" d="M31 282.409C31.0352 271.563 39.8385 262.781 50.6929 262.781C61.5472 262.781 70.3505 271.563 70.3857 282.409L31 282.409Z" fill="white"/>
<path fill-rule="evenodd" clip-rule="evenodd" d="M136.742 282.41C136.763 275.454 142.409 269.821 149.371 269.821C156.332 269.821 161.978 275.454 162 282.41L136.742 282.41Z" fill="white"/>
<line x1="416" y1="184" x2="416" y2="681" stroke="#00234D" stroke-width="2"/>
<line x1="383.707" y1="183.293" x2="415.527" y2="215.113" stroke="#00234D" stroke-width="2"/>
<line x1="488.707" y1="212.113" x2="507.707" y2="231.113" stroke="#00234D" stroke-width="2"/>
<line y1="-1" x2="45" y2="-1" transform="matrix(-0.707107 0.707107 0.707107 0.707107 540.82 214)" stroke="#00234D" stroke-width="2"/>
<line x1="415" y1="299" x2="507" y2="299" stroke="#00234D" stroke-width="2"/>
<line x1="508" y1="214" x2="508" y2="300" stroke="#00234D" stroke-width="2"/>
<line y1="-1" x2="26.8701" y2="-1" transform="matrix(-0.707107 0.707107 0.707107 0.707107 90.8203 431.07)" stroke="#00234D" stroke-width="2"/>
<line x1="38.7071" y1="431.543" x2="70.5269" y2="463.363" stroke="#00234D" stroke-width="2"/>
<line y1="-1" x2="92" y2="-1" transform="matrix(-1 0 0 1 163.82 518.25)" stroke="#00234D" stroke-width="2"/>
<line y1="-1" x2="86" y2="-1" transform="matrix(4.37114e-08 1 1 -4.37114e-08 71.8203 432.25)" stroke="#00234D" stroke-width="2"/>
<path fill-rule="evenodd" clip-rule="evenodd" d="M524.001 184C524 123.802 475.199 75.002 415 75.002C354.802 75.002 306.001 123.802 306 184L524.001 184Z" fill="#12AAA1"/>
<circle cx="498" cy="133" r="3" fill="#2ED1C7"/>
<circle cx="473" cy="115" r="3" fill="#2ED1C7"/>
<circle cx="485" cy="121" r="3" fill="#2ED1C7"/>
<circle cx="467" cy="103" r="3" fill="#2ED1C7"/>
<circle cx="454" cy="109" r="3" fill="#2ED1C7"/>
<circle cx="425" cy="91.0001" r="3" fill="#2ED1C7"/>
<circle cx="476" cy="136" r="3" fill="#2ED1C7"/>
<circle cx="451" cy="97.0001" r="3" fill="#2ED1C7"/>
<path fill-rule="evenodd" clip-rule="evenodd" d="M135.001 433.5C135 396.221 104.78 366 67.5004 366C30.2212 366 0.00034472 396.221 0 433.5L135.001 433.5Z" fill="#12AAA1"/>
<circle cx="118.899" cy="401.916" r="1.8578" fill="#2ED1C7"/>
<circle cx="103.418" cy="390.769" r="1.8578" fill="#2ED1C7"/>
<circle cx="110.849" cy="394.485" r="1.8578" fill="#2ED1C7"/>
<circle cx="99.702" cy="383.338" r="1.8578" fill="#2ED1C7"/>
<circle cx="91.6517" cy="387.054" r="1.8578" fill="#2ED1C7"/>
<circle cx="73.6928" cy="375.907" r="1.8578" fill="#2ED1C7"/>
<circle cx="105.275" cy="403.774" r="1.8578" fill="#2ED1C7"/>
<circle cx="89.7938" cy="379.623" r="1.8578" fill="#2ED1C7"/>
<rect x="121" y="299" width="266" height="249" fill="#2ED1C7"/>
<path d="M229 345C229 331.193 240.193 320 254 320C267.807 320 279 331.193 279 345V402H229V345Z" fill="#14B8AE"/>
<path fill-rule="evenodd" clip-rule="evenodd" d="M254 320C240.193 320 229 331.193 229 345V402H247V354C247 340.193 258.193 329 272 329C272.414 329 272.826 329.01 273.235 329.03C268.649 323.513 261.735 320 254 320Z" fill="#12AAA1"/>
<line x1="228" y1="342.5" x2="280" y2="342.5" stroke="#2ED1C7"/>
<line x1="254.5" y1="318" x2="254.5" y2="343" stroke="#2ED1C7"/>
<line x1="225" y1="374.5" x2="283" y2="374.5" stroke="white" stroke-width="3"/>
<line x1="228.5" y1="402" x2="228.5" y2="374" stroke="white"/>
<line x1="231.5" y1="402" x2="231.5" y2="374" stroke="white"/>
<line x1="234.5" y1="402" x2="234.5" y2="374" stroke="white"/>
<line x1="237.5" y1="402" x2="237.5" y2="374" stroke="white"/>
<line x1="240.5" y1="402" x2="240.5" y2="374" stroke="white"/>
<line x1="243.5" y1="402" x2="243.5" y2="374" stroke="white"/>
<line x1="246.5" y1="402" x2="246.5" y2="374" stroke="white"/>
<line x1="249.5" y1="402" x2="249.5" y2="374" stroke="white"/>
<line x1="252.5" y1="402" x2="252.5" y2="374" stroke="white"/>
<line x1="228" y1="401.5" x2="280" y2="401.5" stroke="white"/>
<line x1="255.5" y1="402" x2="255.5" y2="374" stroke="white"/>
<line x1="258.5" y1="402" x2="258.5" y2="374" stroke="white"/>
<line x1="261.5" y1="402" x2="261.5" y2="374" stroke="white"/>
<line x1="264.5" y1="402" x2="264.5" y2="374" stroke="white"/>
<line x1="267.5" y1="402" x2="267.5" y2="374" stroke="white"/>
<line x1="270.5" y1="402" x2="270.5" y2="374" stroke="white"/>
<line x1="273.5" y1="402" x2="273.5" y2="374" stroke="white"/>
<line x1="276.5" y1="402" x2="276.5" y2="374" stroke="white"/>
<line x1="279.5" y1="402" x2="279.5" y2="374" stroke="white"/>
<path d="M287 345C287 340.666 286.146 336.375 284.488 332.371C282.83 328.368 280.399 324.73 277.335 321.665C274.27 318.601 270.632 316.17 266.629 314.512C262.625 312.854 258.334 312 254 312C249.666 312 245.375 312.854 241.371 314.512C237.368 316.17 233.73 318.601 230.665 321.665C227.601 324.73 225.17 328.368 223.512 332.371C221.854 336.375 221 340.666 221 345H229.286C229.286 341.755 229.925 338.541 231.167 335.542C232.409 332.544 234.23 329.82 236.525 327.525C238.82 325.23 241.544 323.409 244.542 322.167C247.541 320.925 250.755 320.286 254 320.286C257.245 320.286 260.459 320.925 263.458 322.167C266.456 323.409 269.18 325.23 271.475 327.525C273.77 329.82 275.591 332.544 276.833 335.542C278.075 338.541 278.714 341.755 278.714 345H287Z" fill="#6ADED7"/>
<path d="M303 345C303 331.193 314.193 320 328 320C341.807 320 353 331.193 353 345V402H303V345Z" fill="#14B8AE"/>
<path fill-rule="evenodd" clip-rule="evenodd" d="M328 320C314.193 320 303 331.193 303 345V402H321V354C321 340.193 332.193 329 346 329C346.414 329 346.826 329.01 347.235 329.03C342.649 323.513 335.735 320 328 320Z" fill="#12AAA1"/>
<line x1="302" y1="342.5" x2="354" y2="342.5" stroke="#2ED1C7"/>
<line x1="328.5" y1="318" x2="328.5" y2="343" stroke="#2ED1C7"/>
<line x1="299" y1="374.5" x2="357" y2="374.5" stroke="white" stroke-width="3"/>
<line x1="302.5" y1="402" x2="302.5" y2="374" stroke="white"/>
<line x1="305.5" y1="402" x2="305.5" y2="374" stroke="white"/>
<line x1="308.5" y1="402" x2="308.5" y2="374" stroke="white"/>
<line x1="311.5" y1="402" x2="311.5" y2="374" stroke="white"/>
<line x1="314.5" y1="402" x2="314.5" y2="374" stroke="white"/>
<line x1="317.5" y1="402" x2="317.5" y2="374" stroke="white"/>
<line x1="320.5" y1="402" x2="320.5" y2="374" stroke="white"/>
<line x1="323.5" y1="402" x2="323.5" y2="374" stroke="white"/>
<line x1="326.5" y1="402" x2="326.5" y2="374" stroke="white"/>
<line x1="302" y1="401.5" x2="354" y2="401.5" stroke="white"/>
<line x1="329.5" y1="402" x2="329.5" y2="374" stroke="white"/>
<line x1="332.5" y1="402" x2="332.5" y2="374" stroke="white"/>
<line x1="335.5" y1="402" x2="335.5" y2="374" stroke="white"/>
<line x1="338.5" y1="402" x2="338.5" y2="374" stroke="white"/>
<line x1="341.5" y1="402" x2="341.5" y2="374" stroke="white"/>
<line x1="344.5" y1="402" x2="344.5" y2="374" stroke="white"/>
<line x1="347.5" y1="402" x2="347.5" y2="374" stroke="white"/>
<line x1="350.5" y1="402" x2="350.5" y2="374" stroke="white"/>
<line x1="353.5" y1="402" x2="353.5" y2="374" stroke="white"/>
<path d="M361 345C361 340.666 360.146 336.375 358.488 332.371C356.83 328.368 354.399 324.73 351.335 321.665C348.27 318.601 344.632 316.17 340.629 314.512C336.625 312.854 332.334 312 328 312C323.666 312 319.375 312.854 315.371 314.512C311.368 316.17 307.73 318.601 304.665 321.665C301.601 324.73 299.17 328.368 297.512 332.371C295.854 336.375 295 340.666 295 345H303.286C303.286 341.755 303.925 338.541 305.167 335.542C306.409 332.544 308.23 329.82 310.525 327.525C312.82 325.23 315.544 323.409 318.542 322.167C321.541 320.925 324.755 320.286 328 320.286C331.245 320.286 334.459 320.925 337.458 322.167C340.456 323.409 343.18 325.23 345.475 327.525C347.77 329.82 349.591 332.544 350.833 335.542C352.075 338.541 352.714 341.755 352.714 345H361Z" fill="#6ADED7"/>
<path d="M155 345C155 331.193 166.193 320 180 320C193.807 320 205 331.193 205 345V402H155V345Z" fill="#14B8AE"/>
<path fill-rule="evenodd" clip-rule="evenodd" d="M180 320C166.193 320 155 331.193 155 345V402H173V354C173 340.193 184.193 329 198 329C198.414 329 198.826 329.01 199.235 329.03C194.649 323.513 187.735 320 180 320Z" fill="#12AAA1"/>
<line x1="154" y1="342.5" x2="206" y2="342.5" stroke="#2ED1C7"/>
<line x1="180.5" y1="318" x2="180.5" y2="343" stroke="#2ED1C7"/>
<line x1="151" y1="374.5" x2="209" y2="374.5" stroke="white" stroke-width="3"/>
<line x1="154.5" y1="402" x2="154.5" y2="374" stroke="white"/>
<line x1="157.5" y1="402" x2="157.5" y2="374" stroke="white"/>
<line x1="160.5" y1="402" x2="160.5" y2="374" stroke="white"/>
<line x1="163.5" y1="402" x2="163.5" y2="374" stroke="white"/>
<line x1="166.5" y1="402" x2="166.5" y2="374" stroke="white"/>
<line x1="169.5" y1="402" x2="169.5" y2="374" stroke="white"/>
<line x1="172.5" y1="402" x2="172.5" y2="374" stroke="white"/>
<line x1="175.5" y1="402" x2="175.5" y2="374" stroke="white"/>
<line x1="178.5" y1="402" x2="178.5" y2="374" stroke="white"/>
<line x1="154" y1="401.5" x2="206" y2="401.5" stroke="white"/>
<line x1="181.5" y1="402" x2="181.5" y2="374" stroke="white"/>
<line x1="184.5" y1="402" x2="184.5" y2="374" stroke="white"/>
<line x1="187.5" y1="402" x2="187.5" y2="374" stroke="white"/>
<line x1="190.5" y1="402" x2="190.5" y2="374" stroke="white"/>
<line x1="193.5" y1="402" x2="193.5" y2="374" stroke="white"/>
<line x1="196.5" y1="402" x2="196.5" y2="374" stroke="white"/>
<line x1="199.5" y1="402" x2="199.5" y2="374" stroke="white"/>
<line x1="202.5" y1="402" x2="202.5" y2="374" stroke="white"/>
<line x1="205.5" y1="402" x2="205.5" y2="374" stroke="white"/>
<path d="M213 345C213 340.666 212.146 336.375 210.488 332.371C208.83 328.368 206.399 324.73 203.335 321.665C200.27 318.601 196.632 316.17 192.629 314.512C188.625 312.854 184.334 312 180 312C175.666 312 171.375 312.854 167.371 314.512C163.368 316.17 159.73 318.601 156.665 321.665C153.601 324.73 151.17 328.368 149.512 332.371C147.854 336.375 147 340.666 147 345H155.286C155.286 341.755 155.925 338.541 157.167 335.542C158.409 332.544 160.23 329.82 162.525 327.525C164.82 325.23 167.544 323.409 170.542 322.167C173.541 320.925 176.755 320.286 180 320.286C183.245 320.286 186.459 320.925 189.458 322.167C192.456 323.409 195.18 325.23 197.475 327.525C199.77 329.82 201.591 332.544 202.833 335.542C204.075 338.541 204.714 341.755 204.714 345H213Z" fill="#6ADED7"/>
<path fill-rule="evenodd" clip-rule="evenodd" d="M579.003 215.001C579.003 175.236 546.767 143 507.002 143C467.236 143 435 175.236 435 215.001L579.003 215.001Z" fill="#2ED1C7"/>
<circle cx="565" cy="200.001" r="3" fill="#12AAA1"/>
<circle cx="550" cy="197.001" r="3" fill="#12AAA1"/>
<circle cx="532" cy="176.001" r="3" fill="#12AAA1"/>
<circle cx="553" cy="173.001" r="3" fill="#12AAA1"/>
<circle cx="541" cy="167.001" r="3" fill="#12AAA1"/>
<circle cx="559" cy="187.001" r="3" fill="#12AAA1"/>
<circle cx="542" cy="179.001" r="3" fill="#12AAA1"/>
<circle cx="522" cy="161.001" r="3" fill="#12AAA1"/>
<path fill-rule="evenodd" clip-rule="evenodd" d="M448.998 681C448.998 681 448.998 680.999 448.998 680.999C448.998 661.117 432.881 645 412.999 645C393.117 645 377 661.117 377 680.999C377 680.999 377 681 377 681L448.998 681Z" fill="#12AAA1"/>
<path fill-rule="evenodd" clip-rule="evenodd" d="M463.998 681C463.998 681 463.998 680.999 463.998 680.999C463.998 674.096 458.402 668.5 451.499 668.5C444.596 668.5 439 674.096 439 680.999C439 680.999 439 681 439 681L463.998 681Z" fill="#12AAA1"/>
<path fill-rule="evenodd" clip-rule="evenodd" d="M70.8969 680.553C70.8969 680.552 70.8969 680.552 70.8969 680.552C70.8969 664.783 83.6799 652 99.4484 652C115.217 652 128 664.783 128 680.552C128 680.552 128 680.552 128 680.553L70.8969 680.553Z" fill="#12AAA1"/>
<path fill-rule="evenodd" clip-rule="evenodd" d="M59.0002 680.553C59.0002 680.553 59.0002 680.552 59.0002 680.552C59.0002 675.077 63.4385 670.639 68.9135 670.639C74.3884 670.639 78.8267 675.077 78.8267 680.552C78.8267 680.552 78.8267 680.553 78.8267 680.553L59.0002 680.553Z" fill="#12AAA1"/>
<rect x="121" y="548" width="266" height="133" fill="#2ED1C7"/>
<circle cx="130.12" cy="669.36" r="11.6408" fill="#14B8AE"/>
<path fill-rule="evenodd" clip-rule="evenodd" d="M133.732 681.001C133.732 681.001 133.732 681.001 133.732 681C133.732 670.581 125.286 662.134 114.866 662.134C104.447 662.134 96 670.581 96 681C96 681.001 96 681.001 96 681.001L133.732 681.001Z" fill="#14B8AE"/>
<path fill-rule="evenodd" clip-rule="evenodd" d="M153 681C153 675.015 148.147 670.162 142.162 670.162C136.176 670.162 131.324 675.015 131.324 681L153 681Z" fill="#14B8AE"/>
<path d="M315 573C315 559.193 326.193 548 340 548C353.807 548 365 559.193 365 573V630H315V573Z" fill="#14B8AE"/>
<path fill-rule="evenodd" clip-rule="evenodd" d="M340 548C326.193 548 315 559.193 315 573V630H333V582C333 568.193 344.193 557 358 557C358.414 557 358.826 557.01 359.235 557.03C354.649 551.513 347.735 548 340 548Z" fill="#12AAA1"/>
<line x1="314" y1="570.5" x2="366" y2="570.5" stroke="#2ED1C7"/>
<line x1="340.5" y1="546" x2="340.5" y2="571" stroke="#2ED1C7"/>
<line x1="311" y1="602.5" x2="369" y2="602.5" stroke="white" stroke-width="3"/>
<line x1="314.5" y1="630" x2="314.5" y2="602" stroke="white"/>
<line x1="317.5" y1="630" x2="317.5" y2="602" stroke="white"/>
<line x1="320.5" y1="630" x2="320.5" y2="602" stroke="white"/>
<line x1="323.5" y1="630" x2="323.5" y2="602" stroke="white"/>
<line x1="326.5" y1="630" x2="326.5" y2="602" stroke="white"/>
<line x1="329.5" y1="630" x2="329.5" y2="602" stroke="white"/>
<line x1="332.5" y1="630" x2="332.5" y2="602" stroke="white"/>
<line x1="335.5" y1="630" x2="335.5" y2="602" stroke="white"/>
<line x1="338.5" y1="630" x2="338.5" y2="602" stroke="white"/>
<line x1="314" y1="629.5" x2="366" y2="629.5" stroke="white"/>
<line x1="341.5" y1="630" x2="341.5" y2="602" stroke="white"/>
<line x1="344.5" y1="630" x2="344.5" y2="602" stroke="white"/>
<line x1="347.5" y1="630" x2="347.5" y2="602" stroke="white"/>
<line x1="350.5" y1="630" x2="350.5" y2="602" stroke="white"/>
<line x1="353.5" y1="630" x2="353.5" y2="602" stroke="white"/>
<line x1="356.5" y1="630" x2="356.5" y2="602" stroke="white"/>
<line x1="359.5" y1="630" x2="359.5" y2="602" stroke="white"/>
<line x1="362.5" y1="630" x2="362.5" y2="602" stroke="white"/>
<line x1="365.5" y1="630" x2="365.5" y2="602" stroke="white"/>
<path d="M373 573C373 568.666 372.146 564.375 370.488 560.371C368.83 556.368 366.399 552.73 363.335 549.665C360.27 546.601 356.632 544.17 352.629 542.512C348.625 540.854 344.334 540 340 540C335.666 540 331.375 540.854 327.371 542.512C323.368 544.17 319.73 546.601 316.665 549.665C313.601 552.73 311.17 556.368 309.512 560.371C307.854 564.375 307 568.666 307 573H315.286C315.286 569.755 315.925 566.541 317.167 563.542C318.409 560.544 320.23 557.82 322.525 555.525C324.82 553.23 327.544 551.409 330.542 550.167C333.541 548.925 336.755 548.286 340 548.286C343.245 548.286 346.459 548.925 349.458 550.167C352.456 551.409 355.18 553.23 357.475 555.525C359.77 557.82 361.591 560.544 362.833 563.542C364.075 566.541 364.714 569.755 364.714 573H373Z" fill="#6ADED7"/>
<path d="M143 573C143 559.193 154.193 548 168 548C181.807 548 193 559.193 193 573V630H143V573Z" fill="#14B8AE"/>
<path fill-rule="evenodd" clip-rule="evenodd" d="M168 548C154.193 548 143 559.193 143 573V630H161V582C161 568.193 172.193 557 186 557C186.414 557 186.826 557.01 187.235 557.03C182.649 551.513 175.735 548 168 548Z" fill="#12AAA1"/>
<line x1="142" y1="570.5" x2="194" y2="570.5" stroke="#2ED1C7"/>
<line x1="168.5" y1="546" x2="168.5" y2="571" stroke="#2ED1C7"/>
<line x1="139" y1="602.5" x2="197" y2="602.5" stroke="white" stroke-width="3"/>
<line x1="142.5" y1="630" x2="142.5" y2="602" stroke="white"/>
<line x1="145.5" y1="630" x2="145.5" y2="602" stroke="white"/>
<line x1="148.5" y1="630" x2="148.5" y2="602" stroke="white"/>
<line x1="151.5" y1="630" x2="151.5" y2="602" stroke="white"/>
<line x1="154.5" y1="630" x2="154.5" y2="602" stroke="white"/>
<line x1="157.5" y1="630" x2="157.5" y2="602" stroke="white"/>
<line x1="160.5" y1="630" x2="160.5" y2="602" stroke="white"/>
<line x1="163.5" y1="630" x2="163.5" y2="602" stroke="white"/>
<line x1="166.5" y1="630" x2="166.5" y2="602" stroke="white"/>
<line x1="142" y1="629.5" x2="194" y2="629.5" stroke="white"/>
<line x1="169.5" y1="630" x2="169.5" y2="602" stroke="white"/>
<line x1="172.5" y1="630" x2="172.5" y2="602" stroke="white"/>
<line x1="175.5" y1="630" x2="175.5" y2="602" stroke="white"/>
<line x1="178.5" y1="630" x2="178.5" y2="602" stroke="white"/>
<line x1="181.5" y1="630" x2="181.5" y2="602" stroke="white"/>
<line x1="184.5" y1="630" x2="184.5" y2="602" stroke="white"/>
<line x1="187.5" y1="630" x2="187.5" y2="602" stroke="white"/>
<line x1="190.5" y1="630" x2="190.5" y2="602" stroke="white"/>
<line x1="193.5" y1="630" x2="193.5" y2="602" stroke="white"/>
<path d="M201 573C201 568.666 200.146 564.375 198.488 560.371C196.83 556.368 194.399 552.73 191.335 549.665C188.27 546.601 184.632 544.17 180.629 542.512C176.625 540.854 172.334 540 168 540C163.666 540 159.375 540.854 155.371 542.512C151.368 544.17 147.73 546.601 144.665 549.665C141.601 552.73 139.17 556.368 137.512 560.371C135.854 564.375 135 568.666 135 573H143.286C143.286 569.755 143.925 566.541 145.167 563.542C146.409 560.544 148.23 557.82 150.525 555.525C152.82 553.23 155.544 551.409 158.542 550.167C161.541 548.925 164.755 548.286 168 548.286C171.245 548.286 174.459 548.925 177.458 550.167C180.456 551.409 183.18 553.23 185.475 555.525C187.77 557.82 189.591 560.544 190.833 563.542C192.075 566.541 192.714 569.755 192.714 573H201Z" fill="#6ADED7"/>
<rect x="214" y="548" width="80" height="133" fill="#14B8AE"/>
<rect x="33" y="681" width="442" height="24" fill="#00234D"/>
<circle cx="282" cy="620" r="6" fill="#12AAA1"/>
<circle cx="280" cy="618" r="6" fill="#6ADED7"/>
<circle cx="117.5" cy="666.5" r="14.5" fill="#6ADED7"/>
<path fill-rule="evenodd" clip-rule="evenodd" d="M122 681C122 681 122 681 122 681C122 668.021 111.479 657.5 98.5 657.5C85.5213 657.5 75 668.021 75 681C75 681 75 681 75 681L122 681Z" fill="#6ADED7"/>
<path fill-rule="evenodd" clip-rule="evenodd" d="M146 681C146 681 146 681 146 681C146 673.544 139.956 667.5 132.5 667.5C125.044 667.5 119 673.544 119 681C119 681 119 681 119 681L146 681Z" fill="#6ADED7"/>
<circle r="14.5" transform="matrix(-1 0 0 1 385.5 666.5)" fill="#6ADED7"/>
<path fill-rule="evenodd" clip-rule="evenodd" d="M381 681C381 681 381 681 381 681C381 668.021 391.521 657.5 404.5 657.5C417.479 657.5 428 668.021 428 681C428 681 428 681 428 681L381 681Z" fill="#6ADED7"/>
<path fill-rule="evenodd" clip-rule="evenodd" d="M357 681C357 681 357 681 357 681C357 673.544 363.044 667.5 370.5 667.5C377.956 667.5 384 673.544 384 681C384 681 384 681 384 681L357 681Z" fill="#6ADED7"/>
<rect x="121" y="407" width="19" height="9" fill="#6ADED7"/>
<rect x="130" y="415" width="19" height="9" fill="#6ADED7"/>
<rect x="294" y="650" width="9" height="9" fill="#6ADED7"/>
<rect x="205" y="527" width="19" height="9" fill="#6ADED7"/>
<rect x="298" y="641" width="19" height="9" fill="#6ADED7"/>
<rect x="324" y="660" width="19" height="9" fill="#6ADED7"/>
<rect x="174" y="657" width="19" height="9" fill="#6ADED7"/>
<rect x="375" y="379" width="12" height="9" fill="#6ADED7"/>
<path fill-rule="evenodd" clip-rule="evenodd" d="M256.213 5.21222L417 165.999L387 166.165V298.999H121V167.635L93.6396 167.786L256.213 5.21222Z" fill="#2ED1C7"/>
<rect x="318" y="166" width="19" height="9" fill="#6ADED7"/>
<rect x="296" y="151" width="19" height="9" fill="#6ADED7"/>
<rect x="191" y="170" width="19" height="9" fill="#6ADED7"/>
<path fill-rule="evenodd" clip-rule="evenodd" d="M256.342 5.34199L237.001 24.6825L386.999 174.681V166.166L416.999 166L256.342 5.34199Z" fill="#14B8AE"/>
<path fill-rule="evenodd" clip-rule="evenodd" d="M277.99 26.4156L121.36 183.045V167.422L97.4888 167.553L258.308 6.73392L277.99 26.4156Z" fill="#14B8AE"/>
<path d="M303 228.998C303 215.191 314.193 203.998 328 203.998C341.807 203.998 353 215.191 353 228.998V285.998H303V228.998Z" fill="#14B8AE"/>
<path fill-rule="evenodd" clip-rule="evenodd" d="M328 203.998C314.193 203.998 303 215.191 303 228.998V285.998H321V237.998C321 224.191 332.193 212.998 346 212.998C346.414 212.998 346.826 213.008 347.235 213.028C342.649 207.511 335.735 203.998 328 203.998Z" fill="#12AAA1"/>
<line x1="302" y1="226.498" x2="354" y2="226.498" stroke="#2ED1C7"/>
<line x1="328.5" y1="201.998" x2="328.5" y2="226.998" stroke="#2ED1C7"/>
<path d="M361 228.998C361 224.665 360.146 220.374 358.488 216.37C356.83 212.366 354.399 208.728 351.335 205.664C348.27 202.6 344.632 200.169 340.629 198.51C336.625 196.852 332.334 195.998 328 195.998C323.666 195.998 319.375 196.852 315.371 198.51C311.368 200.169 307.73 202.6 304.665 205.664C301.601 208.728 299.17 212.366 297.512 216.37C295.854 220.374 295 224.665 295 228.998H303.286C303.286 225.753 303.925 222.539 305.167 219.541C306.409 216.542 308.23 213.818 310.525 211.523C312.82 209.228 315.544 207.408 318.542 206.166C321.541 204.924 324.755 204.285 328 204.285C331.245 204.285 334.459 204.924 337.458 206.166C340.456 207.408 343.18 209.228 345.475 211.523C347.77 213.818 349.591 216.542 350.833 219.541C352.075 222.539 352.714 225.753 352.714 228.998H361Z" fill="#6ADED7"/>
<line x1="299" y1="258.498" x2="357" y2="258.498" stroke="white" stroke-width="3"/>
<line x1="302.5" y1="285.998" x2="302.5" y2="257.998" stroke="white"/>
<line x1="305.5" y1="285.998" x2="305.5" y2="257.998" stroke="white"/>
<line x1="308.5" y1="285.998" x2="308.5" y2="257.998" stroke="white"/>
<line x1="311.5" y1="285.998" x2="311.5" y2="257.998" stroke="white"/>
<line x1="314.5" y1="285.998" x2="314.5" y2="257.998" stroke="white"/>
<line x1="317.5" y1="285.998" x2="317.5" y2="257.998" stroke="white"/>
<line x1="320.5" y1="285.998" x2="320.5" y2="257.998" stroke="white"/>
<line x1="323.5" y1="285.998" x2="323.5" y2="257.998" stroke="white"/>
<line x1="326.5" y1="285.998" x2="326.5" y2="257.998" stroke="white"/>
<line x1="302" y1="285.498" x2="354" y2="285.498" stroke="white"/>
<line x1="329.5" y1="285.998" x2="329.5" y2="257.998" stroke="white"/>
<line x1="332.5" y1="285.998" x2="332.5" y2="257.998" stroke="white"/>
<line x1="335.5" y1="285.998" x2="335.5" y2="257.998" stroke="white"/>
<line x1="338.5" y1="285.998" x2="338.5" y2="257.998" stroke="white"/>
<line x1="341.5" y1="285.998" x2="341.5" y2="257.998" stroke="white"/>
<line x1="344.5" y1="285.998" x2="344.5" y2="257.998" stroke="white"/>
<line x1="347.5" y1="285.998" x2="347.5" y2="257.998" stroke="white"/>
<line x1="350.5" y1="285.998" x2="350.5" y2="257.998" stroke="white"/>
<line x1="353.5" y1="285.998" x2="353.5" y2="257.998" stroke="white"/>
<path d="M229 228.998C229 215.191 240.193 203.998 254 203.998C267.807 203.998 279 215.191 279 228.998V285.998H229V228.998Z" fill="#14B8AE"/>
<path fill-rule="evenodd" clip-rule="evenodd" d="M254 203.998C240.193 203.998 229 215.191 229 228.998V285.998H247V237.998C247 224.191 258.193 212.998 272 212.998C272.414 212.998 272.826 213.008 273.235 213.028C268.649 207.511 261.735 203.998 254 203.998Z" fill="#12AAA1"/>
<line x1="228" y1="226.498" x2="280" y2="226.498" stroke="#2ED1C7"/>
<line x1="254.5" y1="201.998" x2="254.5" y2="226.998" stroke="#2ED1C7"/>
<path d="M287 228.998C287 224.665 286.146 220.374 284.488 216.37C282.83 212.366 280.399 208.728 277.335 205.664C274.27 202.6 270.632 200.169 266.629 198.51C262.625 196.852 258.334 195.998 254 195.998C249.666 195.998 245.375 196.852 241.371 198.51C237.368 200.169 233.73 202.6 230.665 205.664C227.601 208.728 225.17 212.366 223.512 216.37C221.854 220.374 221 224.665 221 228.998H229.286C229.286 225.753 229.925 222.539 231.167 219.541C232.409 216.542 234.23 213.818 236.525 211.523C238.82 209.228 241.544 207.408 244.542 206.166C247.541 204.924 250.755 204.285 254 204.285C257.245 204.285 260.459 204.924 263.458 206.166C266.456 207.408 269.18 209.228 271.475 211.523C273.77 213.818 275.591 216.542 276.833 219.541C278.075 222.539 278.714 225.753 278.714 228.998H287Z" fill="#6ADED7"/>
<line x1="225" y1="258.498" x2="283" y2="258.498" stroke="white" stroke-width="3"/>
<line x1="228.5" y1="285.998" x2="228.5" y2="257.998" stroke="white"/>
<line x1="231.5" y1="285.998" x2="231.5" y2="257.998" stroke="white"/>
<line x1="234.5" y1="285.998" x2="234.5" y2="257.998" stroke="white"/>
<line x1="237.5" y1="285.998" x2="237.5" y2="257.998" stroke="white"/>
<line x1="240.5" y1="285.998" x2="240.5" y2="257.998" stroke="white"/>
<line x1="243.5" y1="285.998" x2="243.5" y2="257.998" stroke="white"/>
<line x1="246.5" y1="285.998" x2="246.5" y2="257.998" stroke="white"/>
<line x1="249.5" y1="285.998" x2="249.5" y2="257.998" stroke="white"/>
<line x1="252.5" y1="285.998" x2="252.5" y2="257.998" stroke="white"/>
<line x1="228" y1="285.498" x2="280" y2="285.498" stroke="white"/>
<line x1="255.5" y1="285.998" x2="255.5" y2="257.998" stroke="white"/>
<line x1="258.5" y1="285.998" x2="258.5" y2="257.998" stroke="white"/>
<line x1="261.5" y1="285.998" x2="261.5" y2="257.998" stroke="white"/>
<line x1="264.5" y1="285.998" x2="264.5" y2="257.998" stroke="white"/>
<line x1="267.5" y1="285.998" x2="267.5" y2="257.998" stroke="white"/>
<line x1="270.5" y1="285.998" x2="270.5" y2="257.998" stroke="white"/>
<line x1="273.5" y1="285.998" x2="273.5" y2="257.998" stroke="white"/>
<line x1="276.5" y1="285.998" x2="276.5" y2="257.998" stroke="white"/>
<line x1="279.5" y1="285.998" x2="279.5" y2="257.998" stroke="white"/>
<path d="M155 228.998C155 215.191 166.193 203.998 180 203.998C193.807 203.998 205 215.191 205 228.998V285.998H155V228.998Z" fill="#14B8AE"/>
<path fill-rule="evenodd" clip-rule="evenodd" d="M180 203.998C166.193 203.998 155 215.191 155 228.998V285.998H173V237.998C173 224.191 184.193 212.998 198 212.998C198.414 212.998 198.826 213.008 199.235 213.028C194.649 207.511 187.735 203.998 180 203.998Z" fill="#12AAA1"/>
<line x1="154" y1="226.498" x2="206" y2="226.498" stroke="#2ED1C7"/>
<line x1="180.5" y1="201.998" x2="180.5" y2="226.998" stroke="#2ED1C7"/>
<path d="M213 228.998C213 224.665 212.146 220.374 210.488 216.37C208.83 212.366 206.399 208.728 203.335 205.664C200.27 202.6 196.632 200.169 192.629 198.51C188.625 196.852 184.334 195.998 180 195.998C175.666 195.998 171.375 196.852 167.371 198.51C163.368 200.169 159.73 202.6 156.665 205.664C153.601 208.728 151.17 212.366 149.512 216.37C147.854 220.374 147 224.665 147 228.998H155.286C155.286 225.753 155.925 222.539 157.167 219.541C158.409 216.542 160.23 213.818 162.525 211.523C164.82 209.228 167.544 207.408 170.542 206.166C173.541 204.924 176.755 204.285 180 204.285C183.245 204.285 186.459 204.924 189.458 206.166C192.456 207.408 195.18 209.228 197.475 211.523C199.77 213.818 201.591 216.542 202.833 219.541C204.075 222.539 204.714 225.753 204.714 228.998H213Z" fill="#6ADED7"/>
<line x1="151" y1="258.498" x2="209" y2="258.498" stroke="white" stroke-width="3"/>
<line x1="154.5" y1="285.998" x2="154.5" y2="257.998" stroke="white"/>
<line x1="157.5" y1="285.998" x2="157.5" y2="257.998" stroke="white"/>
<line x1="160.5" y1="285.998" x2="160.5" y2="257.998" stroke="white"/>
<line x1="163.5" y1="285.998" x2="163.5" y2="257.998" stroke="white"/>
<line x1="166.5" y1="285.998" x2="166.5" y2="257.998" stroke="white"/>
<line x1="169.5" y1="285.998" x2="169.5" y2="257.998" stroke="white"/>
<line x1="172.5" y1="285.998" x2="172.5" y2="257.998" stroke="white"/>
<line x1="175.5" y1="285.998" x2="175.5" y2="257.998" stroke="white"/>
<line x1="178.5" y1="285.998" x2="178.5" y2="257.998" stroke="white"/>
<line x1="154" y1="285.498" x2="206" y2="285.498" stroke="white"/>
<line x1="181.5" y1="285.998" x2="181.5" y2="257.998" stroke="white"/>
<line x1="184.5" y1="285.998" x2="184.5" y2="257.998" stroke="white"/>
<line x1="187.5" y1="285.998" x2="187.5" y2="257.998" stroke="white"/>
<line x1="190.5" y1="285.998" x2="190.5" y2="257.998" stroke="white"/>
<line x1="193.5" y1="285.998" x2="193.5" y2="257.998" stroke="white"/>
<line x1="196.5" y1="285.998" x2="196.5" y2="257.998" stroke="white"/>
<line x1="199.5" y1="285.998" x2="199.5" y2="257.998" stroke="white"/>
<line x1="202.5" y1="285.998" x2="202.5" y2="257.998" stroke="white"/>
<line x1="205.5" y1="285.998" x2="205.5" y2="257.998" stroke="white"/>
<rect x="58.0234" y="197.042" width="278.66" height="27.8342" transform="rotate(-45 58.0234 197.042)" fill="#6ADED7"/>
<rect width="278.66" height="27.8342" transform="matrix(-0.707107 -0.707107 -0.707107 0.707107 454.725 197.042)" fill="#6ADED7"/>
<circle cx="254" cy="135.998" r="25" fill="#14B8AE"/>
<path fill-rule="evenodd" clip-rule="evenodd" d="M272.738 119.448C271.204 119.154 269.62 119 268 119C254.193 119 243 130.193 243 144C243 150.347 245.365 156.141 249.262 160.55C237.72 158.335 229 148.185 229 135.998C229 122.191 240.193 110.998 254 110.998C261.46 110.998 268.158 114.266 272.738 119.448Z" fill="#12AAA1"/>
<line x1="228" y1="133.5" x2="280" y2="133.5" stroke="#2ED1C7"/>
<line x1="254.5" y1="109" x2="254.5" y2="134" stroke="#2ED1C7"/>
<path d="M287 136C287 131.666 286.146 127.375 284.488 123.371C282.83 119.368 280.399 115.73 277.335 112.665C274.27 109.601 270.632 107.17 266.629 105.512C262.625 103.854 258.334 103 254 103C249.666 103 245.375 103.854 241.371 105.512C237.368 107.17 233.73 109.601 230.665 112.665C227.601 115.73 225.17 119.368 223.512 123.371C221.854 127.375 221 131.666 221 136H229.286C229.286 132.755 229.925 129.541 231.167 126.542C232.409 123.544 234.23 120.82 236.525 118.525C238.82 116.23 241.544 114.409 244.542 113.167C247.541 111.925 250.755 111.286 254 111.286C257.245 111.286 260.459 111.925 263.458 113.167C266.456 114.409 269.18 116.23 271.475 118.525C273.77 120.82 275.591 123.544 276.833 126.542C278.075 129.541 278.714 132.755 278.714 136H287Z" fill="#6ADED7"/>
<path opacity="0.21" fill-rule="evenodd" clip-rule="evenodd" d="M121 173.375L256.375 38L387 168.625V301H121V173.375Z" fill="black"/>
<path fill-rule="evenodd" clip-rule="evenodd" d="M123.116 171.259L121.001 173.374V176.275H124.001V174.617L125.238 173.38L123.116 171.259ZM121.001 298V301H124.024V298H121.001ZM387.001 171.635H384.001V169.869L382.703 168.57L384.824 166.449L387.001 168.626V171.635ZM380.47 162.095L378.348 164.216L373.994 159.862L376.115 157.741L380.47 162.095ZM371.761 153.386L369.64 155.508L365.286 151.153L367.407 149.032L371.761 153.386ZM363.053 144.678L360.932 146.799L356.577 142.445L358.699 140.324L363.053 144.678ZM354.344 135.97L349.99 131.615L347.869 133.737L352.223 138.091L354.344 135.97ZM345.636 127.261L341.282 122.907L339.161 125.028L343.515 129.382L345.636 127.261ZM336.928 118.553L334.806 120.674L330.452 116.32L332.573 114.199L336.928 118.553ZM328.219 109.844L323.865 105.49L321.744 107.611L326.098 111.966L328.219 109.844ZM319.511 101.136L317.39 103.257L313.035 98.9031L315.157 96.7818L319.511 101.136ZM310.802 92.4276L308.681 94.5489L304.327 90.1947L306.448 88.0734L310.802 92.4276ZM302.094 83.7192L299.973 85.8405L295.619 81.4863L297.74 79.365L302.094 83.7192ZM293.386 75.0108L291.264 77.1321L286.91 72.7779L289.031 70.6566L293.386 75.0108ZM284.677 66.3024L282.556 68.4237L278.202 64.0695L280.323 61.9482L284.677 66.3024ZM275.969 57.594L273.848 59.7153L269.493 55.3611L271.615 53.2398L275.969 57.594ZM267.261 48.8856L265.139 51.0069L260.785 46.6527L262.906 44.5314L267.261 48.8856ZM258.552 40.1772L256.431 42.2985L254.254 40.1214L256.375 38.0001L258.552 40.1772ZM250.029 44.3457L252.151 46.4671L247.92 50.6975L245.799 48.5762L250.029 44.3457ZM241.568 52.8066L237.338 57.0371L239.459 59.1584L243.69 54.9279L241.568 52.8066ZM233.108 61.2675L235.229 63.3888L230.998 67.6193L228.877 65.4979L233.108 61.2675ZM224.647 69.7284L226.768 71.8497L222.538 76.0801L220.416 73.9588L224.647 69.7284ZM216.186 78.1892L211.955 82.4197L214.077 84.541L218.307 80.3106L216.186 78.1892ZM207.725 86.6501L203.495 90.8806L205.616 93.0019L209.846 88.7714L207.725 86.6501ZM199.264 95.111L195.034 99.3414L197.155 101.463L201.385 97.2323L199.264 95.111ZM190.803 103.572L186.573 107.802L188.694 109.924L192.925 105.693L190.803 103.572ZM182.342 112.033L184.464 114.154L180.233 118.385L178.112 116.263L182.342 112.033ZM173.881 120.494L176.003 122.615L171.772 126.845L169.651 124.724L173.881 120.494ZM165.421 128.954L167.542 131.076L163.311 135.306L161.19 133.185L165.421 128.954ZM156.96 137.415L159.081 139.537L154.851 143.767L152.729 141.646L156.96 137.415ZM148.499 145.876L150.62 147.998L146.39 152.228L144.268 150.107L148.499 145.876ZM140.038 154.337L142.159 156.458L137.929 160.689L135.808 158.568L140.038 154.337ZM131.577 162.798L127.347 167.028L129.468 169.15L133.698 164.919L131.577 162.798ZM387.001 177.652H384.001V183.669H387.001V177.652ZM387.001 189.686H384.001V195.703H387.001V189.686ZM387.001 201.719H384.001V207.736H387.001V201.719ZM387.001 213.753H384.001V219.77H387.001V213.753ZM387.001 225.787H384.001V231.804H387.001V225.787ZM387.001 237.821H384.001V243.838H387.001V237.821ZM387.001 249.855H384.001V255.872H387.001V249.855ZM387.001 261.889H384.001V267.906H387.001V261.889ZM387.001 273.923H384.001V279.94H387.001V273.923ZM387.001 285.957H384.001V291.974H387.001V285.957ZM387.001 297.991H384.001V298H383.978V301H387.001V297.991ZM377.933 301V298H371.887V301H377.933ZM365.842 301V298H359.796V301H365.842ZM353.751 301V298H347.706V301H353.751ZM341.66 301V298H335.615V301H341.66ZM329.569 301V298H323.524V301H329.569ZM317.478 301V298H311.433V301H317.478ZM305.387 301V298H299.342V301H305.387ZM293.296 301V298H287.251V301H293.296ZM281.206 301V298H275.16V301H281.206ZM269.115 301V298H263.069V301H269.115ZM257.024 301V298H250.978V301H257.024ZM244.933 301V298H238.887V301H244.933ZM232.842 301V298H226.796V301H232.842ZM220.751 301V298H214.706V301H220.751ZM208.66 301V298H202.615V301H208.66ZM196.569 301V298H190.524V301H196.569ZM184.478 301V298H178.433V301H184.478ZM172.387 301V298H166.342V301H172.387ZM160.296 301V298H154.251V301H160.296ZM148.206 301V298H142.16V301H148.206ZM136.115 301V298H130.069V301H136.115ZM121.001 292.298H124.001V286.497H121.001V292.298ZM121.001 280.696H124.001V274.894H121.001V280.696ZM121.001 269.093H124.001V263.292H121.001V269.093ZM121.001 257.491H124.001V251.69H121.001V257.491ZM121.001 245.889H124.001V240.088H121.001V245.889ZM121.001 234.286H124.001V228.485H121.001V234.286ZM121.001 222.684H124.001V216.883H121.001V222.684ZM121.001 211.082H124.001V205.281H121.001V211.082ZM121.001 199.479H124.001V193.678H121.001V199.479ZM121.001 187.877H124.001V182.076H121.001V187.877Z" fill="white"/>
<path d="M229 461C229 447.193 240.193 436 254 436C267.807 436 279 447.193 279 461V518H229V461Z" fill="#14B8AE"/>
<path fill-rule="evenodd" clip-rule="evenodd" d="M254 436C240.193 436 229 447.193 229 461V518H247V470C247 456.193 258.193 445 272 445C272.414 445 272.826 445.01 273.235 445.03C268.649 439.513 261.735 436 254 436Z" fill="#12AAA1"/>
<line x1="228" y1="458.5" x2="280" y2="458.5" stroke="#2ED1C7"/>
<line x1="254.5" y1="434" x2="254.5" y2="459" stroke="#2ED1C7"/>
<line x1="225" y1="490.5" x2="283" y2="490.5" stroke="white" stroke-width="3"/>
<line x1="228.5" y1="518" x2="228.5" y2="490" stroke="white"/>
<line x1="231.5" y1="518" x2="231.5" y2="490" stroke="white"/>
<line x1="234.5" y1="518" x2="234.5" y2="490" stroke="white"/>
<line x1="237.5" y1="518" x2="237.5" y2="490" stroke="white"/>
<line x1="240.5" y1="518" x2="240.5" y2="490" stroke="white"/>
<line x1="243.5" y1="518" x2="243.5" y2="490" stroke="white"/>
<line x1="246.5" y1="518" x2="246.5" y2="490" stroke="white"/>
<line x1="249.5" y1="518" x2="249.5" y2="490" stroke="white"/>
<line x1="252.5" y1="518" x2="252.5" y2="490" stroke="white"/>
<line x1="228" y1="517.5" x2="280" y2="517.5" stroke="white"/>
<line x1="255.5" y1="518" x2="255.5" y2="490" stroke="white"/>
<line x1="258.5" y1="518" x2="258.5" y2="490" stroke="white"/>
<line x1="261.5" y1="518" x2="261.5" y2="490" stroke="white"/>
<line x1="264.5" y1="518" x2="264.5" y2="490" stroke="white"/>
<line x1="267.5" y1="518" x2="267.5" y2="490" stroke="white"/>
<line x1="270.5" y1="518" x2="270.5" y2="490" stroke="white"/>
<line x1="273.5" y1="518" x2="273.5" y2="490" stroke="white"/>
<line x1="276.5" y1="518" x2="276.5" y2="490" stroke="white"/>
<line x1="279.5" y1="518" x2="279.5" y2="490" stroke="white"/>
<path d="M287 461C287 456.666 286.146 452.375 284.488 448.371C282.83 444.368 280.399 440.73 277.335 437.665C274.27 434.601 270.632 432.17 266.629 430.512C262.625 428.854 258.334 428 254 428C249.666 428 245.375 428.854 241.371 430.512C237.368 432.17 233.73 434.601 230.665 437.665C227.601 440.73 225.17 444.368 223.512 448.371C221.854 452.375 221 456.666 221 461H229.286C229.286 457.755 229.925 454.541 231.167 451.542C232.409 448.544 234.23 445.82 236.525 443.525C238.82 441.23 241.544 439.409 244.542 438.167C247.541 436.925 250.755 436.286 254 436.286C257.245 436.286 260.459 436.925 263.458 438.167C266.456 439.409 269.18 441.23 271.475 443.525C273.77 445.82 275.591 448.544 276.833 451.542C278.075 454.541 278.714 457.755 278.714 461H287Z" fill="#6ADED7"/>
<path d="M303 461C303 447.193 314.193 436 328 436C341.807 436 353 447.193 353 461V518H303V461Z" fill="#14B8AE"/>
<path fill-rule="evenodd" clip-rule="evenodd" d="M328 436C314.193 436 303 447.193 303 461V518H321V470C321 456.193 332.193 445 346 445C346.414 445 346.826 445.01 347.235 445.03C342.649 439.513 335.735 436 328 436Z" fill="#12AAA1"/>
<line x1="302" y1="458.5" x2="354" y2="458.5" stroke="#2ED1C7"/>
<line x1="328.5" y1="434" x2="328.5" y2="459" stroke="#2ED1C7"/>
<line x1="299" y1="490.5" x2="357" y2="490.5" stroke="white" stroke-width="3"/>
<line x1="302.5" y1="518" x2="302.5" y2="490" stroke="white"/>
<line x1="305.5" y1="518" x2="305.5" y2="490" stroke="white"/>
<line x1="308.5" y1="518" x2="308.5" y2="490" stroke="white"/>
<line x1="311.5" y1="518" x2="311.5" y2="490" stroke="white"/>
<line x1="314.5" y1="518" x2="314.5" y2="490" stroke="white"/>
<line x1="317.5" y1="518" x2="317.5" y2="490" stroke="white"/>
<line x1="320.5" y1="518" x2="320.5" y2="490" stroke="white"/>
<line x1="323.5" y1="518" x2="323.5" y2="490" stroke="white"/>
<line x1="326.5" y1="518" x2="326.5" y2="490" stroke="white"/>
<line x1="302" y1="517.5" x2="354" y2="517.5" stroke="white"/>
<line x1="329.5" y1="518" x2="329.5" y2="490" stroke="white"/>
<line x1="332.5" y1="518" x2="332.5" y2="490" stroke="white"/>
<line x1="335.5" y1="518" x2="335.5" y2="490" stroke="white"/>
<line x1="338.5" y1="518" x2="338.5" y2="490" stroke="white"/>
<line x1="341.5" y1="518" x2="341.5" y2="490" stroke="white"/>
<line x1="344.5" y1="518" x2="344.5" y2="490" stroke="white"/>
<line x1="347.5" y1="518" x2="347.5" y2="490" stroke="white"/>
<line x1="350.5" y1="518" x2="350.5" y2="490" stroke="white"/>
<line x1="353.5" y1="518" x2="353.5" y2="490" stroke="white"/>
<path d="M361 461C361 456.666 360.146 452.375 358.488 448.371C356.83 444.368 354.399 440.73 351.335 437.665C348.27 434.601 344.632 432.17 340.629 430.512C336.625 428.854 332.334 428 328 428C323.666 428 319.375 428.854 315.371 430.512C311.368 432.17 307.73 434.601 304.665 437.665C301.601 440.73 299.17 444.368 297.512 448.371C295.854 452.375 295 456.666 295 461H303.286C303.286 457.755 303.925 454.541 305.167 451.542C306.409 448.544 308.23 445.82 310.525 443.525C312.82 441.23 315.544 439.409 318.542 438.167C321.541 436.925 324.755 436.286 328 436.286C331.245 436.286 334.459 436.925 337.458 438.167C340.456 439.409 343.18 441.23 345.475 443.525C347.77 445.82 349.591 448.544 350.833 451.542C352.075 454.541 352.714 457.755 352.714 461H361Z" fill="#6ADED7"/>
<path d="M155 461C155 447.193 166.193 436 180 436C193.807 436 205 447.193 205 461V518H155V461Z" fill="#14B8AE"/>
<path fill-rule="evenodd" clip-rule="evenodd" d="M180 436C166.193 436 155 447.193 155 461V518H173V470C173 456.193 184.193 445 198 445C198.414 445 198.826 445.01 199.235 445.03C194.649 439.513 187.735 436 180 436Z" fill="#12AAA1"/>
<line x1="154" y1="458.5" x2="206" y2="458.5" stroke="#2ED1C7"/>
<line x1="180.5" y1="434" x2="180.5" y2="459" stroke="#2ED1C7"/>
<line x1="151" y1="490.5" x2="209" y2="490.5" stroke="white" stroke-width="3"/>
<line x1="154.5" y1="518" x2="154.5" y2="490" stroke="white"/>
<line x1="157.5" y1="518" x2="157.5" y2="490" stroke="white"/>
<line x1="160.5" y1="518" x2="160.5" y2="490" stroke="white"/>
<line x1="163.5" y1="518" x2="163.5" y2="490" stroke="white"/>
<line x1="166.5" y1="518" x2="166.5" y2="490" stroke="white"/>
<line x1="169.5" y1="518" x2="169.5" y2="490" stroke="white"/>
<line x1="172.5" y1="518" x2="172.5" y2="490" stroke="white"/>
<line x1="175.5" y1="518" x2="175.5" y2="490" stroke="white"/>
<line x1="178.5" y1="518" x2="178.5" y2="490" stroke="white"/>
<line x1="154" y1="517.5" x2="206" y2="517.5" stroke="white"/>
<line x1="181.5" y1="518" x2="181.5" y2="490" stroke="white"/>
<line x1="184.5" y1="518" x2="184.5" y2="490" stroke="white"/>
<line x1="187.5" y1="518" x2="187.5" y2="490" stroke="white"/>
<line x1="190.5" y1="518" x2="190.5" y2="490" stroke="white"/>
<line x1="193.5" y1="518" x2="193.5" y2="490" stroke="white"/>
<line x1="196.5" y1="518" x2="196.5" y2="490" stroke="white"/>
<line x1="199.5" y1="518" x2="199.5" y2="490" stroke="white"/>
<line x1="202.5" y1="518" x2="202.5" y2="490" stroke="white"/>
<line x1="205.5" y1="518" x2="205.5" y2="490" stroke="white"/>
<path d="M213 461C213 456.666 212.146 452.375 210.488 448.371C208.83 444.368 206.399 440.73 203.335 437.665C200.27 434.601 196.632 432.17 192.629 430.512C188.625 428.854 184.334 428 180 428C175.666 428 171.375 428.854 167.371 430.512C163.368 432.17 159.73 434.601 156.665 437.665C153.601 440.73 151.17 444.368 149.512 448.371C147.854 452.375 147 456.666 147 461H155.286C155.286 457.755 155.925 454.541 157.167 451.542C158.409 448.544 160.23 445.82 162.525 443.525C164.82 441.23 167.544 439.409 170.542 438.167C173.541 436.925 176.755 436.286 180 436.286C183.245 436.286 186.459 436.925 189.458 438.167C192.456 439.409 195.18 441.23 197.475 443.525C199.77 445.82 201.591 448.544 202.833 451.542C204.075 454.541 204.714 457.755 204.714 461H213Z" fill="#6ADED7"/>
<rect x="214" y="548" width="4" height="133" fill="#12AAA1"/>
<rect x="294" y="548" width="4" height="80" transform="rotate(90 294 548)" fill="#12AAA1"/>
<circle cx="83.704" cy="126.704" r="70.704" fill="#00234D"/>
<path d="M148.108 197.365L84.0912 197.365L130.729 167.264L148.108 197.365Z" fill="#00234D"/>
<path d="M52.0864 136.377V133.317C55.8864 130.217 58.5164 127.807 59.9764 126.087C61.4364 124.347 62.1664 122.777 62.1664 121.377C62.1664 120.517 61.9364 119.807 61.4764 119.247C61.0164 118.667 60.3264 118.377 59.4064 118.377C58.2264 118.377 57.3264 118.827 56.7064 119.727C56.1064 120.627 55.7864 121.827 55.7464 123.327L51.7264 122.187C51.9464 119.907 52.7164 118.087 54.0364 116.727C55.3564 115.367 57.1964 114.687 59.5564 114.687C61.8164 114.687 63.5764 115.307 64.8364 116.547C66.0964 117.767 66.7264 119.267 66.7264 121.047C66.7264 124.407 63.9864 128.167 58.5064 132.327H66.7564V136.377H52.0864ZM84.0444 133.977C82.6244 135.837 80.4944 136.767 77.6544 136.767C74.8144 136.767 72.6844 135.837 71.2644 133.977C69.8444 132.117 69.1344 129.437 69.1344 125.937C69.1344 122.397 69.8544 119.637 71.2944 117.657C72.7344 115.677 74.8544 114.687 77.6544 114.687C80.4744 114.687 82.5944 115.687 84.0144 117.687C85.4544 119.667 86.1744 122.417 86.1744 125.937C86.1744 129.437 85.4644 132.117 84.0444 133.977ZM77.6544 133.017C79.0144 133.017 80.0144 132.467 80.6544 131.367C81.2944 130.247 81.6144 128.427 81.6144 125.907C81.6144 120.927 80.2944 118.437 77.6544 118.437C75.0144 118.437 73.6944 120.907 73.6944 125.847C73.6944 128.387 74.0044 130.217 74.6244 131.337C75.2644 132.457 76.2744 133.017 77.6544 133.017ZM96.0025 135.897L93.0925 133.767L108.452 115.287L111.362 117.447L96.0025 135.897ZM94.9225 126.147C93.1425 126.147 91.6925 125.587 90.5725 124.467C89.4725 123.347 88.9225 121.977 88.9225 120.357C88.9225 118.737 89.4725 117.387 90.5725 116.307C91.6925 115.207 93.1325 114.657 94.8925 114.657C96.6725 114.657 98.0825 115.197 99.1225 116.277C100.182 117.357 100.712 118.717 100.712 120.357C100.712 121.977 100.182 123.347 99.1225 124.467C98.0625 125.587 96.6625 126.147 94.9225 126.147ZM94.9225 122.577C95.5025 122.577 95.9825 122.367 96.3625 121.947C96.7425 121.527 96.9325 121.007 96.9325 120.387C96.9325 119.787 96.7425 119.277 96.3625 118.857C95.9825 118.417 95.5025 118.197 94.9225 118.197C94.3025 118.197 93.7925 118.407 93.3925 118.827C93.0125 119.227 92.8225 119.747 92.8225 120.387C92.8225 121.007 93.0125 121.527 93.3925 121.947C93.7925 122.367 94.3025 122.577 94.9225 122.577ZM109.652 136.737C107.872 136.737 106.422 136.187 105.302 135.087C104.202 133.967 103.652 132.597 103.652 130.977C103.652 129.357 104.202 128.007 105.302 126.927C106.402 125.827 107.832 125.277 109.592 125.277C111.372 125.277 112.782 125.817 113.822 126.897C114.882 127.977 115.412 129.337 115.412 130.977C115.412 132.597 114.882 133.967 113.822 135.087C112.782 136.187 111.392 136.737 109.652 136.737ZM109.622 133.197C110.222 133.197 110.702 132.987 111.062 132.567C111.442 132.147 111.632 131.627 111.632 131.007C111.632 130.387 111.442 129.867 111.062 129.447C110.682 129.027 110.202 128.817 109.622 128.817C109.002 128.817 108.492 129.027 108.092 129.447C107.712 129.847 107.522 130.367 107.522 131.007C107.522 131.627 107.712 132.147 108.092 132.567C108.492 132.987 109.002 133.197 109.622 133.197Z" fill="white"/>
<circle r="70.704" transform="matrix(-1 0 0 1 440.093 460.704)" fill="#00234D"/>
<path d="M375.689 531.365L439.706 531.365L393.068 501.264L375.689 531.365Z" fill="#00234D"/>
<path d="M415.663 470.767C413.043 470.767 411.013 470.157 409.573 468.937C408.133 467.717 407.413 466.137 407.413 464.197C407.413 461.597 408.693 459.717 411.253 458.557V458.527C409.313 457.487 408.343 455.987 408.343 454.027C408.343 452.407 408.993 451.117 410.293 450.157C411.613 449.177 413.423 448.687 415.723 448.687C418.103 448.687 419.943 449.177 421.243 450.157C422.563 451.137 423.223 452.427 423.223 454.027C423.223 455.007 422.943 455.887 422.383 456.667C421.843 457.447 421.143 458.027 420.283 458.407V458.437C422.843 459.737 424.123 461.637 424.123 464.137C424.123 466.057 423.353 467.647 421.813 468.907C420.273 470.147 418.223 470.767 415.663 470.767ZM415.753 466.747C417.033 466.747 417.983 466.457 418.603 465.877C419.223 465.297 419.533 464.547 419.533 463.627C419.533 462.667 419.203 461.887 418.543 461.287C417.903 460.667 416.973 460.357 415.753 460.357C414.573 460.357 413.643 460.667 412.963 461.287C412.303 461.907 411.973 462.687 411.973 463.627C411.973 464.527 412.293 465.277 412.933 465.877C413.573 466.457 414.513 466.747 415.753 466.747ZM415.753 456.877C416.733 456.877 417.493 456.657 418.033 456.217C418.573 455.757 418.843 455.157 418.843 454.417C418.843 453.757 418.573 453.217 418.033 452.797C417.513 452.377 416.763 452.167 415.783 452.167C414.803 452.167 414.053 452.387 413.533 452.827C413.013 453.247 412.753 453.797 412.753 454.477C412.753 455.197 413.023 455.777 413.563 456.217C414.103 456.657 414.833 456.877 415.753 456.877ZM441.194 467.977C439.774 469.837 437.644 470.767 434.804 470.767C431.964 470.767 429.834 469.837 428.414 467.977C426.994 466.117 426.284 463.437 426.284 459.937C426.284 456.397 427.004 453.637 428.444 451.657C429.884 449.677 432.004 448.687 434.804 448.687C437.624 448.687 439.744 449.687 441.164 451.687C442.604 453.667 443.324 456.417 443.324 459.937C443.324 463.437 442.614 466.117 441.194 467.977ZM434.804 467.017C436.164 467.017 437.164 466.467 437.804 465.367C438.444 464.247 438.764 462.427 438.764 459.907C438.764 454.927 437.444 452.437 434.804 452.437C432.164 452.437 430.844 454.907 430.844 459.847C430.844 462.387 431.154 464.217 431.774 465.337C432.414 466.457 433.424 467.017 434.804 467.017ZM453.152 469.897L450.242 467.767L465.602 449.287L468.512 451.447L453.152 469.897ZM452.072 460.147C450.292 460.147 448.842 459.587 447.722 458.467C446.622 457.347 446.072 455.977 446.072 454.357C446.072 452.737 446.622 451.387 447.722 450.307C448.842 449.207 450.282 448.657 452.042 448.657C453.822 448.657 455.232 449.197 456.272 450.277C457.332 451.357 457.862 452.717 457.862 454.357C457.862 455.977 457.332 457.347 456.272 458.467C455.212 459.587 453.812 460.147 452.072 460.147ZM452.072 456.577C452.652 456.577 453.132 456.367 453.512 455.947C453.892 455.527 454.082 455.007 454.082 454.387C454.082 453.787 453.892 453.277 453.512 452.857C453.132 452.417 452.652 452.197 452.072 452.197C451.452 452.197 450.942 452.407 450.542 452.827C450.162 453.227 449.972 453.747 449.972 454.387C449.972 455.007 450.162 455.527 450.542 455.947C450.942 456.367 451.452 456.577 452.072 456.577ZM466.802 470.737C465.022 470.737 463.572 470.187 462.452 469.087C461.352 467.967 460.802 466.597 460.802 464.977C460.802 463.357 461.352 462.007 462.452 460.927C463.552 459.827 464.982 459.277 466.742 459.277C468.522 459.277 469.932 459.817 470.972 460.897C472.032 461.977 472.562 463.337 472.562 464.977C472.562 466.597 472.032 467.967 470.972 469.087C469.932 470.187 468.542 470.737 466.802 470.737ZM466.772 467.197C467.372 467.197 467.852 466.987 468.212 466.567C468.592 466.147 468.782 465.627 468.782 465.007C468.782 464.387 468.592 463.867 468.212 463.447C467.832 463.027 467.352 462.817 466.772 462.817C466.152 462.817 465.642 463.027 465.242 463.447C464.862 463.847 464.672 464.367 464.672 465.007C464.672 465.627 464.862 466.147 465.242 466.567C465.642 466.987 466.152 467.197 466.772 467.197Z" fill="white"/>
</svg>
