<svg width="429" height="417" viewBox="0 0 429 417" fill="none" xmlns="http://www.w3.org/2000/svg">
<ellipse cx="209" cy="403" rx="123" ry="14" fill="#E6E6E6"/>
<circle r="18" transform="matrix(1 0 0 -1 202 201)" fill="white"/>
<line x1="201.5" y1="193.5" x2="201.5" y2="91.5" stroke="white" stroke-width="15" stroke-linecap="round"/>
<line x1="191.5" y1="202.5" x2="130.5" y2="202.5" stroke="white" stroke-width="15" stroke-linecap="round"/>
<ellipse cx="201.5" cy="201" rx="201.5" ry="201" fill="#6ADED7"/>
<ellipse cx="201.5" cy="201" rx="188.5" ry="188" fill="#2ED1C7"/>
<path d="M309 204C309 261.429 262.223 308 204.5 308C146.777 308 100 261.429 100 204C100 146.571 146.777 100 204.5 100C262.223 100 309 146.571 309 204Z" fill="#2ED1C7" stroke="#00B7B7" stroke-width="4"/>
<path d="M306 201C306 258.429 259.223 305 201.5 305C143.777 305 97 258.429 97 201C97 143.571 143.777 97 201.5 97C259.223 97 306 143.571 306 201Z" stroke="#6ADED7" stroke-width="4"/>
<ellipse cx="201.5" cy="201" rx="25.5" ry="25" fill="#6ADED7"/>
<circle r="13.7098" transform="matrix(1 0 0 -1 279.506 75.0656)" fill="#00B7B7" stroke="#00B7B7" stroke-width="4"/>
<circle r="13.7098" transform="matrix(1 0 0 -1 276.506 72.0656)" fill="white" stroke="#6ADED7" stroke-width="4"/>
<circle r="13.7098" transform="matrix(1 0 0 -1 279.506 332.681)" fill="#00B7B7" stroke="#00B7B7" stroke-width="4"/>
<circle r="13.7098" transform="matrix(1 0 0 -1 276.506 329.681)" fill="white" stroke="#6ADED7" stroke-width="4"/>
<circle r="13.7098" transform="matrix(1 0 0 -1 130.557 75.0656)" fill="#00B7B7" stroke="#00B7B7" stroke-width="4"/>
<circle r="13.7098" transform="matrix(1 0 0 -1 127.557 72.0656)" fill="white" stroke="#6ADED7" stroke-width="4"/>
<circle r="13.7098" transform="matrix(1 0 0 -1 129.557 332.681)" fill="#00B7B7" stroke="#00B7B7" stroke-width="4"/>
<circle r="13.7098" transform="matrix(1 0 0 -1 127.557 329.681)" fill="white" stroke="#6ADED7" stroke-width="4"/>
<circle r="13.7098" transform="matrix(1 0 0 -1 75.2234 129.4)" fill="#00B7B7" stroke="#00B7B7" stroke-width="4"/>
<circle r="13.7098" transform="matrix(1 0 0 -1 73.2234 126.4)" fill="white" stroke="#6ADED7" stroke-width="4"/>
<circle r="13.7098" transform="matrix(1 0 0 -1 332.839 129.4)" fill="#00B7B7" stroke="#00B7B7" stroke-width="4"/>
<circle r="13.7098" transform="matrix(1 0 0 -1 330.839 126.4)" fill="white" stroke="#6ADED7" stroke-width="4"/>
<circle r="13.7098" transform="matrix(1 0 0 -1 75.2234 278.347)" fill="#00B7B7" stroke="#00B7B7" stroke-width="4"/>
<circle r="13.7098" transform="matrix(1 0 0 -1 73.2234 275.347)" fill="white" stroke="#6ADED7" stroke-width="4"/>
<circle r="13.7098" transform="matrix(1 0 0 -1 333.839 278.347)" fill="#00B7B7" stroke="#00B7B7" stroke-width="4"/>
<circle r="13.7098" transform="matrix(1 0 0 -1 330.839 275.347)" fill="white" stroke="#6ADED7" stroke-width="4"/>
<rect x="189.916" y="38" width="13.3678" height="34.9138" fill="#00B7B7" stroke="#00B7B7" stroke-width="4"/>
<rect x="204.904" y="38" width="13.3678" height="34.9138" fill="#00B7B7" stroke="#00B7B7" stroke-width="4"/>
<rect x="186.916" y="36" width="13.3678" height="34.9138" fill="white" stroke="#6ADED7" stroke-width="4"/>
<rect x="201.904" y="36" width="13.3678" height="34.9138" fill="white" stroke="#6ADED7" stroke-width="4"/>
<path d="M218.942 362.494L207.094 342.068C205.938 340.075 203.06 340.075 201.904 342.068L190.057 362.494C188.897 364.494 190.34 367 192.652 367H216.347C218.659 367 220.102 364.494 218.942 362.494Z" fill="#00B7B7" stroke="#00B7B7" stroke-width="4"/>
<path d="M216.942 359.494L205.094 339.068C203.938 337.075 201.06 337.075 199.904 339.068L188.057 359.494C186.897 361.494 188.34 364 190.652 364H214.347C216.659 364 218.102 361.494 216.942 359.494Z" fill="white" stroke="#6ADED7" stroke-width="4"/>
<path d="M49.2848 218.784L69.7112 206.936C71.7044 205.78 71.7043 202.902 69.7112 201.746L49.2848 189.899C47.2848 188.739 44.7797 190.182 44.7797 192.494L44.7797 216.188C44.7797 218.501 47.2848 219.944 49.2848 218.784Z" fill="#00B7B7" stroke="#00B7B7" stroke-width="4"/>
<path d="M47.2839 215.784L67.7102 203.936C69.7034 202.78 69.7034 199.902 67.7102 198.746L47.2839 186.899C45.2839 185.739 42.7787 187.182 42.7787 189.494L42.7787 213.188C42.7787 215.501 45.2839 216.944 47.2839 215.784Z" fill="white" stroke="#6ADED7" stroke-width="4"/>
<path d="M362.716 189.9L342.29 201.747C340.297 202.903 340.297 205.782 342.29 206.938L362.716 218.785C364.716 219.945 367.221 218.502 367.221 216.19L367.221 192.495C367.221 190.183 364.716 188.74 362.716 189.9Z" fill="#00B7B7" stroke="#00B7B7" stroke-width="4"/>
<path d="M359.716 186.9L339.29 198.747C337.297 199.903 337.297 202.782 339.29 203.938L359.716 215.785C361.716 216.945 364.221 215.502 364.221 213.19L364.221 189.495C364.221 187.183 361.716 185.74 359.716 186.9Z" fill="white" stroke="#6ADED7" stroke-width="4"/>
<path d="M398.5 201C398.5 309.513 310.311 397.5 201.5 397.5C92.6894 397.5 4.5 309.513 4.5 201C4.5 92.4866 92.6894 4.5 201.5 4.5C310.311 4.5 398.5 92.4866 398.5 201Z" stroke="#00B7B7" stroke-width="9"/>
<circle r="18" transform="matrix(1 0 0 -1 202 201)" fill="white"/>
<circle r="62.8631" transform="matrix(-1 0 0 1 365.987 95.8631)" fill="#00234D"/>
<path d="M308.726 158.689L365.643 158.689L324.177 131.927L308.726 158.689Z" fill="#00234D"/>
<path d="M347.211 100.32C346.217 101.622 344.726 102.273 342.738 102.273C340.75 102.273 339.259 101.622 338.265 100.32C337.271 99.018 336.774 97.142 336.774 94.692C336.774 92.214 337.278 90.282 338.286 88.896C339.294 87.51 340.778 86.817 342.738 86.817C344.712 86.817 346.196 87.517 347.19 88.917C348.198 90.303 348.702 92.228 348.702 94.692C348.702 97.142 348.205 99.018 347.211 100.32ZM342.738 99.648C343.69 99.648 344.39 99.263 344.838 98.493C345.286 97.709 345.51 96.435 345.51 94.671C345.51 91.185 344.586 89.442 342.738 89.442C340.89 89.442 339.966 91.171 339.966 94.629C339.966 96.407 340.183 97.688 340.617 98.472C341.065 99.256 341.772 99.648 342.738 99.648ZM355.792 102.273C354.406 102.273 353.237 101.944 352.285 101.286C351.347 100.614 350.745 99.704 350.479 98.556L353.692 97.758C353.804 98.36 354.056 98.829 354.448 99.165C354.84 99.501 355.33 99.669 355.918 99.669C356.828 99.669 357.514 99.284 357.976 98.514C358.438 97.73 358.655 96.603 358.627 95.133C357.871 96.155 356.709 96.666 355.141 96.666C353.671 96.666 352.474 96.225 351.55 95.343C350.626 94.447 350.164 93.292 350.164 91.878C350.164 90.38 350.696 89.162 351.76 88.224C352.838 87.286 354.231 86.817 355.939 86.817C357.871 86.817 359.341 87.475 360.349 88.791C361.371 90.107 361.882 91.997 361.882 94.461C361.882 96.995 361.357 98.934 360.307 100.278C359.257 101.608 357.752 102.273 355.792 102.273ZM355.834 94.104C356.506 94.104 357.087 93.936 357.577 93.6C358.081 93.264 358.403 92.83 358.543 92.298C358.543 91.416 358.305 90.716 357.829 90.198C357.367 89.666 356.737 89.4 355.939 89.4C355.197 89.4 354.595 89.624 354.133 90.072C353.671 90.52 353.44 91.108 353.44 91.836C353.44 92.536 353.657 93.089 354.091 93.495C354.525 93.901 355.106 94.104 355.834 94.104ZM367.529 95.049C367.123 95.469 366.584 95.679 365.912 95.679C365.24 95.679 364.701 95.469 364.295 95.049C363.889 94.615 363.686 94.076 363.686 93.432C363.686 92.802 363.882 92.27 364.274 91.836C364.68 91.402 365.226 91.185 365.912 91.185C366.584 91.185 367.123 91.402 367.529 91.836C367.935 92.256 368.138 92.788 368.138 93.432C368.138 94.076 367.935 94.615 367.529 95.049ZM367.529 101.664C367.123 102.084 366.584 102.294 365.912 102.294C365.24 102.294 364.701 102.084 364.295 101.664C363.889 101.23 363.686 100.691 363.686 100.047C363.686 99.417 363.882 98.885 364.274 98.451C364.68 98.017 365.226 97.8 365.912 97.8C366.584 97.8 367.123 98.017 367.529 98.451C367.935 98.871 368.138 99.403 368.138 100.047C368.138 100.691 367.935 101.23 367.529 101.664ZM380.27 100.32C379.276 101.622 377.785 102.273 375.797 102.273C373.809 102.273 372.318 101.622 371.324 100.32C370.33 99.018 369.833 97.142 369.833 94.692C369.833 92.214 370.337 90.282 371.345 88.896C372.353 87.51 373.837 86.817 375.797 86.817C377.771 86.817 379.255 87.517 380.249 88.917C381.257 90.303 381.761 92.228 381.761 94.692C381.761 97.142 381.264 99.018 380.27 100.32ZM375.797 99.648C376.749 99.648 377.449 99.263 377.897 98.493C378.345 97.709 378.569 96.435 378.569 94.671C378.569 91.185 377.645 89.442 375.797 89.442C373.949 89.442 373.025 91.171 373.025 94.629C373.025 96.407 373.242 97.688 373.676 98.472C374.124 99.256 374.831 99.648 375.797 99.648ZM393.743 100.32C392.749 101.622 391.258 102.273 389.27 102.273C387.282 102.273 385.791 101.622 384.797 100.32C383.803 99.018 383.306 97.142 383.306 94.692C383.306 92.214 383.81 90.282 384.818 88.896C385.826 87.51 387.31 86.817 389.27 86.817C391.244 86.817 392.728 87.517 393.722 88.917C394.73 90.303 395.234 92.228 395.234 94.692C395.234 97.142 394.737 99.018 393.743 100.32ZM389.27 99.648C390.222 99.648 390.922 99.263 391.37 98.493C391.818 97.709 392.042 96.435 392.042 94.671C392.042 91.185 391.118 89.442 389.27 89.442C387.422 89.442 386.498 91.171 386.498 94.629C386.498 96.407 386.715 97.688 387.149 98.472C387.597 99.256 388.304 99.648 389.27 99.648Z" fill="white"/>
<path d="M335.997 106.494H396.011V109.833H335.997V106.494Z" fill="white"/>
<path fill-rule="evenodd" clip-rule="evenodd" d="M201.5 201C197.358 201 194 197.642 194 193.5L194 91.5C194 87.3579 197.358 84 201.5 84C205.642 84 209 87.3579 209 91.5L209 193.5C209 197.642 205.642 201 201.5 201Z" fill="white"/>
<path fill-rule="evenodd" clip-rule="evenodd" d="M199 202.5C199 206.642 195.642 210 191.5 210L130.5 210C126.358 210 123 206.642 123 202.5C123 198.358 126.358 195 130.5 195L191.5 195C195.642 195 199 198.358 199 202.5Z" fill="white"/>
</svg>
