<svg width="443" height="417" viewBox="0 0 443 417" fill="none" xmlns="http://www.w3.org/2000/svg">
<ellipse cx="202" cy="403" rx="123" ry="14" fill="#E6E6E6"/>
<circle r="18" transform="matrix(1 0 0 -1 202 201)" fill="white"/>
<line x1="201.5" y1="193.5" x2="201.5" y2="91.5" stroke="white" stroke-width="15" stroke-linecap="round"/>
<line x1="191.5" y1="202.5" x2="130.5" y2="202.5" stroke="white" stroke-width="15" stroke-linecap="round"/>
<ellipse cx="201.5" cy="201" rx="201.5" ry="201" fill="#6ADED7"/>
<ellipse cx="201.5" cy="201" rx="188.5" ry="188" fill="#2ED1C7"/>
<circle r="13.7098" transform="matrix(1 0 0 -1 279.506 75.0656)" fill="#00B7B7" stroke="#00B7B7" stroke-width="4"/>
<circle r="13.7098" transform="matrix(1 0 0 -1 276.506 72.0656)" fill="white" stroke="#6ADED7" stroke-width="4"/>
<circle r="13.7098" transform="matrix(1 0 0 -1 279.506 332.681)" fill="#00B7B7" stroke="#00B7B7" stroke-width="4"/>
<circle r="13.7098" transform="matrix(1 0 0 -1 276.506 329.681)" fill="white" stroke="#6ADED7" stroke-width="4"/>
<circle r="13.7098" transform="matrix(1 0 0 -1 130.557 75.0656)" fill="#00B7B7" stroke="#00B7B7" stroke-width="4"/>
<circle r="13.7098" transform="matrix(1 0 0 -1 127.557 72.0656)" fill="white" stroke="#6ADED7" stroke-width="4"/>
<circle r="13.7098" transform="matrix(1 0 0 -1 129.557 332.681)" fill="#00B7B7" stroke="#00B7B7" stroke-width="4"/>
<circle r="13.7098" transform="matrix(1 0 0 -1 127.557 329.681)" fill="white" stroke="#6ADED7" stroke-width="4"/>
<circle r="13.7098" transform="matrix(1 0 0 -1 75.2234 129.4)" fill="#00B7B7" stroke="#00B7B7" stroke-width="4"/>
<circle r="13.7098" transform="matrix(1 0 0 -1 73.2234 126.4)" fill="white" stroke="#6ADED7" stroke-width="4"/>
<circle r="13.7098" transform="matrix(1 0 0 -1 332.839 129.4)" fill="#00B7B7" stroke="#00B7B7" stroke-width="4"/>
<circle r="13.7098" transform="matrix(1 0 0 -1 330.839 126.4)" fill="white" stroke="#6ADED7" stroke-width="4"/>
<circle r="13.7098" transform="matrix(1 0 0 -1 75.2234 278.347)" fill="#00B7B7" stroke="#00B7B7" stroke-width="4"/>
<circle r="13.7098" transform="matrix(1 0 0 -1 73.2234 275.347)" fill="white" stroke="#6ADED7" stroke-width="4"/>
<circle r="13.7098" transform="matrix(1 0 0 -1 333.839 278.347)" fill="#00B7B7" stroke="#00B7B7" stroke-width="4"/>
<circle r="13.7098" transform="matrix(1 0 0 -1 330.839 275.347)" fill="white" stroke="#6ADED7" stroke-width="4"/>
<rect x="189.916" y="38" width="13.3678" height="34.9138" fill="#00B7B7" stroke="#00B7B7" stroke-width="4"/>
<rect x="204.904" y="38" width="13.3678" height="34.9138" fill="#00B7B7" stroke="#00B7B7" stroke-width="4"/>
<rect x="186.916" y="36" width="13.3678" height="34.9138" fill="white" stroke="#6ADED7" stroke-width="4"/>
<rect x="201.904" y="36" width="13.3678" height="34.9138" fill="white" stroke="#6ADED7" stroke-width="4"/>
<path d="M207.094 342.068C205.938 340.075 203.06 340.075 201.904 342.068M207.094 342.068L201.904 342.068M207.094 342.068L218.942 362.494C220.102 364.494 218.659 367 216.347 367H192.652C190.34 367 188.897 364.494 190.057 362.494L201.904 342.068M207.094 342.068L201.904 342.068" fill="#00B7B7" stroke="#00B7B7" stroke-width="4"/>
<path d="M205.094 339.068C203.938 337.075 201.06 337.075 199.904 339.068M205.094 339.068L199.904 339.068M205.094 339.068L216.942 359.494C218.102 361.494 216.659 364 214.347 364H190.652C188.34 364 186.897 361.494 188.057 359.494L199.904 339.068M205.094 339.068L199.904 339.068" fill="white" stroke="#6ADED7" stroke-width="4"/>
<path d="M69.7112 206.936C71.7044 205.78 71.7043 202.902 69.7112 201.746M69.7112 206.936L69.7112 201.746M69.7112 206.936L49.2848 218.784C47.2848 219.944 44.7797 218.501 44.7797 216.188L44.7797 192.494C44.7797 190.182 47.2848 188.739 49.2848 189.899L69.7112 201.746M69.7112 206.936L69.7112 201.746" fill="#00B7B7" stroke="#00B7B7" stroke-width="4"/>
<path d="M67.7102 203.936C69.7034 202.78 69.7034 199.902 67.7102 198.746M67.7102 203.936L67.7102 198.746M67.7102 203.936L47.2839 215.784C45.2839 216.944 42.7787 215.501 42.7787 213.188L42.7787 189.494C42.7787 187.182 45.2839 185.739 47.2839 186.899L67.7102 198.746M67.7102 203.936L67.7102 198.746" fill="white" stroke="#6ADED7" stroke-width="4"/>
<path d="M342.29 201.747C340.297 202.903 340.297 205.782 342.29 206.938M342.29 201.747L342.29 206.938M342.29 201.747L362.716 189.9C364.716 188.74 367.221 190.183 367.221 192.495L367.221 216.19C367.221 218.502 364.716 219.945 362.716 218.785L342.29 206.938M342.29 201.747L342.29 206.938" fill="#00B7B7" stroke="#00B7B7" stroke-width="4"/>
<path d="M339.29 198.747C337.297 199.903 337.297 202.782 339.29 203.938M339.29 198.747L339.29 203.938M339.29 198.747L359.716 186.9C361.716 185.74 364.221 187.183 364.221 189.495L364.221 213.19C364.221 215.502 361.716 216.945 359.716 215.785L339.29 203.938M339.29 198.747L339.29 203.938" fill="white" stroke="#6ADED7" stroke-width="4"/>
<path d="M309 204C309 261.429 262.223 308 204.5 308C146.777 308 100 261.429 100 204C100 146.571 146.777 100 204.5 100C262.223 100 309 146.571 309 204Z" fill="#2ED1C7" stroke="#00B7B7" stroke-width="4"/>
<path d="M306 201C306 258.429 259.223 305 201.5 305C143.777 305 97 258.429 97 201C97 143.571 143.777 97 201.5 97C259.223 97 306 143.571 306 201Z" stroke="#6ADED7" stroke-width="4"/>
<ellipse cx="201.5" cy="201" rx="25.5" ry="25" fill="#6ADED7"/>
<path d="M398.5 201C398.5 309.513 310.311 397.5 201.5 397.5C92.6894 397.5 4.5 309.513 4.5 201C4.5 92.4866 92.6894 4.5 201.5 4.5C310.311 4.5 398.5 92.4866 398.5 201Z" stroke="#00B7B7" stroke-width="9"/>
<circle r="18" transform="matrix(1 0 0 -1 202 201)" fill="white"/>
<circle r="62.8631" transform="matrix(-1 0 0 1 379.987 326.863)" fill="#00234D"/>
<path d="M322.726 389.689L379.643 389.689L338.177 362.927L322.726 389.689Z" fill="#00234D"/>
<path d="M356.842 333V322.164C356.604 322.57 356.24 322.892 355.75 323.13C355.26 323.368 354.777 323.487 354.301 323.487H353.461V320.568H354.007C354.805 320.568 355.477 320.337 356.023 319.875C356.583 319.413 356.919 318.818 357.031 318.09H359.95V333H356.842ZM362.835 333V330.858C365.495 328.688 367.336 327.001 368.358 325.797C369.38 324.579 369.891 323.48 369.891 322.5C369.891 321.898 369.73 321.401 369.408 321.009C369.086 320.603 368.603 320.4 367.959 320.4C367.133 320.4 366.503 320.715 366.069 321.345C365.649 321.975 365.425 322.815 365.397 323.865L362.583 323.067C362.737 321.471 363.276 320.197 364.2 319.245C365.124 318.293 366.412 317.817 368.064 317.817C369.646 317.817 370.878 318.251 371.76 319.119C372.642 319.973 373.083 321.023 373.083 322.269C373.083 324.621 371.165 327.253 367.329 330.165H373.104V333H362.835ZM378.842 326.049C378.436 326.469 377.897 326.679 377.225 326.679C376.553 326.679 376.014 326.469 375.608 326.049C375.202 325.615 374.999 325.076 374.999 324.432C374.999 323.802 375.195 323.27 375.587 322.836C375.993 322.402 376.539 322.185 377.225 322.185C377.897 322.185 378.436 322.402 378.842 322.836C379.248 323.256 379.451 323.788 379.451 324.432C379.451 325.076 379.248 325.615 378.842 326.049ZM378.842 332.664C378.436 333.084 377.897 333.294 377.225 333.294C376.553 333.294 376.014 333.084 375.608 332.664C375.202 332.23 374.999 331.691 374.999 331.047C374.999 330.417 375.195 329.885 375.587 329.451C375.993 329.017 376.539 328.8 377.225 328.8C377.897 328.8 378.436 329.017 378.842 329.451C379.248 329.871 379.451 330.403 379.451 331.047C379.451 331.691 379.248 332.23 378.842 332.664ZM391.583 331.32C390.589 332.622 389.098 333.273 387.11 333.273C385.122 333.273 383.631 332.622 382.637 331.32C381.643 330.018 381.146 328.142 381.146 325.692C381.146 323.214 381.65 321.282 382.658 319.896C383.666 318.51 385.15 317.817 387.11 317.817C389.084 317.817 390.568 318.517 391.562 319.917C392.57 321.303 393.074 323.228 393.074 325.692C393.074 328.142 392.577 330.018 391.583 331.32ZM387.11 330.648C388.062 330.648 388.762 330.263 389.21 329.493C389.658 328.709 389.882 327.435 389.882 325.671C389.882 322.185 388.958 320.442 387.11 320.442C385.262 320.442 384.338 322.171 384.338 325.629C384.338 327.407 384.555 328.688 384.989 329.472C385.437 330.256 386.144 330.648 387.11 330.648ZM405.057 331.32C404.063 332.622 402.572 333.273 400.584 333.273C398.596 333.273 397.105 332.622 396.111 331.32C395.117 330.018 394.62 328.142 394.62 325.692C394.62 323.214 395.124 321.282 396.132 319.896C397.14 318.51 398.624 317.817 400.584 317.817C402.558 317.817 404.042 318.517 405.036 319.917C406.044 321.303 406.548 323.228 406.548 325.692C406.548 328.142 406.051 330.018 405.057 331.32ZM400.584 330.648C401.536 330.648 402.236 330.263 402.684 329.493C403.132 328.709 403.356 327.435 403.356 325.671C403.356 322.185 402.432 320.442 400.584 320.442C398.736 320.442 397.812 322.171 397.812 325.629C397.812 327.407 398.029 328.688 398.463 329.472C398.911 330.256 399.618 330.648 400.584 330.648Z" fill="white"/>
<path d="M352.684 337.494H407.325V340.833H352.684V337.494Z" fill="white"/>
<path fill-rule="evenodd" clip-rule="evenodd" d="M201.5 202C197.358 202 194 198.642 194 194.5L194 133.5C194 129.358 197.358 126 201.5 126C205.642 126 209 129.358 209 133.5L209 194.5C209 198.642 205.642 202 201.5 202Z" fill="white"/>
<path fill-rule="evenodd" clip-rule="evenodd" d="M201.5 201C197.358 201 194 197.642 194 193.5L194 91.5C194 87.3579 197.358 84 201.5 84C205.642 84 209 87.3579 209 91.5L209 193.5C209 197.642 205.642 201 201.5 201Z" fill="white"/>
</svg>
